<?xml version="1.0" encoding="utf-8"?>
<!-- Generator: Adobe Illustrator 16.0.0, SVG Export Plug-In . SVG Version: 6.00 Build 0)  -->
<!DOCTYPE svg PUBLIC "-//W3C//DTD SVG 1.1//EN" "http://www.w3.org/Graphics/SVG/1.1/DTD/svg11.dtd">
<svg version="1.1" id="Layer_1" xmlns="http://www.w3.org/2000/svg" xmlns:xlink="http://www.w3.org/1999/xlink" x="0px" y="0px"
	 width="50px" height="50px" viewBox="0 0 50 50" enable-background="new 0 0 50 50" xml:space="preserve">
<rect fill="none" width="50" height="50"/>
<path fill="none" stroke="#000000" stroke-width="2" stroke-miterlimit="10" d="M43.734,21c-3.631,0-15.092,0-15.092,0
	S16.25,5.188,16.047,4.938s-0.422-0.594-1.125-0.672c-0.859-0.095-1.969-0.203-2.328-0.234c-0.406-0.035-0.719,0.141-0.496,0.734
	C12.388,5.539,18.748,21,18.748,21H6.034c0,0-2.458-4.722-2.878-5.531C2.965,15.101,2.557,15.014,2,15H1.297
	c-0.125,0-0.312,0-0.281,0.344C1.058,15.811,3,25,3,25s-1.888,9.197-1.984,9.656C0.953,34.953,1.172,35,1.297,35H2
	c0.966-0.009,0.954-0.079,1.156-0.469C3.576,33.722,6.034,29,6.034,29h12.714c0,0-6.36,15.461-6.65,16.234
	c-0.223,0.594,0.09,0.77,0.496,0.734c0.359-0.031,1.469-0.139,2.328-0.234c0.703-0.078,0.922-0.422,1.125-0.672S28.643,29,28.643,29
	s11.461,0,15.092,0c3.766,0,5.264-3.031,5.264-4S47.484,21,43.734,21z"/>
</svg>
