<?xml version="1.0" encoding="utf-8"?>
<!-- Generator: Adobe Illustrator 16.0.0, SVG Export Plug-In . SVG Version: 6.00 Build 0)  -->
<!DOCTYPE svg PUBLIC "-//W3C//DTD SVG 1.1//EN" "http://www.w3.org/Graphics/SVG/1.1/DTD/svg11.dtd">
<svg version="1.1" id="Layer_1" xmlns="http://www.w3.org/2000/svg" xmlns:xlink="http://www.w3.org/1999/xlink" x="0px" y="0px"
	 width="50px" height="50px" viewBox="0 0 50 50" enable-background="new 0 0 50 50" xml:space="preserve">
<rect fill="none" width="50" height="50"/>
<g>
	<g>
		<path fill="none" stroke="#000000" stroke-width="1.9974" stroke-miterlimit="10" d="M49,21H7v24h42V21L49,21z"/>
	</g>
</g>
<path fill="none" stroke="#000000" stroke-width="2" stroke-miterlimit="10" d="M39.574,21c3.547,0,3.728,3.712,4.705,4.689
	S49,26.917,49,29.261"/>
<path fill="none" stroke="#000000" stroke-width="2" stroke-miterlimit="10" d="M16.426,21c-3.547,0-3.728,3.712-4.706,4.689
	S7,26.917,7,29.261"/>
<path fill="none" stroke="#000000" stroke-width="2" stroke-miterlimit="10" d="M42.449,45c2.465,0,2.591-2.58,3.27-3.26
	C46.398,41.062,49,40.888,49,39.259"/>
<path fill="none" stroke="#000000" stroke-width="2" stroke-miterlimit="10" d="M13.551,45c-2.465,0-2.591-2.58-3.271-3.26
	C9.602,41.062,7,40.888,7,39.259"/>
<circle fill="none" stroke="#000000" stroke-width="2" stroke-miterlimit="10" cx="42.5" cy="33.5" r="2.5"/>
<circle fill="none" stroke="#000000" stroke-width="2" stroke-miterlimit="10" cx="13.5" cy="33.5" r="2.5"/>
<ellipse fill="none" stroke="#000000" stroke-width="2" stroke-miterlimit="10" cx="28" cy="33" rx="8" ry="9"/>
<g>
	<g>
		<path fill="none" stroke="#000000" stroke-width="1.9974" stroke-miterlimit="10" d="M47.084,20.997l-5.08-18.942l0,0
			L1.438,12.935L7.062,33.75"/>
	</g>
</g>
<path fill="none" stroke="#000000" stroke-width="2" stroke-miterlimit="10" d="M32.899,4.497c3.426-0.919,4.562,2.62,5.76,3.311
	c1.197,0.691,4.877-0.038,5.484,2.227"/>
<path fill="none" stroke="#000000" stroke-width="2" stroke-miterlimit="10" d="M10.542,10.493c-3.427,0.919-2.64,4.551-3.33,5.749
	c-0.691,1.197-4.242,2.408-3.635,4.672"/>
<circle fill="none" stroke="#000000" stroke-width="2" stroke-miterlimit="10" cx="38.963" cy="15.812" r="2.5"/>
<path fill="none" stroke="#000000" stroke-width="2" stroke-miterlimit="10" d="M32.838,20.737c0.139-1.198,0.057-2.461-0.282-3.724
	c-1.287-4.801-5.791-7.765-10.059-6.62c-4.267,1.144-6.683,5.964-5.395,10.765"/>
</svg>
