<?xml version="1.0" encoding="utf-8"?>
<!-- Generator: Adobe Illustrator 16.0.0, SVG Export Plug-In . SVG Version: 6.00 Build 0)  -->
<!DOCTYPE svg PUBLIC "-//W3C//DTD SVG 1.1//EN" "http://www.w3.org/Graphics/SVG/1.1/DTD/svg11.dtd">
<svg version="1.1" id="Layer_1" xmlns="http://www.w3.org/2000/svg" xmlns:xlink="http://www.w3.org/1999/xlink" x="0px" y="0px"
	 width="50px" height="50px" viewBox="0 0 50 50" enable-background="new 0 0 50 50" xml:space="preserve">
<rect fill="none" width="50" height="50"/>
<g>
	<path fill="none" stroke="#000000" stroke-width="2" stroke-linecap="round" stroke-linejoin="round" stroke-miterlimit="10" d="
		M25,1C11.745,1,1,11.745,1,25s10.745,24,24,24s24-10.745,24-24S38.255,1,25,1L25,1z"/>
</g>
<path fill="none" stroke="#000000" stroke-width="2.0583" stroke-linecap="round" stroke-linejoin="round" stroke-miterlimit="10" d="
	M40.696,6.832c0,0-13.169,8.212-11.532,22.332c1.142,9.858,11.935,13.377,11.935,13.377"/>
<path fill="none" stroke="#000000" stroke-width="2.0583" stroke-linecap="round" stroke-linejoin="round" stroke-miterlimit="10" d="
	M7.385,8.913c0,0,3.041,6.476,3.041,18.169c0,9.246-3.583,12.911-3.583,12.911"/>
<path fill="none" stroke="#000000" stroke-width="2.0583" stroke-linecap="round" stroke-linejoin="round" stroke-miterlimit="10" d="
	M1.852,22.932c0,0,6.493,6.232,23.148,6.232s23.438-6.246,23.438-6.246"/>
<path fill="none" stroke="#000000" stroke-width="2.0583" stroke-linecap="round" stroke-linejoin="round" stroke-miterlimit="10" d="
	M25.648,1.548c0,0-6.895,7.935-6.895,23.452C18.754,40.518,25,48.625,25,48.625"/>
</svg>
