<?xml version="1.0" encoding="utf-8"?>
<!-- Generator: Adobe Illustrator 16.0.0, SVG Export Plug-In . SVG Version: 6.00 Build 0)  -->
<!DOCTYPE svg PUBLIC "-//W3C//DTD SVG 1.1//EN" "http://www.w3.org/Graphics/SVG/1.1/DTD/svg11.dtd">
<svg version="1.1" id="Layer_1" xmlns="http://www.w3.org/2000/svg" xmlns:xlink="http://www.w3.org/1999/xlink" x="0px" y="0px"
	 width="50px" height="50px" viewBox="0 0 50 50" enable-background="new 0 0 50 50" xml:space="preserve">
<rect fill="none" width="50" height="50"/>
<path fill="none" stroke="#000000" stroke-width="2" stroke-linecap="round" stroke-miterlimit="10" d="M45.018,25
	C48,28,48,34,42,36c3,6-1.369,8-6,8c-0.99,3.975-5.145,5.013-6.997,5C26.722,48.984,25,47.32,25,45c0-6.001,0-28.343,0-38.342
	C25,2.14,26.316,1,29.003,1c6.006,0,9.31,3.564,10.009,6C44.955,7.724,49.896,14.875,45.018,25z"/>
<path fill="none" stroke="#000000" stroke-width="2" stroke-linecap="round" stroke-miterlimit="10" d="M45.18,24c0,0-1.18,5-9.18,5
	"/>
<path fill="none" stroke="#000000" stroke-width="2" stroke-linecap="round" stroke-miterlimit="10" d="M33,13c0,2,2,6,8,6"/>
<path fill="none" stroke="#000000" stroke-width="2" stroke-linecap="round" stroke-miterlimit="10" d="M4.983,25
	C2.212,28.006,2,34,8,36c-3,5,1.37,9,6,9c0.99,3.975,5,4,6.997,4C23.278,49,25,47.32,25,45c0-6.001,0-28.343,0-38.342
	C25,2.14,23.684,1,20.997,1c-6.006,0-9.31,3.564-10.009,6C5.045,7.724,0.104,14.875,4.983,25z"/>
<path fill="none" stroke="#000000" stroke-width="2" stroke-linecap="round" stroke-miterlimit="10" d="M17,24c0,0-2.096-2-6-2
	c-3.406,0-6.017,3-6.017,3"/>
<path fill="none" stroke="#000000" stroke-width="2" stroke-linecap="round" stroke-miterlimit="10" d="M16.994,38.999
	C16.994,38,17,32,10.988,31"/>
<path fill="none" stroke="#000000" stroke-width="2" stroke-linecap="round" stroke-miterlimit="10" d="M18.994,11
	c0,1-0.994,4-5.994,4"/>
<path fill="none" stroke="#000000" stroke-width="2" stroke-linecap="round" stroke-miterlimit="10" d="M36,44c-3-1-5-3-5-7"/>
</svg>
