<?xml version="1.0" encoding="utf-8"?>
<!-- Generator: Adobe Illustrator 16.0.0, SVG Export Plug-In . SVG Version: 6.00 Build 0)  -->
<!DOCTYPE svg PUBLIC "-//W3C//DTD SVG 1.1//EN" "http://www.w3.org/Graphics/SVG/1.1/DTD/svg11.dtd">
<svg version="1.1" id="Layer_1" xmlns="http://www.w3.org/2000/svg" xmlns:xlink="http://www.w3.org/1999/xlink" x="0px" y="0px"
	 width="50px" height="50px" viewBox="0 0 50 50" enable-background="new 0 0 50 50" xml:space="preserve">
<path fill="none" stroke="#000000" stroke-width="2" stroke-miterlimit="10" d="M45,44v3c0,1.104-0.896,2-2,2h-4
	c-1.104,0-2-0.896-2-2v-2"/>
<path fill="none" stroke="#000000" stroke-width="2" stroke-miterlimit="10" d="M13,45v2c0,1.104-0.896,2-2,2H7
	c-1.103,0-2-0.896-2-2v-3"/>
<rect fill="none" width="50" height="50"/>
<path fill="none" stroke="#000000" stroke-width="2" stroke-miterlimit="10" d="M46,9c0-5.161-1-8-6-8H12C6,1,4,2.714,4,8
	c0,4,0,17.919,0,21.846C4,35.617,4,41,4,41c0,3.312,2.688,4,6,4h30c3.312,0,6-0.688,6-4c0,0,0-4.426,0-11.154C46,25.85,46,13,46,9z"
	/>
<circle fill="none" stroke="#000000" stroke-width="2" stroke-miterlimit="10" cx="38.5" cy="37.5" r="3.5"/>
<circle fill="none" stroke="#000000" stroke-width="2" stroke-miterlimit="10" cx="11.5" cy="37.5" r="3.5"/>
<path fill="none" stroke="#000000" stroke-width="2" stroke-miterlimit="10" d="M46,13h2c0.553,0,1,0.448,1,1v8c0,0.552-0.447,1-1,1
	h-2"/>
<path fill="none" stroke="#000000" stroke-width="2" stroke-miterlimit="10" d="M4,13H2c-0.552,0-1,0.448-1,1v8c0,0.552,0.448,1,1,1
	h2"/>
<path fill="none" stroke="#000000" stroke-width="2" stroke-miterlimit="10" d="M37,7c0,0.552-0.447,1-1,1H15c-0.552,0-1-0.448-1-1
	V5c0-0.552,0.448-1,1-1h21c0.553,0,1,0.448,1,1V7z"/>
<path fill="none" stroke="#000000" stroke-width="2" stroke-miterlimit="10" d="M39,28.922L11,29c-2,0-3-1-3-3c0-3,0-8.859,0-12
	c0-2,1-3,3-3c9,0,15.713,0,28,0c2,0,3,1,3,3s0,10.977,0,12C42,28,40.047,28.922,39,28.922z"/>
</svg>
