<?xml version="1.0" encoding="utf-8"?>
<!-- Generator: Adobe Illustrator 16.0.0, SVG Export Plug-In . SVG Version: 6.00 Build 0)  -->
<!DOCTYPE svg PUBLIC "-//W3C//DTD SVG 1.1//EN" "http://www.w3.org/Graphics/SVG/1.1/DTD/svg11.dtd">
<svg version="1.1" id="Layer_1" xmlns="http://www.w3.org/2000/svg" xmlns:xlink="http://www.w3.org/1999/xlink" x="0px" y="0px"
	 width="50px" height="50px" viewBox="0 0 50 50" enable-background="new 0 0 50 50" xml:space="preserve">
<rect fill="none" width="50" height="50"/>
<path fill="none" stroke="#000000" stroke-width="2" stroke-linejoin="round" stroke-miterlimit="10" d="M42,10V6.846
	C42,5.827,41.181,5,40.167,5h-5.334C33.819,5,33,5.827,33,6.846V10"/>
<path fill="none" stroke="#000000" stroke-width="2" stroke-linejoin="round" stroke-miterlimit="10" d="M17,10V6.846
	C17,5.827,16.181,5,15.167,5H9.833C8.819,5,8,5.827,8,6.846V10"/>
<path fill="none" stroke="#000000" stroke-width="2.1037" stroke-linecap="round" stroke-linejoin="round" stroke-miterlimit="10" d="
	M45.308,12H4.692C2.653,12,1,13.642,1,15.667v25.667C1,43.358,2.653,45,4.692,45h40.615C47.347,45,49,43.358,49,41.334V15.667
	C49,13.642,47.347,12,45.308,12z"/>
<rect x="7" y="27" width="11" height="3"/>
<rect x="32" y="27" width="11" height="3"/>
<rect x="36" y="23" width="3" height="11"/>
</svg>
