<?xml version="1.0" encoding="utf-8"?>
<!-- Generator: Adobe Illustrator 16.0.0, SVG Export Plug-In . SVG Version: 6.00 Build 0)  -->
<!DOCTYPE svg PUBLIC "-//W3C//DTD SVG 1.1//EN" "http://www.w3.org/Graphics/SVG/1.1/DTD/svg11.dtd">
<svg version="1.1" id="Layer_1" xmlns="http://www.w3.org/2000/svg" xmlns:xlink="http://www.w3.org/1999/xlink" x="0px" y="0px"
	 width="50px" height="50px" viewBox="0 0 50 50" enable-background="new 0 0 50 50" xml:space="preserve">
<rect fill="none" width="50" height="50"/>
<path fill="none" stroke="#000000" stroke-width="2" stroke-linecap="round" stroke-miterlimit="10" d="M1,38l10.883-0.619
	c7.172,0,7.886-3.051,11.395-6.035c0,0,3.67-1.195,6.203-2.986c2.533-1.79,3.246-4.42,1.822-6.3
	c-1.426-1.88-4.357-0.639-7.043,0.795l-9.23,4.25"/>
<path fill="none" stroke="#000000" stroke-width="2" stroke-linecap="round" stroke-miterlimit="10" d="M17.097,12.676
	c-2.792-1.759-4.063,0.316-5.911,1.868C9.288,16.137,1,22,1,22"/>
<path fill="none" stroke="#000000" stroke-width="2" stroke-linecap="round" stroke-miterlimit="10" d="M30.639,32.156
	c0,0-0.254,1.338-0.371,2.477c-0.131,1.271-0.145,2.932,1.115,3.263c0.995,0.261,2.05,0.038,3-0.913
	c0.874-0.873,1.461-2.359,1.604-4.656"/>
<path fill="none" stroke="#000000" stroke-width="2" stroke-linecap="round" stroke-miterlimit="10" d="M24.757,32.367
	c0,0-0.161,2.156-0.359,3.249c-0.229,1.257,0.081,2.86,1.39,3.332c1.548,0.558,2.581,0.165,3.695-0.867
	c0.156-0.144,0.764-0.929,0.764-0.929"/>
<path fill="none" stroke="#000000" stroke-width="2" stroke-linecap="round" stroke-miterlimit="10" d="M18.644,35.831
	c-0.103,0.97,0.291,1.885,1.08,2.14c1.873,0.605,3.277-0.322,4.268-1.5"/>
<path fill="none" stroke="#000000" stroke-width="2.0083" stroke-linecap="round" stroke-linejoin="round" stroke-miterlimit="10" d="
	M22.725,32h22.918C47.496,32,49,30.484,49,28.615V13.554C49,11.686,47.217,10,45.363,10c0,0-21.379,0-24.727,0
	C18.399,10,17,12.2,17,13.667v11.96"/>
<rect x="17" y="14" width="32" height="4"/>
</svg>
