<?xml version="1.0" encoding="utf-8"?>
<!-- Generator: Adobe Illustrator 16.0.0, SVG Export Plug-In . SVG Version: 6.00 Build 0)  -->
<!DOCTYPE svg PUBLIC "-//W3C//DTD SVG 1.1//EN" "http://www.w3.org/Graphics/SVG/1.1/DTD/svg11.dtd">
<svg version="1.1" id="Layer_1" xmlns="http://www.w3.org/2000/svg" xmlns:xlink="http://www.w3.org/1999/xlink" x="0px" y="0px"
	 width="50px" height="50px" viewBox="0 0 50 50" enable-background="new 0 0 50 50" xml:space="preserve">
<rect fill="none" width="50" height="50"/>
<rect fill="none" width="50" height="50"/>
<path d="M21.966,20.39c0,1.576-1.048,2.578-2.545,2.581c-0.773,0-1.48-0.064-1.924-0.501c0,0,0.938,2.419,1.49,3.531
	c0.095,0.191-4.067,0.189-3.973,0c0.551-1.111,1.49-3.531,1.49-3.531c-0.445,0.417-1.204,0.507-1.919,0.509
	c-1.494,0.001-2.549-0.999-2.55-2.573C12.032,17.768,17,14,17,14S21.961,17.753,21.966,20.39z"/>
<path fill="none" stroke="#000000" stroke-width="2" stroke-linecap="round" stroke-linejoin="round" stroke-miterlimit="10" d="
	M1,4c0-1.657,1.344-3,3-3h26c1.656,0,3,1.343,3,3v34c0,1.656-1.344,3-3,3H4c-1.656,0-3-1.344-3-3V4z"/>
<g>
	<path d="M25.988,4.117C26.011,4.047,26.047,4,26.129,4h0.766c0.082,0,0.129,0.047,0.152,0.117l2.741,7.765
		C29.812,11.953,29.776,12,29.706,12h-0.824c-0.082,0-0.129-0.036-0.153-0.118l-0.61-1.741h-3.236l-0.611,1.741
		C24.235,11.964,24.188,12,24.117,12h-0.824c-0.069,0-0.104-0.047-0.081-0.118L25.988,4.117z M27.776,9.176l-1.259-3.635h-0.023
		l-1.271,3.635H27.776z"/>
</g>
<g>
	<path d="M8.012,37.883C7.989,37.953,7.953,38,7.871,38H7.105c-0.082,0-0.129-0.047-0.152-0.117l-2.741-7.766
		C4.188,30.047,4.224,30,4.294,30h0.824c0.082,0,0.129,0.035,0.153,0.117l0.61,1.742h3.236l0.611-1.742
		C9.765,30.035,9.812,30,9.883,30h0.824c0.069,0,0.104,0.047,0.081,0.117L8.012,37.883z M6.224,32.824l1.259,3.635h0.023
		l1.271-3.635H6.224z"/>
</g>
<path fill="none" stroke="#000000" stroke-width="2" stroke-linecap="round" stroke-linejoin="round" stroke-miterlimit="10" d="
	M33.043,6.534l13.836,4.312c1.582,0.493,2.465,2.175,1.971,3.757L38.733,47.064c-0.493,1.58-2.175,2.464-3.757,1.971L9.32,41.025"/>
<g>
	<path d="M42.121,12.629c0.042-0.061,0.091-0.095,0.169-0.07l0.731,0.228c0.078,0.024,0.108,0.083,0.11,0.157l0.306,8.229
		c0.002,0.075-0.045,0.108-0.113,0.088l-0.786-0.245c-0.078-0.024-0.112-0.072-0.11-0.158l-0.066-1.844l-3.09-0.963l-1.102,1.481
		c-0.058,0.068-0.112,0.087-0.181,0.066l-0.786-0.245c-0.066-0.021-0.086-0.075-0.043-0.136L42.121,12.629z M42.322,17.991
		l-0.119-3.845l-0.021-0.007l-2.297,3.092L42.322,17.991z"/>
</g>
</svg>
