<?xml version="1.0" encoding="utf-8"?>
<!-- Generator: Adobe Illustrator 16.0.0, SVG Export Plug-In . SVG Version: 6.00 Build 0)  -->
<!DOCTYPE svg PUBLIC "-//W3C//DTD SVG 1.1//EN" "http://www.w3.org/Graphics/SVG/1.1/DTD/svg11.dtd">
<svg version="1.1" id="Layer_1" xmlns="http://www.w3.org/2000/svg" xmlns:xlink="http://www.w3.org/1999/xlink" x="0px" y="0px"
	 width="50px" height="50px" viewBox="0 0 50 50" enable-background="new 0 0 50 50" xml:space="preserve">
<rect fill="none" width="50" height="50"/>
<polygon fill="none" stroke="#000000" stroke-width="2" stroke-linecap="round" stroke-linejoin="round" stroke-miterlimit="10" points="
	15,20 5,20 5,32 13,32 13,24 15,22 "/>
<path fill="none" stroke="#000000" stroke-width="2" stroke-linecap="round" stroke-linejoin="round" stroke-miterlimit="10" d="
	M49,44.646c-0.494,0.174-1.091,0.296-1.846,0.296c-1.538,0-3.902-0.42-5.539-1.71c-1.637,1.29-4,1.71-5.538,1.71
	s-3.901-0.42-5.539-1.71c-1.637,1.29-4,1.71-5.538,1.71s-3.901-0.42-5.539-1.71c-1.637,1.29-4,1.71-5.538,1.71
	s-3.901-0.42-5.538-1.71c-1.637,1.29-4.001,1.71-5.539,1.71c-0.69,0-1.291-0.062-1.846-0.147"/>
<path fill="none" stroke="#000000" stroke-width="2" stroke-linecap="round" stroke-linejoin="round" stroke-miterlimit="10" d="
	M49,48.646c-0.494,0.174-1.091,0.296-1.846,0.296c-1.538,0-3.902-0.42-5.539-1.71c-1.637,1.29-4,1.71-5.538,1.71
	s-3.901-0.42-5.539-1.71c-1.637,1.29-4,1.71-5.538,1.71s-3.901-0.42-5.539-1.71c-1.637,1.29-4,1.71-5.538,1.71
	s-3.901-0.42-5.538-1.71c-1.637,1.29-4.001,1.71-5.539,1.71c-0.69,0-1.291-0.062-1.846-0.147"/>
<path fill="none" stroke="#000000" stroke-width="2.0021" stroke-linecap="round" stroke-linejoin="round" stroke-miterlimit="10" d="
	M36,45c5.361,0,13-11.463,13-18.5c0-1-0.333-1.5-1.333-1.5H38c-1.209,0-1.902,0.27-2.408,0.69C34.613,26.507,33.135,32,29,32
	c-3.692,0-25,0-26,0s-2,1-2,1.924v2.956c0,1.603,2.018,4.964,5.294,6.74"/>
<line fill="none" stroke="#000000" stroke-width="2" stroke-linecap="round" stroke-linejoin="round" stroke-miterlimit="10" x1="10" y1="19" x2="10" y2="15"/>
<path d="M43,31.05c0,0.919-0.919,0.95-0.919,0.95h-2.015c0,0-1.066-0.06-1.066-0.979c0-0.535,0-1.306,0-1.306
	s0.034-0.386,0.653-0.386c0.62,0,0.68,0.386,0.68,0.386v0.8c0,0,0.062,0.387,0.653,0.387s0.681-0.387,0.681-0.387v-0.8
	c0,0,0.062-0.386,0.682-0.386c0.621,0,0.651,0.386,0.651,0.386S43,30.546,43,31.05z"/>
</svg>
