<?xml version="1.0" encoding="utf-8"?>
<!-- Generator: Adobe Illustrator 16.0.0, SVG Export Plug-In . SVG Version: 6.00 Build 0)  -->
<!DOCTYPE svg PUBLIC "-//W3C//DTD SVG 1.1//EN" "http://www.w3.org/Graphics/SVG/1.1/DTD/svg11.dtd">
<svg version="1.1" id="Layer_1" xmlns="http://www.w3.org/2000/svg" xmlns:xlink="http://www.w3.org/1999/xlink" x="0px" y="0px"
	 width="50px" height="50px" viewBox="0 0 50 50" enable-background="new 0 0 50 50" xml:space="preserve">
<g>
	<path d="M19.574,25.128c-0.145,0.709-0.058,1.428,0.26,2.155l4.344-2.834c-0.236-0.67-0.406-1.272-0.511-1.803
		c-0.105-0.532-0.131-1.013-0.078-1.445c0.053-0.433,0.206-0.825,0.459-1.176c0.253-0.352,0.62-0.686,1.101-1
		c0.492-0.321,1-0.527,1.523-0.62c0.523-0.092,1.033-0.085,1.53,0.019c0.497,0.104,0.966,0.304,1.409,0.6
		c0.441,0.296,0.832,0.668,1.171,1.116l1.082-0.705l0.589,0.901l-1.099,0.717c0.468,0.956,0.6,1.874,0.396,2.755
		c-0.205,0.881-0.716,1.745-1.535,2.589l-0.908-1.393c0.938-0.924,1.174-1.95,0.704-3.076l-4.033,2.63l0.379,1.154
		c0.088,0.255,0.159,0.574,0.216,0.958c0.056,0.384,0.052,0.79-0.01,1.222c-0.062,0.429-0.211,0.857-0.446,1.285
		c-0.237,0.426-0.607,0.803-1.108,1.129c-0.536,0.351-1.07,0.571-1.604,0.66c-0.533,0.092-1.053,0.076-1.56-0.045
		c-0.508-0.121-0.991-0.343-1.451-0.666c-0.46-0.322-0.883-0.732-1.269-1.228l-1.344,0.877l-0.589-0.902l1.344-0.876
		c-0.603-1.164-0.79-2.281-0.56-3.35c0.229-1.069,0.889-2.021,1.979-2.858l0.909,1.394C20.15,23.814,19.719,24.419,19.574,25.128z
		 M21.137,28.922c0.255,0.2,0.529,0.34,0.824,0.422c0.294,0.08,0.603,0.088,0.928,0.024c0.324-0.063,0.661-0.209,1.011-0.438
		c0.316-0.206,0.547-0.435,0.688-0.683c0.142-0.248,0.228-0.515,0.261-0.801c0.032-0.285,0.013-0.593-0.054-0.924
		c-0.067-0.329-0.154-0.67-0.258-1.022l-4.114,2.684C20.644,28.477,20.882,28.723,21.137,28.922z M28.037,20.029
		c-0.562-0.155-1.154-0.03-1.777,0.376c-0.283,0.186-0.497,0.391-0.638,0.616c-0.142,0.224-0.225,0.465-0.252,0.724
		c-0.026,0.259-0.013,0.535,0.038,0.828c0.051,0.293,0.127,0.602,0.23,0.925l3.834-2.501C29.076,20.507,28.597,20.184,28.037,20.029
		z"/>
</g>
<rect fill="none" width="50" height="50"/>
<rect fill="none" width="50" height="50"/>
<path fill="none" stroke="#000000" stroke-width="2" stroke-miterlimit="10" d="M22,11V3 M28,11V3 M22,47v-8 M28,47v-8"/>
<path fill="none" stroke="#000000" stroke-width="2" stroke-miterlimit="10" d="M11.375,20.598l-6.928-4 M14.375,15.402l-6.928-4
	 M42.553,38.598l-6.928-4 M45.553,33.402l-6.928-4"/>
<path fill="none" stroke="#000000" stroke-width="2" stroke-miterlimit="10" d="M14.375,34.599l-6.928,4 M11.375,29.402l-6.928,4
	 M45.553,16.598l-6.928,4 M42.553,11.401l-6.928,4"/>
<circle fill="none" stroke="#000000" stroke-width="2" stroke-linecap="round" stroke-linejoin="round" stroke-miterlimit="10" cx="25" cy="25" r="23"/>
<circle fill="none" stroke="#000000" stroke-width="2" stroke-linecap="round" stroke-linejoin="round" stroke-miterlimit="10" cx="25" cy="25" r="14"/>
</svg>
