<?xml version="1.0" encoding="utf-8"?>
<!-- Generator: Adobe Illustrator 16.0.0, SVG Export Plug-In . SVG Version: 6.00 Build 0)  -->
<!DOCTYPE svg PUBLIC "-//W3C//DTD SVG 1.1//EN" "http://www.w3.org/Graphics/SVG/1.1/DTD/svg11.dtd">
<svg version="1.1" id="Layer_1" xmlns="http://www.w3.org/2000/svg" xmlns:xlink="http://www.w3.org/1999/xlink" x="0px" y="0px"
	 width="50px" height="50px" viewBox="0 0 50 50" enable-background="new 0 0 50 50" xml:space="preserve">
<rect fill="none" width="50" height="50"/>
<rect fill="none" width="50" height="50"/>
<path fill="none" stroke="#000000" stroke-width="1.9879" stroke-linecap="round" stroke-linejoin="round" stroke-miterlimit="10" d="
	M45.965,22.289c0.306-2.702-1.393-4.811-4.415-5.155C39.123,16.862,35.056,18.289,31,20c3.1-3.554,5.802-7.543,6.301-10.105
	c0.614-3.12-0.999-5.487-3.828-6.031c-0.689-0.137-2.803,0.113-4.778-0.266c-1.904-0.368-3.673-1.356-4.392-1.493
	c-2.845-0.544-5.221,1.054-5.834,4.181C17.949,8.958,19.404,14.422,21,19c-3.626-3.323-8.029-7.077-10.757-7.67
	c-3.107-0.678-5.511,0.853-6.125,3.626c-0.151,0.678,0.043,2.76-0.39,4.692c-0.409,1.861-1.44,3.586-1.597,4.288
	c-0.611,2.782,0.931,5.158,4.039,5.84C9.289,30.453,16.015,28.689,21,27c-3.776,3.488-8.61,8.293-9.452,11.295
	c-0.828,2.961,0.542,5.367,3.23,6.105c0.655,0.188,2.71,0.105,4.584,0.623c1.811,0.501,3.445,1.586,4.123,1.778
	c2.695,0.739,5.116-0.621,5.952-3.587C30.314,40.086,28.436,32.941,27,28c3.966,3.047,9.52,6.707,12.51,7.045
	c3.016,0.338,5.15-1.344,5.461-4.039c0.074-0.657-0.32-2.614-0.102-4.495C45.074,24.703,45.882,22.97,45.965,22.289z"/>
<path fill="none" stroke="#000000" stroke-width="2" stroke-linecap="round" stroke-linejoin="round" stroke-miterlimit="10" d="
	M27,28c0,0,9.67,12.891,20.666,17.229c0.6,0.942-0.853,3.185-2.489,2.771C43.536,47.582,32.993,38.598,27,28z"/>
</svg>
