<?xml version="1.0" encoding="utf-8"?>
<!-- Generator: Adobe Illustrator 16.0.0, SVG Export Plug-In . SVG Version: 6.00 Build 0)  -->
<!DOCTYPE svg PUBLIC "-//W3C//DTD SVG 1.1//EN" "http://www.w3.org/Graphics/SVG/1.1/DTD/svg11.dtd">
<svg version="1.1" id="Layer_1" xmlns="http://www.w3.org/2000/svg" xmlns:xlink="http://www.w3.org/1999/xlink" x="0px" y="0px"
	 width="50px" height="50px" viewBox="0 0 50 50" enable-background="new 0 0 50 50" xml:space="preserve">
<rect fill="none" width="50" height="50"/>
<path fill="none" stroke="#000000" stroke-width="2" stroke-linecap="round" stroke-miterlimit="10" d="M36.439,20.453
	c-3.008,0-5.511,1.43-7.898,2.976c1.923-2.987,4.232-6.001,4.232-9.868c0-4.29-3.482-7.773-7.773-7.773s-7.773,3.483-7.773,7.773
	c0,3.834,2.318,6.854,4.245,9.854c-2.378-1.541-4.883-2.962-7.911-2.962c-4.29,0-7.773,3.482-7.773,7.781
	c0,4.291,3.483,7.773,7.773,7.773c3.583,0,6.453-2.025,9.262-3.863L19,45c3.998-0.718,8.037-0.683,12,0
	c0,0-2.102-7.064-3.816-12.834c2.79,1.832,5.652,3.842,9.256,3.842c4.29,0,7.773-3.482,7.773-7.773
	C44.213,23.936,40.729,20.453,36.439,20.453z"/>
</svg>
