<?xml version="1.0" encoding="utf-8"?>
<!-- Generator: Adobe Illustrator 16.0.0, SVG Export Plug-In . SVG Version: 6.00 Build 0)  -->
<!DOCTYPE svg PUBLIC "-//W3C//DTD SVG 1.1//EN" "http://www.w3.org/Graphics/SVG/1.1/DTD/svg11.dtd">
<svg version="1.1" id="Layer_1" xmlns="http://www.w3.org/2000/svg" xmlns:xlink="http://www.w3.org/1999/xlink" x="0px" y="0px"
	 width="50px" height="50px" viewBox="0 0 50 50" enable-background="new 0 0 50 50" xml:space="preserve">
<path fill="none" stroke="#000000" stroke-width="2" stroke-linejoin="round" stroke-miterlimit="10" d="M5,4c0,1.926,1.76,3,4,3h30
	c1.1,0,2,0.9,2,2v38c0,1.1-0.9,2-2,2H7c-1.1,0-2-0.9-2-2V4z"/>
<path fill="none" stroke="#000000" stroke-width="2" stroke-linejoin="round" stroke-miterlimit="10" d="M41,9h3c1.1,0,2,0.9,2,2v5
	c0,1.1-0.9,2-2,2h-3"/>
<path fill="none" stroke="#000000" stroke-width="2" stroke-linejoin="round" stroke-miterlimit="10" d="M41,18h3c1.1,0,2,0.9,2,2v5
	c0,1.1-0.9,2-2,2h-3"/>
<path fill="none" stroke="#000000" stroke-width="2" stroke-linejoin="round" stroke-miterlimit="10" d="M41,27h3c1.1,0,2,0.9,2,2v5
	c0,1.1-0.9,2-2,2h-3"/>
<path fill="none" stroke="#000000" stroke-width="2" stroke-linejoin="round" stroke-miterlimit="10" d="M41,36h3c1.1,0,2,0.9,2,2v5
	c0,1.1-0.9,2-2,2h-3"/>
<path fill="none" stroke="#000000" stroke-width="2" stroke-linejoin="round" stroke-miterlimit="10" d="M5,4
	c0-2.187,1.702-3,3.208-3H42c1.1,0,2,0.9,2,2v6"/>
<g>
	<path d="M23.012,19C28.306,19,32,22.695,32,27.941c0,3.4-1.641,4.86-3.627,4.86c-1.324,0-2.281-0.64-2.715-1.62h-0.022
		c-0.504,1.004-1.529,1.597-3.08,1.597c-1.644,0-2.76-0.729-3.265-2.235c-0.182-0.616-0.294-1.277-0.294-2.486
		c0-1.21,0.112-1.871,0.294-2.486c0.505-1.506,1.621-2.236,3.197-2.236c1.343,0,2.233,0.57,2.621,1.232h0.047v-0.798
		c0-0.137,0.091-0.206,0.183-0.206h1.209c0.138,0,0.203,0.069,0.203,0.206v5.612c0,1.347,0.778,1.938,1.622,1.938
		c1.073,0,2.006-0.798,2.006-3.377c0-4.402-2.873-7.459-7.367-7.459s-7.392,3.012-7.392,7.459c0,4.473,2.897,7.484,7.392,7.484
		c2.189,0,3.627-0.411,4.929-1.051c0.136-0.068,0.249-0.045,0.317,0.092l0.365,0.912c0.068,0.113,0.024,0.229-0.092,0.297
		c-1.526,0.82-3.17,1.232-5.52,1.232c-5.315,0-9.012-3.65-9.012-8.967C14,22.673,17.696,19,23.012,19z M22.898,31.273
		c1.049,0,1.731-0.457,2.076-1.414c0.135-0.412,0.182-0.89,0.182-1.803c0-0.912-0.047-1.392-0.182-1.801
		c-0.345-0.96-1.027-1.416-2.076-1.416c-1.051,0-1.734,0.456-2.054,1.416c-0.138,0.409-0.206,0.889-0.206,1.801
		c0,0.913,0.068,1.391,0.206,1.803C21.164,30.816,21.848,31.273,22.898,31.273z"/>
</g>
</svg>
