<?xml version="1.0" encoding="utf-8"?>
<!-- Generator: Adobe Illustrator 16.0.0, SVG Export Plug-In . SVG Version: 6.00 Build 0)  -->
<!DOCTYPE svg PUBLIC "-//W3C//DTD SVG 1.1//EN" "http://www.w3.org/Graphics/SVG/1.1/DTD/svg11.dtd">
<svg version="1.1" id="Layer_1" xmlns="http://www.w3.org/2000/svg" xmlns:xlink="http://www.w3.org/1999/xlink" x="0px" y="0px"
	 width="50px" height="50px" viewBox="0 0 50 50" enable-background="new 0 0 50 50" xml:space="preserve">
<g>
	<circle cx="36" cy="23" r="1"/>
	<circle cx="32" cy="23" r="1"/>
	<circle cx="32" cy="19" r="1"/>
	<circle cx="28" cy="19" r="1"/>
	<circle cx="36" cy="19" r="1"/>
	<circle cx="34" cy="21" r="1"/>
	<circle cx="34" cy="25" r="1"/>
	<circle cx="28" cy="23" r="1"/>
	<circle cx="30" cy="21" r="1"/>
	<circle cx="30" cy="25" r="1"/>
	<circle cx="40" cy="23" r="1"/>
	<circle cx="40" cy="19" r="1"/>
	<circle cx="44" cy="19" r="1"/>
	<circle cx="42" cy="21" r="1"/>
	<circle cx="42" cy="25" r="1"/>
	<circle cx="38" cy="21" r="1"/>
	<circle cx="38" cy="25" r="1"/>
	<circle cx="36" cy="27" r="1"/>
	<circle cx="32" cy="27" r="1"/>
	<circle cx="34" cy="29" r="1"/>
	<circle cx="40" cy="27" r="1"/>
	<circle cx="38" cy="29" r="1"/>
</g>
<g>
	<circle cx="14" cy="23" r="1"/>
	<circle cx="18" cy="23" r="1"/>
	<circle cx="18" cy="19" r="1"/>
	<circle cx="22" cy="19" r="1"/>
	<circle cx="14" cy="19" r="1"/>
	<circle cx="16" cy="21" r="1"/>
	<circle cx="16" cy="25" r="1"/>
	<circle cx="22" cy="23" r="1"/>
	<circle cx="20" cy="21" r="1"/>
	<circle cx="20" cy="25" r="1"/>
	<circle cx="10" cy="23" r="1"/>
	<circle cx="10" cy="19" r="1"/>
	<circle cx="6" cy="19" r="1"/>
	<circle cx="8" cy="21" r="1"/>
	<circle cx="8" cy="25" r="1"/>
	<circle cx="12" cy="21" r="1"/>
	<circle cx="12" cy="25" r="1"/>
	<circle cx="14" cy="27" r="1"/>
	<circle cx="18" cy="27" r="1"/>
	<circle cx="16" cy="29" r="1"/>
	<circle cx="10" cy="27" r="1"/>
	<circle cx="12" cy="29" r="1"/>
</g>
<rect fill="none" width="50" height="50"/>
<g>
	<path fill="none" stroke="#000000" stroke-width="2" stroke-linecap="round" stroke-linejoin="round" stroke-miterlimit="10" d="
		M25,2C12.297,2,2,12.297,2,25c0,12.703,10.297,23,23,23c12.703,0,23-10.297,23-23C48,12.297,37.703,2,25,2L25,2z"/>
</g>
<path fill="none" stroke="#000000" stroke-width="2" stroke-linecap="round" stroke-linejoin="round" stroke-miterlimit="10" d="
	M18,38c0,0,2,2,7,2c9,0,14-6,14-6"/>
<path fill="none" stroke="#000000" stroke-width="2" stroke-linecap="round" stroke-miterlimit="10" d="M27,19c0,0.003,0,2.997,0,3
	c0,6,3,8,8,8s9-3.021,9-7.25c0-2.854,2-2.244,2-3.007S42.356,18,33.396,18C30.49,18,29.443,18.704,27,19c0,0-0.736-1-2-1
	c-1.263,0-2,1-2,1c-2.449-0.296-3.475-1-6.396-1C7.644,18,4,18.98,4,19.743s2,0.153,2,3.007C6,26.979,10,30,15,30s8-2,8-8
	c0-0.003,0-3,0-3"/>
</svg>
