<?xml version="1.0" encoding="utf-8"?>
<!-- Generator: Adobe Illustrator 16.0.0, SVG Export Plug-In . SVG Version: 6.00 Build 0)  -->
<!DOCTYPE svg PUBLIC "-//W3C//DTD SVG 1.1//EN" "http://www.w3.org/Graphics/SVG/1.1/DTD/svg11.dtd">
<svg version="1.1" id="Layer_1" xmlns="http://www.w3.org/2000/svg" xmlns:xlink="http://www.w3.org/1999/xlink" x="0px" y="0px"
	 width="50px" height="50px" viewBox="0 0 50 50" enable-background="new 0 0 50 50" xml:space="preserve">
<rect fill="none" width="50" height="50"/>
<path fill="none" stroke="#000000" stroke-width="2" stroke-linecap="round" stroke-linejoin="round" stroke-miterlimit="10" d="
	M49,44.646c-0.494,0.174-1.091,0.296-1.846,0.296c-1.538,0-3.902-0.42-5.539-1.71c-1.637,1.29-4,1.71-5.538,1.71
	s-3.901-0.42-5.539-1.71c-1.637,1.29-4,1.71-5.538,1.71s-3.901-0.42-5.539-1.71c-1.637,1.29-4,1.71-5.538,1.71
	s-3.901-0.42-5.538-1.71c-1.637,1.29-4.001,1.71-5.539,1.71c-0.69,0-1.291-0.062-1.846-0.147"/>
<path fill="none" stroke="#000000" stroke-width="2" stroke-linecap="round" stroke-linejoin="round" stroke-miterlimit="10" d="
	M49,48.646c-0.494,0.174-1.091,0.296-1.846,0.296c-1.538,0-3.902-0.42-5.539-1.71c-1.637,1.29-4,1.71-5.538,1.71
	s-3.901-0.42-5.539-1.71c-1.637,1.29-4,1.71-5.538,1.71s-3.901-0.42-5.539-1.71c-1.637,1.29-4,1.71-5.538,1.71
	s-3.901-0.42-5.538-1.71c-1.637,1.29-4.001,1.71-5.539,1.71c-0.69,0-1.291-0.062-1.846-0.147"/>
<path d="M44,31.05c0,0.919-0.919,0.95-0.919,0.95h-2.015c0,0-1.066-0.06-1.066-0.979c0-0.535,0-1.306,0-1.306
	s0.034-0.386,0.653-0.386c0.62,0,0.68,0.386,0.68,0.386v0.8c0,0,0.062,0.387,0.653,0.387s0.681-0.387,0.681-0.387v-0.8
	c0,0,0.062-0.386,0.682-0.386c0.621,0,0.651,0.386,0.651,0.386S44,30.546,44,31.05z"/>
<polyline fill="none" stroke="#000000" stroke-width="2" stroke-linecap="round" stroke-linejoin="round" stroke-miterlimit="10" points="
	38.766,25.883 30,16 22,16 20,22 15,22 10,16 6,16 8,21 4.607,26.062 "/>
<line fill="none" stroke="#000000" stroke-width="2" stroke-linecap="round" stroke-linejoin="round" stroke-miterlimit="10" x1="6.25" y1="27" x2="36.375" y2="27"/>
<path fill="none" stroke="#000000" stroke-width="2.0021" stroke-linecap="round" stroke-linejoin="round" stroke-miterlimit="10" d="
	M32.643,44.33c6.889-1.316,14.33-7.135,16.286-15.897c0.12-0.547,0.117-1.151-0.233-1.587C48.344,26.408,47.562,26,47,26h-9l-4,6H7
	l-2-6H3c-1.021,0-2,0.98-2,2v5.539c0,5.097,3.156,8.546,6.133,10.113"/>
<line fill="none" stroke="#000000" stroke-width="2" stroke-linecap="round" stroke-linejoin="round" stroke-miterlimit="10" x1="7.833" y1="22" x2="35.042" y2="22"/>
</svg>
