<?xml version="1.0" encoding="utf-8"?>
<!-- Generator: Adobe Illustrator 16.0.0, SVG Export Plug-In . SVG Version: 6.00 Build 0)  -->
<!DOCTYPE svg PUBLIC "-//W3C//DTD SVG 1.1//EN" "http://www.w3.org/Graphics/SVG/1.1/DTD/svg11.dtd">
<svg version="1.1" id="Layer_1" xmlns="http://www.w3.org/2000/svg" xmlns:xlink="http://www.w3.org/1999/xlink" x="0px" y="0px"
	 width="50px" height="50px" viewBox="0 0 50 50" enable-background="new 0 0 50 50" xml:space="preserve">
<rect fill="none" width="50" height="50"/>
<path fill="none" stroke="#000000" stroke-width="2" stroke-linecap="round" stroke-linejoin="round" stroke-miterlimit="10" d="
	M25,33c5,0,11,1,11,1s-1-11-11-11S14,34,14,34S20,33,25,33z"/>
<g>
	<path fill="none" stroke="#000000" stroke-width="2" stroke-linecap="round" stroke-linejoin="round" stroke-miterlimit="10" d="
		M47.28,30.728C47.75,28.896,48,26.978,48,25C48,12.297,37.703,2,25,2l0,0C12.297,2,2,12.297,2,25c0,12.703,10.297,23,23,23
		c7.43,0,14.037-3.523,18.242-8.989"/>
</g>
<path fill="none" stroke="#000000" stroke-width="2" stroke-linecap="round" stroke-linejoin="round" stroke-miterlimit="10" d="
	M29,16c0,0,2.124-2,5-2c2.875,0,4.999,2,4.999,2"/>
<path fill="none" stroke="#000000" stroke-width="2" stroke-linecap="round" stroke-linejoin="round" stroke-miterlimit="10" d="
	M21,16c0,0-2.124-2-5-2s-5,2-5,2"/>
<path fill="none" stroke="#000000" stroke-width="2" stroke-linecap="round" stroke-linejoin="round" stroke-miterlimit="10" d="
	M48,36c0,1.656-1.344,3-3,3s-3-1.344-3-3c0-5.498-1-11-1-11S48,28.012,48,36z"/>
<path fill="none" stroke="#000000" stroke-width="2" stroke-linecap="round" stroke-linejoin="round" stroke-miterlimit="10" d="
	M12,27c0,1.656-1.343,3-3,3s-3-1.344-3-3c0-5.557,8-8,8-8S12,22.925,12,27z"/>
</svg>
