<?xml version="1.0" encoding="utf-8"?>
<!-- Generator: Adobe Illustrator 16.0.0, SVG Export Plug-In . SVG Version: 6.00 Build 0)  -->
<!DOCTYPE svg PUBLIC "-//W3C//DTD SVG 1.1//EN" "http://www.w3.org/Graphics/SVG/1.1/DTD/svg11.dtd">
<svg version="1.1" id="Layer_1" xmlns="http://www.w3.org/2000/svg" xmlns:xlink="http://www.w3.org/1999/xlink" x="0px" y="0px"
	 width="50px" height="50px" viewBox="0 0 50 50" enable-background="new 0 0 50 50" xml:space="preserve">
<polyline fill="none" stroke="#000000" stroke-width="2" stroke-linecap="round" stroke-linejoin="round" stroke-miterlimit="10" points="
	3,8.5 25.918,15.834 47,8.5 "/>
<rect fill="none" width="50" height="50"/>
<rect fill="none" width="50" height="50"/>
<polygon fill="none" stroke="#000000" stroke-width="2" stroke-linecap="round" stroke-linejoin="round" stroke-miterlimit="10" points="
	3,36 25.918,47 47,36 47,8.5 25,3 3,8.5 "/>
<path d="M27.818,9.434c-0.598,0.237-1.389,0.368-2.232,0.368c-0.807,0-1.57-0.121-2.154-0.343c-0.931-0.355-1.07-0.855-1.07-1.12
	c0-0.268,0.142-0.772,1.089-1.137c1.162-0.447,3.147-0.459,4.319-0.026c0.963,0.357,1.112,0.862,1.115,1.132
	C28.887,8.573,28.752,9.071,27.818,9.434z"/>
<path d="M34.756,27.335c-0.314,0.149-0.623,0.228-0.924,0.228c-0.992,0-1.662-0.812-1.662-2.019c0-1.5,1-3.127,2.273-3.7
	c0.295-0.134,0.588-0.202,0.871-0.202c0.998,0,1.666,0.811,1.666,2.016C36.98,25.126,36.003,26.742,34.756,27.335z M40.677,31.518
	c-0.312,0.16-0.618,0.242-0.917,0.242c-0.002,0-0.002,0-0.002,0c-0.925-0.002-1.547-0.777-1.547-1.937
	c0-1.452,0.937-3.048,2.135-3.634c0.294-0.145,0.582-0.215,0.863-0.215c0.931,0,1.557,0.778,1.557,1.936
	C42.766,29.33,41.848,30.917,40.677,31.518z"/>
<path d="M10.854,32.51c-0.275,0.359-0.675,0.557-1.125,0.557c-0.297,0-0.601-0.081-0.908-0.24c-1.148-0.6-2.048-2.176-2.048-3.59
	c0-1.153,0.616-1.928,1.532-1.928c0.274,0,0.564,0.073,0.854,0.217c1.175,0.586,2.097,2.175,2.097,3.618
	C11.255,31.694,11.115,32.168,10.854,32.51z M15.738,29.049c-0.293,0.365-0.714,0.57-1.187,0.57c-0.297,0-0.604-0.077-0.915-0.229
	c-1.209-0.599-2.159-2.201-2.159-3.649c0-1.192,0.649-1.993,1.617-1.993c0.278,0,0.571,0.07,0.866,0.208
	c1.236,0.577,2.207,2.19,2.207,3.672C16.168,28.201,16.019,28.691,15.738,29.049z M20.894,25.39
	c-0.311,0.378-0.759,0.587-1.256,0.587c-0.296,0-0.606-0.071-0.919-0.214c-1.277-0.593-2.278-2.221-2.278-3.708
	c0-1.212,0.708-2.06,1.718-2.06c0.281,0,0.571,0.063,0.863,0.191c1.309,0.569,2.333,2.205,2.333,3.728
	C21.354,24.509,21.195,25.02,20.894,25.39z"/>
<line fill="none" stroke="#000000" stroke-width="2" stroke-linecap="round" stroke-linejoin="round" stroke-miterlimit="10" x1="26" y1="15.834" x2="26" y2="47"/>
</svg>
