<?xml version="1.0" encoding="utf-8"?>
<!-- Generator: Adobe Illustrator 16.0.0, SVG Export Plug-In . SVG Version: 6.00 Build 0)  -->
<!DOCTYPE svg PUBLIC "-//W3C//DTD SVG 1.1//EN" "http://www.w3.org/Graphics/SVG/1.1/DTD/svg11.dtd">
<svg version="1.1" id="Layer_1" xmlns="http://www.w3.org/2000/svg" xmlns:xlink="http://www.w3.org/1999/xlink" x="0px" y="0px"
	 width="50px" height="50px" viewBox="0 0 50 50" enable-background="new 0 0 50 50" xml:space="preserve">
<rect fill="none" width="50" height="50"/>
<rect fill="none" width="50" height="50"/>
<path fill="none" stroke="#000000" stroke-width="2.021" stroke-linecap="round" stroke-linejoin="round" stroke-miterlimit="10" d="
	M14.155,45h8.471l23.785-24.026c0.784-0.793,0.786-2.079,0-2.873L34.031,5.595c-0.785-0.793-2.059-0.793-2.844,0l-26.6,26.87
	c-0.784,0.792-0.784,2.078,0.001,2.872L14.155,45z"/>
<line fill="none" stroke="#000000" stroke-width="2.021" stroke-linecap="round" stroke-linejoin="round" stroke-miterlimit="10" x1="18.842" y1="19.842" x2="33.239" y2="33.239"/>
<g>
	<circle cx="33" cy="8" r="1"/>
	<circle cx="33" cy="14" r="1"/>
	<circle cx="39" cy="14" r="1"/>
	<circle cx="27" cy="14" r="1"/>
	<circle cx="24" cy="17" r="1"/>
	<circle cx="24" cy="23" r="1"/>
	<circle cx="27" cy="26" r="1"/>
	<circle cx="21" cy="20" r="1"/>
	<circle cx="39" cy="26" r="1"/>
	<circle cx="42" cy="23" r="1"/>
	<circle cx="45" cy="20" r="1"/>
	<circle cx="27" cy="20" r="1"/>
	<circle cx="30" cy="11" r="1"/>
	<circle cx="36" cy="11" r="1"/>
	<circle cx="33" cy="20" r="1"/>
	<circle cx="30" cy="17" r="1"/>
	<circle cx="36" cy="17" r="1"/>
	<circle cx="39" cy="20" r="1"/>
	<circle cx="42" cy="17" r="1"/>
	<circle cx="33" cy="26" r="1"/>
	<circle cx="30" cy="23" r="1"/>
	<circle cx="36" cy="23" r="1"/>
	<circle cx="33" cy="32" r="1"/>
	<circle cx="30" cy="29" r="1"/>
	<circle cx="36" cy="29" r="1"/>
</g>
<line fill="none" stroke="#000000" stroke-width="2.021" stroke-linecap="round" stroke-linejoin="round" stroke-miterlimit="10" x1="17.331" y1="45" x2="41" y2="45"/>
</svg>
