<?xml version="1.0" encoding="utf-8"?>
<!-- Generator: Adobe Illustrator 16.0.0, SVG Export Plug-In . SVG Version: 6.00 Build 0)  -->
<!DOCTYPE svg PUBLIC "-//W3C//DTD SVG 1.1//EN" "http://www.w3.org/Graphics/SVG/1.1/DTD/svg11.dtd">
<svg version="1.1" id="Layer_1" xmlns="http://www.w3.org/2000/svg" xmlns:xlink="http://www.w3.org/1999/xlink" x="0px" y="0px"
	 width="50px" height="50px" viewBox="0 0 50 50" enable-background="new 0 0 50 50" xml:space="preserve">
<rect fill="none" width="50" height="50"/>
<g>
	<path fill="none" stroke="#000000" stroke-width="2" stroke-miterlimit="10" d="M19,35.391v1.305C19,37.416,18.328,38,17.495,38
		h-2.001C14.672,38,14,37.416,14,36.695v-3.258"/>
	<path fill="none" stroke="#000000" stroke-width="2" stroke-miterlimit="10" d="M33,35.391v1.305C33,37.416,33.672,38,34.505,38
		h2.001C37.328,38,38,37.416,38,36.695v-3.258"/>
	<path d="M19.483,29c-0.449,0-2.103,0-2.478,0C16.447,29,16,29.449,16,30c0,0.654,0.465,0.965,1.043,1.293
		C17.905,31.784,18.646,32,19.483,32c0.83,0,1.501-0.67,1.501-1.497C20.984,29.674,20.313,29,19.483,29z"/>
	<path d="M32.501,29c0.449,0,2.103,0,2.478,0c0.559,0,1.006,0.449,1.006,1c0,0.654-0.465,0.965-1.043,1.293
		C34.079,31.784,33.338,32,32.501,32C31.671,32,31,31.33,31,30.503C31,29.674,31.671,29,32.501,29z"/>
	<path fill="none" stroke="#000000" stroke-width="2.0826" stroke-miterlimit="10" d="M15.302,35C14.584,35,14,34.438,14,33.751
		v-5.373c0,0,3.355-8.823,3.812-9.699C18.37,17.615,21.213,16,26,16s7.651,1.539,8.143,2.63C34.695,19.883,38,28.378,38,28.378
		v5.373C38,34.438,37.416,35,36.697,35H15.302z"/>
	<path fill="none" stroke="#000000" stroke-width="2" stroke-miterlimit="10" d="M16.236,22.738C15.956,23.441,14.706,26,18.737,26
		c1.308,0,13.19,0,14.499,0c4.031,0,2.781-2.559,2.501-3.262"/>
	<path fill="none" stroke="#000000" stroke-width="2" stroke-miterlimit="10" d="M35.781,24h2.197C39.66,24,40,25.15,40,25.943
		S39.488,27,38.637,27h-1.803"/>
	<path fill="none" stroke="#000000" stroke-width="2" stroke-miterlimit="10" d="M16,24h-2.197c-1.682,0-2.021,1.15-2.021,1.943
		S12.293,27,13.145,27h1.803"/>
</g>
<path fill="none" stroke="#000000" stroke-width="2" stroke-linecap="round" stroke-linejoin="round" stroke-miterlimit="10" d="
	M49,44.646c-0.494,0.174-1.091,0.296-1.846,0.296c-1.538,0-3.902-0.42-5.539-1.71c-1.637,1.29-4,1.71-5.538,1.71
	s-3.901-0.42-5.539-1.71c-1.637,1.29-4,1.71-5.538,1.71s-3.901-0.42-5.539-1.71c-1.637,1.29-4,1.71-5.538,1.71
	s-3.901-0.42-5.538-1.71c-1.637,1.29-4.001,1.71-5.539,1.71c-0.69,0-1.291-0.062-1.846-0.147"/>
<path fill="none" stroke="#000000" stroke-width="2" stroke-linecap="round" stroke-linejoin="round" stroke-miterlimit="10" d="
	M49,48.646c-0.494,0.174-1.091,0.296-1.846,0.296c-1.538,0-3.902-0.42-5.539-1.71c-1.637,1.29-4,1.71-5.538,1.71
	s-3.901-0.42-5.539-1.71c-1.637,1.29-4,1.71-5.538,1.71s-3.901-0.42-5.539-1.71c-1.637,1.29-4,1.71-5.538,1.71
	s-3.901-0.42-5.538-1.71c-1.637,1.29-4.001,1.71-5.539,1.71c-0.69,0-1.291-0.062-1.846-0.147"/>
<path fill="none" stroke="#000000" stroke-width="2" stroke-linecap="round" stroke-linejoin="round" stroke-miterlimit="10" d="
	M6.927,43.455C3.259,42.371,1,39.7,1,35.77C1,31.769,1,1.001,1,1.001h10V10l-5.999,9H5c0,0,0,14,0,16s1.999,5,4,5
	c1.998,0,29.999,0,32,0s4-2,4-4s0-4,0-4h4c0,0,0,0.25,0,4c0,3.384-1.431,6.768-5.504,7.73"/>
<line fill="none" stroke="#000000" stroke-width="2" stroke-linecap="round" stroke-linejoin="round" stroke-miterlimit="10" x1="2" y1="10" x2="11" y2="10"/>
</svg>
