<?xml version="1.0" encoding="utf-8"?>
<!-- Generator: Adobe Illustrator 16.0.0, SVG Export Plug-In . SVG Version: 6.00 Build 0)  -->
<!DOCTYPE svg PUBLIC "-//W3C//DTD SVG 1.1//EN" "http://www.w3.org/Graphics/SVG/1.1/DTD/svg11.dtd">
<svg version="1.1" id="Layer_1" xmlns="http://www.w3.org/2000/svg" xmlns:xlink="http://www.w3.org/1999/xlink" x="0px" y="0px"
	 width="50px" height="50px" viewBox="0 0 50 50" enable-background="new 0 0 50 50" xml:space="preserve">
<rect fill="none" width="50" height="50"/>
<g>
	<path fill="none" stroke="#000000" stroke-width="2" stroke-linecap="round" stroke-linejoin="round" stroke-miterlimit="10" d="
		M23.164,16.903L2.358,39.807c-0.613,0.697-0.418,1.939,0.427,2.794l4.616,4.611c0.845,0.847,2.094,1.046,2.791,0.429l22.903-20.805
		"/>
</g>
<path fill="none" stroke="#000000" stroke-width="2" stroke-linecap="round" stroke-linejoin="round" stroke-miterlimit="10" d="
	M30.441,2.254l-6.853,12.149c-0.874,1.153-0.528,3.081,0.738,4.359l6.916,6.916c1.268,1.269,3.208,1.619,4.36,0.737l12.144-6.852
	C50.328,17.648,32.345-0.333,30.441,2.254z"/>
<path fill="none" stroke="#000000" stroke-width="2" stroke-linecap="round" stroke-linejoin="round" stroke-miterlimit="10" d="
	M21.475,31.354c0.781-0.781,0.781-2.047,0-2.828s-2.047-0.781-2.828,0c-0.425,0.426-1.697,1.697-2.121,2.121
	c-0.781,0.781-0.781,2.048,0,2.829c0.78,0.78,2.047,0.78,2.828-0.001C19.777,33.051,21.05,31.779,21.475,31.354z"/>
</svg>
