<?xml version="1.0" encoding="utf-8"?>
<!-- Generator: Adobe Illustrator 16.0.0, SVG Export Plug-In . SVG Version: 6.00 Build 0)  -->
<!DOCTYPE svg PUBLIC "-//W3C//DTD SVG 1.1//EN" "http://www.w3.org/Graphics/SVG/1.1/DTD/svg11.dtd">
<svg version="1.1" id="Layer_1" xmlns="http://www.w3.org/2000/svg" xmlns:xlink="http://www.w3.org/1999/xlink" x="0px" y="0px"
	 width="50px" height="50px" viewBox="0 0 50 50" enable-background="new 0 0 50 50" xml:space="preserve">
<rect fill="none" width="50" height="50"/>
<polygon fill="none" stroke="#000000" stroke-width="2" stroke-linecap="round" stroke-linejoin="round" stroke-miterlimit="10" points="
	23,6 23,43 5,43 "/>
<polygon fill="none" stroke="#000000" stroke-width="2" stroke-linecap="round" stroke-linejoin="round" stroke-miterlimit="10" points="
	27,6 27,43 45,43 "/>
<g>
	<circle cx="28" cy="18" r="1"/>
	<circle cx="28" cy="24" r="1"/>
	<circle cx="34" cy="24" r="1"/>
	<circle cx="34" cy="36" r="1"/>
	<circle cx="37" cy="33" r="1"/>
	<circle cx="37" cy="39" r="1"/>
	<circle cx="34" cy="42" r="1"/>
	<circle cx="40" cy="42" r="1"/>
	<circle cx="40" cy="36" r="1"/>
	<circle cx="31" cy="15" r="1"/>
	<circle cx="28" cy="11" r="1"/>
	<circle cx="31" cy="21" r="1"/>
	<circle cx="28" cy="30" r="1"/>
	<circle cx="31" cy="27" r="1"/>
	<circle cx="34" cy="30" r="1"/>
	<circle cx="37" cy="27" r="1"/>
	<circle cx="28" cy="36" r="1"/>
	<circle cx="31" cy="33" r="1"/>
	<circle cx="28" cy="42" r="1"/>
	<circle cx="31" cy="39" r="1"/>
</g>
</svg>
