<?xml version="1.0" encoding="utf-8"?>
<!-- Generator: Adobe Illustrator 16.0.0, SVG Export Plug-In . SVG Version: 6.00 Build 0)  -->
<!DOCTYPE svg PUBLIC "-//W3C//DTD SVG 1.1//EN" "http://www.w3.org/Graphics/SVG/1.1/DTD/svg11.dtd">
<svg version="1.1" id="Layer_1" xmlns="http://www.w3.org/2000/svg" xmlns:xlink="http://www.w3.org/1999/xlink" x="0px" y="0px"
	 width="50px" height="50px" viewBox="0 0 50 50" enable-background="new 0 0 50 50" xml:space="preserve">
<rect fill="none" width="50" height="50"/>
<path fill="none" stroke="#000000" stroke-width="2" stroke-linecap="round" stroke-miterlimit="10" d="M28,28c0,0.004,0,2.996,0,3
	c0,6,2.184,10,8.583,10C44.564,41,47,35.979,47,31.75c0-2.854,2-2.244,2-3.007S45.356,27,36.396,27C33.49,27,30.443,27.704,28,28
	c0,0-1.216-1-3-1s-3,1-3,1c-2.449-0.296-5.475-1-8.396-1C4.644,27,1,27.98,1,28.743s2,0.153,2,3.007C3,35.979,5.436,41,13.417,41
	C19.816,41,22,37,22,31c0-0.004,0-3,0-3"/>
<path fill="none" stroke="#000000" stroke-width="2" stroke-linecap="round" stroke-miterlimit="10" d="M37,13
	c0,0,0.405-0.642,1.031-1.609C38.719,10.328,39.094,10,39.5,10s0.781,0.203,1.609,1.531C41.918,12.828,49,28.507,49,28.507"/>
<path fill="none" stroke="#000000" stroke-width="2" stroke-linecap="round" stroke-miterlimit="10" d="M13,13
	c0,0-0.405-0.642-1.031-1.609C11.281,10.328,10.906,10,10.5,10s-0.781,0.203-1.609,1.531C8.082,12.828,1,28.507,1,28.507"/>
</svg>
