<?xml version="1.0" encoding="utf-8"?>
<!-- Generator: Adobe Illustrator 16.0.0, SVG Export Plug-In . SVG Version: 6.00 Build 0)  -->
<!DOCTYPE svg PUBLIC "-//W3C//DTD SVG 1.1//EN" "http://www.w3.org/Graphics/SVG/1.1/DTD/svg11.dtd">
<svg version="1.1" id="Layer_1" xmlns="http://www.w3.org/2000/svg" xmlns:xlink="http://www.w3.org/1999/xlink" x="0px" y="0px"
	 width="50px" height="50px" viewBox="0 0 50 50" enable-background="new 0 0 50 50" xml:space="preserve">
<rect fill="none" width="50" height="50"/>
<rect fill="none" width="50" height="50"/>
<path fill="none" stroke="#000000" stroke-width="2" stroke-linecap="round" stroke-miterlimit="10" d="M36,32c4.971,0,9-4.029,9-9
	s-4.029-9-9-9c-1.49,0-2.891,0.368-4.129,1.008C31.154,10.472,27.238,7,22.5,7c-5.247,0-9.5,4.253-9.5,9.5
	c0,0.547,0.057,1.08,0.146,1.602C12.772,18.04,12.391,18,12,18c-3.866,0-7,3.134-7,7s3.134,7,7,7C12.529,32,35.524,32,36,32z"/>
<polygon fill="none" stroke="#000000" stroke-width="2" stroke-linecap="round" stroke-miterlimit="10" points="36,40 32,43 32,48 
	36,45 "/>
<polygon fill="none" stroke="#000000" stroke-width="2" stroke-linecap="round" stroke-miterlimit="10" points="26,35 22,38 22,43 
	26,40 "/>
<polygon fill="none" stroke="#000000" stroke-width="2" stroke-linecap="round" stroke-miterlimit="10" points="13,40 9,43 9,48 
	13,45 "/>
</svg>
