<?xml version="1.0" encoding="utf-8"?>
<!-- Generator: Adobe Illustrator 16.0.0, SVG Export Plug-In . SVG Version: 6.00 Build 0)  -->
<!DOCTYPE svg PUBLIC "-//W3C//DTD SVG 1.1//EN" "http://www.w3.org/Graphics/SVG/1.1/DTD/svg11.dtd">
<svg version="1.1" id="Layer_1" xmlns="http://www.w3.org/2000/svg" xmlns:xlink="http://www.w3.org/1999/xlink" x="0px" y="0px"
	 width="50px" height="50px" viewBox="0 0 50 50" enable-background="new 0 0 50 50" xml:space="preserve">
<rect fill="none" width="50" height="50"/>
<path fill="none" stroke="#000000" stroke-width="2" stroke-linecap="round" stroke-linejoin="round" stroke-miterlimit="10" d="
	M38,10c-2.79,0-3,2.598-3,4v9c0,0.468,0-14,0-14c0-2.754-1.002-4-3-4c-2.277,0-3,1.598-3,3v14c0,0.468,0-16,0-16
	c0-1.402-1.052-3-3-3s-3,1.598-3,3v16c0,0.468,0-13,0-13c0-2-1.599-3-3-3s-3,1-3,2.923V30l-3.505-4.613
	c-1.015-1.566-3.034-2.091-4.487-1.193c-1.448,0.918-1.826,2.916-0.823,4.479c0,0,4.519,8.797,7.064,12.245
	C17.833,44.417,20.5,47,28.246,47C40.062,47,41,36.723,41,34c0-2.722,0-20,0-20C41,12.598,40.79,10,38,10z"/>
</svg>
