<?xml version="1.0" encoding="utf-8"?>
<!-- Generator: Adobe Illustrator 16.0.0, SVG Export Plug-In . SVG Version: 6.00 Build 0)  -->
<!DOCTYPE svg PUBLIC "-//W3C//DTD SVG 1.1//EN" "http://www.w3.org/Graphics/SVG/1.1/DTD/svg11.dtd">
<svg version="1.1" id="Layer_1" xmlns="http://www.w3.org/2000/svg" xmlns:xlink="http://www.w3.org/1999/xlink" x="0px" y="0px"
	 width="50px" height="50px" viewBox="0 0 50 50" enable-background="new 0 0 50 50" xml:space="preserve">
<rect fill="none" width="50" height="50"/>
<path fill="none" stroke="#000000" stroke-width="2" stroke-miterlimit="10" d="M44,20c0-1.104-0.896-2-2-2s-2,0.896-2,2
	c0,0.476,0,14.524,0,15c0,1.104,0.896,2,2,2s2-0.896,2-2C44,34.524,44,20.476,44,20z"/>
<path fill="none" stroke="#000000" stroke-width="2" stroke-miterlimit="10" d="M8,19C8,9.611,15.611,2,25,2s17,7.611,17,17"/>
<path fill="none" stroke="#000000" stroke-width="2" stroke-miterlimit="10" d="M44,20c2.762,0,5,3.357,5,7.5
	c0,4.141-2.238,7.5-5,7.5"/>
<path fill="none" stroke="#000000" stroke-width="2" stroke-miterlimit="10" d="M6,20c0-1.104,0.896-2,2-2s2,0.896,2,2
	c0,0.476,0,14.524,0,15c0,1.104-0.896,2-2,2s-2-0.896-2-2C6,34.524,6,20.476,6,20z"/>
<path fill="none" stroke="#000000" stroke-width="2" stroke-miterlimit="10" d="M6,20c-2.761,0-5,3.357-5,7.5
	C1,31.641,3.239,35,6,35"/>
</svg>
