<?xml version="1.0" encoding="utf-8"?>
<!-- Generator: Adobe Illustrator 16.0.0, SVG Export Plug-In . SVG Version: 6.00 Build 0)  -->
<!DOCTYPE svg PUBLIC "-//W3C//DTD SVG 1.1//EN" "http://www.w3.org/Graphics/SVG/1.1/DTD/svg11.dtd">
<svg version="1.1" id="Layer_1" xmlns="http://www.w3.org/2000/svg" xmlns:xlink="http://www.w3.org/1999/xlink" x="0px" y="0px"
	 width="50px" height="50px" viewBox="0 0 50 50" enable-background="new 0 0 50 50" xml:space="preserve">
<rect fill="none" width="50" height="50"/>
<rect fill="none" width="50" height="50"/>
<path fill="none" stroke="#000000" stroke-width="2" stroke-linecap="round" stroke-linejoin="round" stroke-miterlimit="10" d="
	M19.23,37.924c0,0,12.562,0,21.154,0c7.66,0,7.692-1.924,7.692-1.924"/>
<g>
	<path d="M48.178,13L29,12.117L9.822,13C8.816,13,8,12.328,8,11.5C8,10.672,8.816,10,9.822,10L29,10.883L48.178,10
		C49.184,10,50,10.672,50,11.5C50,12.328,49.184,13,48.178,13z"/>
</g>
<line fill="none" stroke="#000000" stroke-width="2" stroke-linecap="round" stroke-linejoin="round" stroke-miterlimit="10" x1="29" y1="10" x2="29" y2="14.881"/>
<path fill="none" stroke="#000000" stroke-width="2" stroke-linecap="round" stroke-linejoin="round" stroke-miterlimit="10" d="
	M31,15c-3.712,0-5.741,1.712-7.385,4H4.792c-0.961,0-1.175,1.623-0.105,1.803C4.949,20.847,14.49,23.41,21,25c0,1,0,2.08,0,3
	c0,6.779,5.7,6,13,6s15,0,15-7C49,20.226,40,15,31,15z M48.884,26c-1.333,1.493-3.737,2-11.884,2c-2.588,0-4-1.701-4-3.75
	c0-7.25,1.58-7.994,5.549-7.994"/>
<path fill="none" stroke="#000000" stroke-width="2" stroke-linecap="round" stroke-linejoin="round" stroke-miterlimit="10" d="
	M8.396,22.115C7.689,23.247,6.433,24,5,24c-2.209,0-4-1.791-4-4s1.791-4,4-4c1.64,0,3.049,0.986,3.667,2.399"/>
</svg>
