<?xml version="1.0" encoding="utf-8"?>
<!-- Generator: Adobe Illustrator 16.0.0, SVG Export Plug-In . SVG Version: 6.00 Build 0)  -->
<!DOCTYPE svg PUBLIC "-//W3C//DTD SVG 1.1//EN" "http://www.w3.org/Graphics/SVG/1.1/DTD/svg11.dtd">
<svg version="1.1" id="Layer_1" xmlns="http://www.w3.org/2000/svg" xmlns:xlink="http://www.w3.org/1999/xlink" x="0px" y="0px"
	 width="50px" height="50px" viewBox="0 0 50 50" enable-background="new 0 0 50 50" xml:space="preserve">
<rect fill="none" width="50" height="50"/>
<path fill="none" stroke="#000000" stroke-width="2" stroke-linecap="round" stroke-linejoin="round" stroke-miterlimit="10" d="
	M29.266,3.413C37.93,5.115,44.77,11.904,46.547,20.54"/>
<path fill="none" stroke="#000000" stroke-width="2" stroke-linecap="round" stroke-linejoin="round" stroke-miterlimit="10" d="
	M3.355,21.038c1.637-8.997,8.746-16.087,17.752-17.695"/>
<path fill="none" stroke="#000000" stroke-width="2" stroke-linecap="round" stroke-linejoin="round" stroke-miterlimit="10" d="
	M21.07,46.65C12.143,45.041,5.088,38.045,3.39,29.148"/>
<path fill="none" stroke="#000000" stroke-width="2" stroke-linecap="round" stroke-linejoin="round" stroke-miterlimit="10" d="
	M46.658,28.887c-1.606,9.011-8.698,16.123-17.699,17.759"/>
<path fill="none" stroke="#000000" stroke-width="2" stroke-linecap="round" stroke-linejoin="round" stroke-miterlimit="10" d="
	M28.962,13.669c3.36,1.175,6.038,3.801,7.282,7.128"/>
<path fill="none" stroke="#000000" stroke-width="2" stroke-linecap="round" stroke-linejoin="round" stroke-miterlimit="10" d="
	M13.768,20.771c1.246-3.31,3.912-5.922,7.257-7.096"/>
<path fill="none" stroke="#000000" stroke-width="2" stroke-linecap="round" stroke-linejoin="round" stroke-miterlimit="10" d="
	M21.082,36.346c-3.496-1.207-6.26-3.984-7.448-7.488"/>
<path fill="none" stroke="#000000" stroke-width="2" stroke-linecap="round" stroke-linejoin="round" stroke-miterlimit="10" d="
	M36.207,29.297c-1.26,3.282-3.918,5.87-7.246,7.034"/>
<path fill="none" stroke="#000000" stroke-width="2" stroke-linecap="round" stroke-linejoin="round" stroke-miterlimit="10" d="
	M29,14c0,0.552-0.447,1-1,1c0,0-1-0.413-3-0.413S22,15,22,15c-0.553,0-1-0.448-1-1V3c0-0.552,2-1,4-1s4,0.448,4,1V14z"/>
<path fill="none" stroke="#000000" stroke-width="2" stroke-linecap="round" stroke-linejoin="round" stroke-miterlimit="10" d="
	M21,36c0-0.553,0.447-1,1-1c0,0,1,0.413,3,0.413S28,35,28,35c0.553,0,1,0.447,1,1v11c0,0.553-2,1-4,1s-4-0.447-4-1V36z"/>
<path fill="none" stroke="#000000" stroke-width="2" stroke-linecap="round" stroke-linejoin="round" stroke-miterlimit="10" d="
	M36,29c-0.553,0-1-0.447-1-1c0,0,0.413-1,0.413-3S35,22,35,22c0-0.553,0.447-1,1-1h11c0.553,0,1,2,1,4s-0.447,4-1,4H36z"/>
<path fill="none" stroke="#000000" stroke-width="2" stroke-linecap="round" stroke-linejoin="round" stroke-miterlimit="10" d="
	M14,21c0.553,0,1,0.447,1,1c0,0-0.413,1-0.413,3S15,28,15,28c0,0.553-0.447,1-1,1H3c-0.553,0-1-2-1-4s0.447-4,1-4H14z"/>
<path fill="none" stroke="#000000" stroke-width="2" stroke-linecap="round" stroke-linejoin="round" stroke-miterlimit="10" d="
	M32,4c0,0,6.815-3.185,12,2s2,12,2,12"/>
<path fill="none" stroke="#000000" stroke-width="2" stroke-linecap="round" stroke-linejoin="round" stroke-miterlimit="10" d="
	M46,32c0,0,3.185,6.815-2,12s-12,2-12,2"/>
<path fill="none" stroke="#000000" stroke-width="2" stroke-linecap="round" stroke-linejoin="round" stroke-miterlimit="10" d="
	M18,46c0,0-6.815,3.185-12-2S4,32,4,32"/>
<path fill="none" stroke="#000000" stroke-width="2" stroke-linecap="round" stroke-linejoin="round" stroke-miterlimit="10" d="
	M4,18c0,0-3.185-6.815,2-12s12-2,12-2"/>
</svg>
