<?xml version="1.0" encoding="utf-8"?>
<!-- Generator: Adobe Illustrator 16.0.0, SVG Export Plug-In . SVG Version: 6.00 Build 0)  -->
<!DOCTYPE svg PUBLIC "-//W3C//DTD SVG 1.1//EN" "http://www.w3.org/Graphics/SVG/1.1/DTD/svg11.dtd">
<svg version="1.1" id="Layer_1" xmlns="http://www.w3.org/2000/svg" xmlns:xlink="http://www.w3.org/1999/xlink" x="0px" y="0px"
	 width="50px" height="50px" viewBox="0 0 50 50" enable-background="new 0 0 50 50" xml:space="preserve">
<rect fill="none" width="50" height="50"/>
<path fill="none" stroke="#000000" stroke-width="2" stroke-linecap="round" stroke-linejoin="round" stroke-miterlimit="10" d="
	M12,31c0,0,5,7,13,7s13-7,13-7"/>
<rect fill="none" width="50" height="50"/>
<g>
	<path fill="none" stroke="#000000" stroke-width="2" stroke-linecap="round" stroke-linejoin="round" stroke-miterlimit="10" d="
		M25,2C12.297,2,2,12.297,2,25c0,12.703,10.297,23,23,23c12.703,0,23-10.297,23-23C48,12.297,37.703,2,25,2L25,2z"/>
</g>
<path fill="none" stroke="#000000" stroke-width="2" stroke-linecap="round" stroke-linejoin="round" stroke-miterlimit="10" d="
	M35.727,17c-1.138,0-2.141,1.159-2.727,2c-0.586-0.841-1.589-2-2.727-2C28.465,17,27,18.396,27,20.117c0,3.636,4.363,5.583,6,6.883
	c1.637-1.299,6-3.247,6-6.883C39,18.396,37.535,17,35.727,17z"/>
<path fill="none" stroke="#000000" stroke-width="2" stroke-linecap="round" stroke-linejoin="round" stroke-miterlimit="10" d="
	M14.273,17c1.138,0,2.141,1.159,2.727,2c0.586-0.841,1.589-2,2.727-2C21.535,17,23,18.396,23,20.117c0,3.636-4.364,5.583-6,6.883
	c-1.637-1.299-6-3.247-6-6.883C11,18.396,12.465,17,14.273,17z"/>
</svg>
