<?xml version="1.0" encoding="utf-8"?>
<!-- Generator: Adobe Illustrator 16.0.0, SVG Export Plug-In . SVG Version: 6.00 Build 0)  -->
<!DOCTYPE svg PUBLIC "-//W3C//DTD SVG 1.1//EN" "http://www.w3.org/Graphics/SVG/1.1/DTD/svg11.dtd">
<svg version="1.1" id="Layer_1" xmlns="http://www.w3.org/2000/svg" xmlns:xlink="http://www.w3.org/1999/xlink" x="0px" y="0px"
	 width="50px" height="50px" viewBox="0 0 50 50" enable-background="new 0 0 50 50" xml:space="preserve">
<circle fill="none" stroke="#000000" stroke-width="2" stroke-linecap="round" stroke-miterlimit="10" cx="25" cy="25" r="24"/>
<rect fill="none" width="50" height="50"/>
<path d="M23.779,16.241c-0.216,0-0.357-0.144-0.357-0.359v-2.618c0-0.215,0.142-0.359,0.357-0.359h2.439
	c0.215,0,0.359,0.144,0.359,0.359v2.618c0,0.215-0.145,0.359-0.359,0.359H23.779z M23.852,37.293c-0.215,0-0.358-0.143-0.358-0.358
	V20.473c0-0.215,0.144-0.359,0.358-0.359h2.295c0.216,0,0.359,0.144,0.359,0.359v16.462c0,0.216-0.144,0.358-0.359,0.358H23.852z"/>
</svg>
