<?xml version="1.0" encoding="utf-8"?>
<!-- Generator: Adobe Illustrator 16.0.0, SVG Export Plug-In . SVG Version: 6.00 Build 0)  -->
<!DOCTYPE svg PUBLIC "-//W3C//DTD SVG 1.1//EN" "http://www.w3.org/Graphics/SVG/1.1/DTD/svg11.dtd">
<svg version="1.1" id="Layer_1" xmlns="http://www.w3.org/2000/svg" xmlns:xlink="http://www.w3.org/1999/xlink" x="0px" y="0px"
	 width="50px" height="50px" viewBox="0 0 50 50" enable-background="new 0 0 50 50" xml:space="preserve">
<rect fill="none" width="50" height="50"/>
<path fill="none" stroke="#000000" stroke-width="1.9879" stroke-linecap="round" stroke-linejoin="round" stroke-miterlimit="10" d="
	M42.943,38.728c-1.044-1.753-3.311-2.329-5.062-1.286C37.828,37.474,32.343,41,25,41c-7.3,0-12.749-3.481-12.892-3.564
	c-1.748-1.033-4.009-0.457-5.05,1.291c-1.043,1.753-0.468,4.02,1.285,5.062C8.632,43.961,15.53,48,25,48
	c9.47,0,16.369-4.039,16.657-4.211C43.41,42.746,43.985,40.48,42.943,38.728z"/>
<path fill="none" stroke="#000000" stroke-width="1.9879" stroke-linecap="round" stroke-linejoin="round" stroke-miterlimit="10" d="
	M23.028,40.806c-0.383-3.882,0.126-8.421,0.126-8.421c0,0,1.994-18.057,18.782-17.359"/>
<path fill="none" stroke="#000000" stroke-width="1.9879" stroke-linecap="round" stroke-linejoin="round" stroke-miterlimit="10" d="
	M42.264,17.062c-5.312,1.728-7.256,4.045-7.264,6.558c-0.016,4.74,6.729,9.559,5.922,13.242"/>
<path fill="none" stroke="#000000" stroke-width="1.9287" stroke-linecap="round" stroke-linejoin="round" stroke-miterlimit="10" d="
	M49,15.5c0,1.933-1.567,3.5-3.5,3.5c-1.383,0-2.58-0.803-3.148-1.969C42.127,16.569,42,16.049,42,15.5c0-1.933,1.567-3.5,3.5-3.5
	S49,13.567,49,15.5z"/>
<path fill="none" stroke="#000000" stroke-width="1.9287" stroke-linecap="round" stroke-linejoin="round" stroke-miterlimit="10" d="
	M8,9.5C8,11.433,6.433,13,4.5,13c-1.383,0-2.58-0.803-3.148-1.969C1.126,10.569,1,10.049,1,9.5C1,7.567,2.567,6,4.5,6S8,7.567,8,9.5
	z"/>
<g>
	
		<path fill="none" stroke="#000000" stroke-width="1.9879" stroke-linecap="round" stroke-linejoin="round" stroke-miterlimit="10" d="
		M7.632,11.325c10.285,7.433-1.513,18.364,1.103,25.636 M24.619,26.905c-1.107-6.49-4.938-15.758-16.496-17.212"/>
</g>
</svg>
