<?xml version="1.0" encoding="utf-8"?>
<!-- Generator: Adobe Illustrator 16.0.0, SVG Export Plug-In . SVG Version: 6.00 Build 0)  -->
<!DOCTYPE svg PUBLIC "-//W3C//DTD SVG 1.1//EN" "http://www.w3.org/Graphics/SVG/1.1/DTD/svg11.dtd">
<svg version="1.1" id="Layer_1" xmlns="http://www.w3.org/2000/svg" xmlns:xlink="http://www.w3.org/1999/xlink" x="0px" y="0px"
	 width="50px" height="50px" viewBox="0 0 50 50" enable-background="new 0 0 50 50" xml:space="preserve">
<rect fill="none" width="50" height="50"/>
<path fill="none" stroke="#000000" stroke-width="2" stroke-linecap="round" stroke-linejoin="round" stroke-miterlimit="10" d="
	M44,2c0,9-18.948,5-18.948,20"/>
<path fill="none" stroke="#000000" stroke-width="2" stroke-linecap="round" stroke-linejoin="round" stroke-miterlimit="10" d="
	M25,22c-5.158,0-5.842-3-11-3C8.843,19,1,32,1,42c0,4,2,7,5,7c9,0,13-9,19-9s10,9,19,9c3,0,5-3,5-7c0-10-7.843-23-13-23
	C30.842,19,30.158,22,25,22z"/>
<polygon points="18,34 15,34 15,37 12,37 12,34 9,34 9,31 12,31 12,28 15,28 15,31 18,31 "/>
<circle cx="37" cy="29" r="2"/>
<circle cx="37" cy="37" r="2"/>
<circle cx="41" cy="33" r="2"/>
<circle cx="33" cy="33" r="2"/>
</svg>
