<?xml version="1.0" encoding="utf-8"?>
<!-- Generator: Adobe Illustrator 16.0.0, SVG Export Plug-In . SVG Version: 6.00 Build 0)  -->
<!DOCTYPE svg PUBLIC "-//W3C//DTD SVG 1.1//EN" "http://www.w3.org/Graphics/SVG/1.1/DTD/svg11.dtd">
<svg version="1.1" id="Layer_1" xmlns="http://www.w3.org/2000/svg" xmlns:xlink="http://www.w3.org/1999/xlink" x="0px" y="0px"
	 width="50px" height="50px" viewBox="0 0 50 50" enable-background="new 0 0 50 50" xml:space="preserve">
<rect fill="none" width="50" height="50"/>
<g>
	<path fill="none" stroke="#000000" stroke-width="2" stroke-linecap="round" stroke-linejoin="round" stroke-miterlimit="10" d="
		M25,2C12.297,2,2,12.297,2,25c0,12.703,10.297,23,23,23c12.703,0,23-10.297,23-23C48,12.297,37.703,2,25,2L25,2z"/>
</g>
<path fill="none" stroke="#000000" stroke-width="2" stroke-linecap="round" stroke-linejoin="round" stroke-miterlimit="10" d="
	M21,22c0,0-2.124,2-5,2s-5-2-5-2"/>
<path fill="none" stroke="#000000" stroke-width="2" stroke-linecap="round" stroke-linejoin="round" stroke-miterlimit="10" d="
	M29,22c0,0,2.124,2,5,2c2.875,0,4.999-2,4.999-2"/>
<path fill="none" stroke="#000000" stroke-width="2" stroke-linecap="round" stroke-linejoin="round" stroke-miterlimit="10" d="
	M25,39c-5.708,0-10-6-10-6c3.395-0.146,4.698-4,7.585-4c1.681,0,1.011,1,2.415,1s0.734-1,2.415-1c2.887,0,4.19,3.854,7.585,4
	C35,33,30.709,39,25,39z"/>
<path fill="none" stroke="#000000" stroke-width="2" stroke-linecap="round" stroke-linejoin="round" stroke-miterlimit="10" d="
	M35,33c0,0-4.291,2-10,2c-5.708,0-10-2-10-2"/>
</svg>
