<?xml version="1.0" encoding="utf-8"?>
<!-- Generator: Adobe Illustrator 16.0.0, SVG Export Plug-In . SVG Version: 6.00 Build 0)  -->
<!DOCTYPE svg PUBLIC "-//W3C//DTD SVG 1.1//EN" "http://www.w3.org/Graphics/SVG/1.1/DTD/svg11.dtd">
<svg version="1.1" id="Layer_1" xmlns="http://www.w3.org/2000/svg" xmlns:xlink="http://www.w3.org/1999/xlink" x="0px" y="0px"
	 width="50px" height="50px" viewBox="0 0 50 50" enable-background="new 0 0 50 50" xml:space="preserve">
<path fill="none" stroke="#000000" stroke-width="2" stroke-linecap="round" stroke-linejoin="round" stroke-miterlimit="10" d="
	M38.691,34.295C38.888,34.652,39,35.063,39,35.5c0,1.38-1.12,2.5-2.5,2.5S34,36.88,34,35.5c0-1.027,0.621-1.911,1.508-2.295"/>
<rect fill="none" width="50" height="50"/>
<g>
	<path fill="none" stroke="#000000" stroke-width="2" stroke-miterlimit="10" d="M48.816,35.879
		c0.803-2.057-0.943-7.224-7.104-9.631c0,0-30.992-12.102-31.942-12.472c-0.947-0.369-1.087-1.167-1.24-2.234
		C8.261,9.691,7.875,7,7.772,6.143c-0.17-1.35-2.456-2.909-3.118-1.216c-0.662,1.691-2.72,6.964-3.5,8.959
		c-1.144,2.933,4.033,7.239,15.923,11.884c1.082,0.422,2.247,0.878,3.473,1.356L7.318,36.047c-1.351,0.802-1.39,1.359-0.878,1.561
		l1.765,0.687c0.912,0.356,2.788,0.237,4.184-0.27l18.873-6.806C40.049,34.477,48.307,37.188,48.816,35.879z"/>
	<path fill="none" stroke="#000000" stroke-width="2" stroke-linecap="round" stroke-linejoin="round" stroke-miterlimit="10" d="
		M29.739,21.56L23.486,9.613c-0.688-1.318-1.982-2.677-2.896-3.035L18.825,5.89c-0.511-0.2-0.86,0.236-0.409,1.744l2.508,10.507"/>
</g>
</svg>
