<?xml version="1.0" encoding="utf-8"?>
<!-- Generator: Adobe Illustrator 16.0.0, SVG Export Plug-In . SVG Version: 6.00 Build 0)  -->
<!DOCTYPE svg PUBLIC "-//W3C//DTD SVG 1.1//EN" "http://www.w3.org/Graphics/SVG/1.1/DTD/svg11.dtd">
<svg version="1.1" id="Layer_1" xmlns="http://www.w3.org/2000/svg" xmlns:xlink="http://www.w3.org/1999/xlink" x="0px" y="0px"
	 width="50px" height="50px" viewBox="0 0 50 50" enable-background="new 0 0 50 50" xml:space="preserve">
<rect fill="none" width="50" height="50"/>
<line fill="none" stroke="#000000" stroke-width="2" stroke-linecap="round" stroke-miterlimit="10" x1="16" y1="34" x2="34" y2="16"/>
<path d="M24.226,30.002c1.368,3.076,0.801,6.81-1.717,9.328c-0.359,0.359-5.656,5.658-6.179,6.18
	c-1.581,1.581-3.683,2.452-5.919,2.452c-2.235-0.001-4.337-0.871-5.918-2.452c-1.582-1.582-2.453-3.684-2.453-5.92
	c0-2.236,0.871-4.338,2.452-5.919l6.18-6.18c1.581-1.581,3.683-2.451,5.918-2.451c1.197,0,2.352,0.256,3.412,0.731l1.494-1.494
	c-1.491-0.803-3.165-1.23-4.906-1.23c-2.768,0-5.371,1.078-7.328,3.035l-6.18,6.18c-1.958,1.957-3.036,4.56-3.036,7.328
	c0,2.768,1.079,5.371,3.037,7.33c1.957,1.957,4.56,3.035,7.327,3.035c0.001,0,0.001,0,0.001,0c2.768,0,5.371-1.078,7.326-3.035
	c0.522-0.52,5.823-5.822,6.181-6.182c3.306-3.305,3.903-8.306,1.799-12.229L24.226,30.002z"/>
<path d="M25.774,19.998c-1.368-3.076-0.801-6.81,1.718-9.328c0.358-0.359,5.655-5.659,6.178-6.179
	c1.582-1.582,3.684-2.453,5.92-2.453c2.235,0,4.337,0.871,5.918,2.452c1.582,1.582,2.453,3.685,2.453,5.921
	c0,2.236-0.871,4.337-2.452,5.918l-6.18,6.18c-1.581,1.581-3.683,2.451-5.919,2.451c-1.196,0-2.352-0.256-3.411-0.731l-1.494,1.494
	c1.491,0.803,3.165,1.23,4.905,1.23c2.769,0,5.371-1.078,7.328-3.035l6.18-6.18c1.958-1.957,3.036-4.56,3.036-7.328
	c-0.001-2.769-1.079-5.372-3.037-7.33c-1.957-1.957-4.56-3.035-7.327-3.035c-0.001,0-0.001,0-0.001,0
	c-2.769,0-5.37,1.078-7.326,3.034c-0.522,0.52-5.823,5.823-6.181,6.182c-3.306,3.305-3.903,8.306-1.8,12.229L25.774,19.998z"/>
</svg>
