<?xml version="1.0" encoding="utf-8"?>
<!-- Generator: Adobe Illustrator 16.0.0, SVG Export Plug-In . SVG Version: 6.00 Build 0)  -->
<!DOCTYPE svg PUBLIC "-//W3C//DTD SVG 1.1//EN" "http://www.w3.org/Graphics/SVG/1.1/DTD/svg11.dtd">
<svg version="1.1" id="Layer_1" xmlns="http://www.w3.org/2000/svg" xmlns:xlink="http://www.w3.org/1999/xlink" x="0px" y="0px"
	 width="50px" height="50px" viewBox="0 0 50 50" enable-background="new 0 0 50 50" xml:space="preserve">
<rect fill="none" width="50" height="50"/>
<path fill="none" stroke="#000000" stroke-width="2" stroke-linecap="round" stroke-linejoin="round" stroke-miterlimit="10" d="
	M5,21v6l40,14V9L5,21z"/>
<path fill="none" stroke="#000000" stroke-width="2" stroke-linecap="round" stroke-linejoin="round" stroke-miterlimit="10" d="
	M25.354,34.564l-0.842,2.516c-0.602,1.809-2.553,2.783-4.361,2.18l-4.146-1.385c-1.806-0.604-2.779-2.557-2.176-4.365l0.852-2.334"
	/>
<path fill="none" stroke="#000000" stroke-width="2" stroke-linecap="round" stroke-linejoin="round" stroke-miterlimit="10" d="
	M45,41c0,1.105,0.896,2,2,2c1.104,0,2-0.895,2-2V9c0-1.105-0.896-2-2-2c-1.104,0-2,0.895-2,2V41z"/>
<path fill="none" stroke="#000000" stroke-width="2" stroke-linecap="round" stroke-linejoin="round" stroke-miterlimit="10" d="
	M1,27c0,1.105,0.896,2,2,2c1.104,0,2-0.895,2-2v-6c0-1.105-0.896-2-2-2c-1.104,0-2,0.895-2,2V27z"/>
</svg>
