<?xml version="1.0" encoding="utf-8"?>
<!-- Generator: Adobe Illustrator 16.0.0, SVG Export Plug-In . SVG Version: 6.00 Build 0)  -->
<!DOCTYPE svg PUBLIC "-//W3C//DTD SVG 1.1//EN" "http://www.w3.org/Graphics/SVG/1.1/DTD/svg11.dtd">
<svg version="1.1" id="Layer_1" xmlns="http://www.w3.org/2000/svg" xmlns:xlink="http://www.w3.org/1999/xlink" x="0px" y="0px"
	 width="50px" height="50px" viewBox="0 0 50 50" enable-background="new 0 0 50 50" xml:space="preserve">
<rect fill="none" width="50" height="50"/>
<g>
	<g>
		<path fill="none" stroke="#000000" stroke-width="2" stroke-linecap="round" stroke-linejoin="round" stroke-miterlimit="10" d="
			M17,30c19.351,0,20.428,15,24,15c0.027,0,0.055,0,0.082,0C41.979,45,43,42,43,23S41.871,1,41,1l0,0c-3.512,0-4.76,15-24,15"/>
	</g>
</g>
<path fill="none" stroke="#000000" stroke-width="2" stroke-linecap="round" stroke-linejoin="round" stroke-miterlimit="10" d="
	M43,27h1c2.208,0,4-1.791,4-4l0,0c0-2.209-1.792-4-4-4h-1"/>
<path fill="none" stroke="#000000" stroke-width="2" stroke-linecap="round" stroke-linejoin="round" stroke-miterlimit="10" d="
	M14,30c0,7.751,1.518,11.467,2.263,12.211c1.211,1.21,1.739,1.842,1.739,3.319c0,1.467-0.687,2.468-2.37,2.468h-3.474
	c-2.053,0-2.751-1.102-3.053-2.682c-1.776-9.297-3.264-14.527-5.053-15.79"/>
<path fill="none" stroke="#000000" stroke-width="1.9891" stroke-linecap="round" stroke-linejoin="round" stroke-miterlimit="10" d="
	M6.308,16C3.377,16,1,18.352,1,21.25v3.5C1,27.648,3.377,30,6.308,30H17V16H6.308z"/>
</svg>
