<?xml version="1.0" encoding="utf-8"?>
<!-- Generator: Adobe Illustrator 16.0.0, SVG Export Plug-In . SVG Version: 6.00 Build 0)  -->
<!DOCTYPE svg PUBLIC "-//W3C//DTD SVG 1.1//EN" "http://www.w3.org/Graphics/SVG/1.1/DTD/svg11.dtd">
<svg version="1.1" id="Layer_1" xmlns="http://www.w3.org/2000/svg" xmlns:xlink="http://www.w3.org/1999/xlink" x="0px" y="0px"
	 width="50px" height="50px" viewBox="0 0 50 50" enable-background="new 0 0 50 50" xml:space="preserve">
<path fill="none" stroke="#000000" stroke-width="2.08" stroke-linejoin="round" stroke-miterlimit="10" d="M27,37.84V46h-4v-8.16"
	/>
<path fill="none" stroke="#000000" stroke-width="2" stroke-linecap="round" stroke-linejoin="round" stroke-miterlimit="10" d="
	M28.5,12h5.781"/>
<path fill="none" stroke="#000000" stroke-width="2" stroke-linecap="round" stroke-linejoin="round" stroke-miterlimit="10" d="
	M28.5,16h5.781"/>
<path fill="none" stroke="#000000" stroke-width="2" stroke-linecap="round" stroke-linejoin="round" stroke-miterlimit="10" d="
	M28.5,20h5.781"/>
<path fill="none" stroke="#000000" stroke-width="2" stroke-linecap="round" stroke-linejoin="round" stroke-miterlimit="10" d="
	M21.5,12h-5.78"/>
<path fill="none" stroke="#000000" stroke-width="2" stroke-linecap="round" stroke-linejoin="round" stroke-miterlimit="10" d="
	M21.5,16h-5.78"/>
<path fill="none" stroke="#000000" stroke-width="2" stroke-linecap="round" stroke-linejoin="round" stroke-miterlimit="10" d="
	M21.5,20h-5.78"/>
<rect fill="none" width="50" height="50"/>
<g>
	<path fill="none" stroke="#000000" stroke-width="2.052" stroke-linejoin="round" stroke-miterlimit="10" d="M25,1
		c-5.523,0-10,4.357-10,9.732v12.535C15,28.643,19.477,33,25,33s10-4.357,10-9.732V10.732C35,5.357,30.523,1,25,1L25,1z"/>
</g>
<path fill="none" stroke="#000000" stroke-width="1.7333" stroke-linecap="round" stroke-linejoin="round" stroke-miterlimit="10" d="
	M10,18v5c0,8.271,6.729,15,15,15c8.271,0,15-6.729,15-15v-5"/>
<path fill="none" stroke="#000000" stroke-width="1.9793" stroke-linecap="round" stroke-miterlimit="10" d="M15.484,46
	C14.112,46,13,47.104,13,48.465c0,0.152,0,0.479,0,0.479h23.896c0,0,0-0.326,0-0.479c0-1.361-1.111-2.465-2.483-2.465
	C34.258,46,15.639,46,15.484,46z"/>
</svg>
