<?xml version="1.0" encoding="utf-8"?>
<!-- Generator: Adobe Illustrator 16.0.0, SVG Export Plug-In . SVG Version: 6.00 Build 0)  -->
<!DOCTYPE svg PUBLIC "-//W3C//DTD SVG 1.1//EN" "http://www.w3.org/Graphics/SVG/1.1/DTD/svg11.dtd">
<svg version="1.1" id="Layer_1" xmlns="http://www.w3.org/2000/svg" xmlns:xlink="http://www.w3.org/1999/xlink" x="0px" y="0px"
	 width="50px" height="50px" viewBox="0 0 50 50" enable-background="new 0 0 50 50" xml:space="preserve">
<g>
	<path d="M20.566,36.921c0.517,0.454,1.167,0.739,1.95,0.854l-0.017-4.65c-0.691-0.149-1.289-0.314-1.792-0.495
		c-0.504-0.179-0.922-0.395-1.254-0.646c-0.335-0.251-0.581-0.557-0.738-0.919s-0.238-0.8-0.24-1.315
		c-0.002-0.526,0.102-1.009,0.309-1.448s0.49-0.819,0.848-1.143s0.78-0.579,1.27-0.768c0.488-0.188,1.014-0.3,1.574-0.337
		l-0.004-1.158l1.076-0.003l0.004,1.175c1.058,0.114,1.9,0.463,2.529,1.046c0.627,0.583,1.074,1.39,1.338,2.417l-1.663,0.006
		c-0.265-1.158-0.999-1.834-2.198-2.029l0.015,4.316l1.175,0.277c0.262,0.058,0.568,0.159,0.922,0.304
		c0.351,0.146,0.691,0.347,1.019,0.603c0.326,0.257,0.605,0.578,0.836,0.963c0.229,0.385,0.344,0.848,0.346,1.385
		c0.004,0.573-0.104,1.083-0.316,1.527c-0.215,0.445-0.51,0.83-0.887,1.152c-0.377,0.323-0.827,0.578-1.347,0.768
		c-0.521,0.188-1.096,0.307-1.721,0.355l0.005,1.439L22.526,40.6l-0.005-1.438c-1.304-0.112-2.344-0.518-3.115-1.211
		c-0.772-0.693-1.213-1.654-1.323-2.883l1.664-0.004C19.776,35.846,20.049,36.466,20.566,36.921z M24.6,37.594
		c0.307-0.095,0.572-0.232,0.801-0.415c0.228-0.182,0.402-0.41,0.525-0.687c0.123-0.273,0.183-0.599,0.183-0.973
		c-0.002-0.34-0.066-0.624-0.199-0.852c-0.132-0.228-0.309-0.422-0.531-0.586c-0.221-0.163-0.49-0.299-0.804-0.41
		c-0.313-0.109-0.646-0.211-0.999-0.305l0.016,4.404C23.958,37.747,24.293,37.688,24.6,37.594z M20.887,28.066
		c-0.436,0.348-0.652,0.854-0.65,1.521c0.002,0.303,0.058,0.563,0.17,0.78c0.111,0.216,0.268,0.396,0.471,0.542
		c0.203,0.146,0.441,0.271,0.715,0.375c0.274,0.104,0.574,0.198,0.902,0.277l-0.015-4.104
		C21.854,27.519,21.322,27.722,20.887,28.066z"/>
</g>
<rect fill="none" width="50" height="50"/>
<g>
	<path fill="none" stroke="#000000" stroke-width="2" stroke-linecap="round" stroke-miterlimit="10" d="M28.938,17.274
		C27.667,12.417,30.66,8.524,31,8c0.688-1.065,2-3,0-3s-4.279,1.507-5.747,0.013c-2.508-2.554-3.762-2.6-5.526-0.232
		c-0.997,1.338-2.608,1.347-4.597,1.347c-4.179,0-3.25,1.672-2.037,2.872c0.549,0.543,4.268,3.603,3.747,8.691
		C10.348,19.15,3.575,27.405,3.575,34.598c0,9.251,5.279,11.684,19.962,11.684c14.682,0,19.961-2.492,19.961-11.684
		C43.498,26.863,36.288,19.365,28.938,17.274z"/>
</g>
<path fill="none" stroke="#000000" stroke-width="2" stroke-linecap="round" stroke-miterlimit="10" d="M12.205,7.149
	c2.322,4.04,5.208,4.837,6.827,3.344c1.811-1.672,2.757-2.486,4.69-0.093c0.975,1.207,2.693,0.789,3.947-0.325
	c2.221-1.973,4.09-2.843,3.901-4.133"/>
<path fill="none" stroke="#000000" stroke-width="2" stroke-linecap="round" stroke-miterlimit="10" d="M16.84,17.691
	c0,0,5.437,3.306,12.099-0.417C31.063,16.087,34.984,12.203,40,15"/>
<path fill="none" stroke="#000000" stroke-width="2" stroke-linecap="round" stroke-miterlimit="10" d="M28.938,17.274
	C30.65,16.622,35.578,15.234,39,19"/>
</svg>
