<?xml version="1.0" encoding="utf-8"?>
<!-- Generator: Adobe Illustrator 16.0.0, SVG Export Plug-In . SVG Version: 6.00 Build 0)  -->
<!DOCTYPE svg PUBLIC "-//W3C//DTD SVG 1.1//EN" "http://www.w3.org/Graphics/SVG/1.1/DTD/svg11.dtd">
<svg version="1.1" id="Layer_1" xmlns="http://www.w3.org/2000/svg" xmlns:xlink="http://www.w3.org/1999/xlink" x="0px" y="0px"
	 width="50px" height="50px" viewBox="0 0 50 50" enable-background="new 0 0 50 50" xml:space="preserve">
<rect fill="none" width="50" height="50"/>
<ellipse fill="none" stroke="#000000" stroke-width="2" stroke-linecap="round" stroke-linejoin="round" stroke-miterlimit="10" cx="35" cy="6" rx="14" ry="5"/>
<path fill="none" stroke="#000000" stroke-width="2" stroke-linecap="round" stroke-linejoin="round" stroke-miterlimit="10" d="
	M21,7c0,0.912,0,5.088,0,6c0,2.761,6.266,5,14,5s14-2.239,14-5c0-0.912,0-5.088,0-6"/>
<path fill="none" stroke="#000000" stroke-width="2" stroke-linecap="round" stroke-linejoin="round" stroke-miterlimit="10" d="
	M28.55,24.439C30.48,24.797,32.674,25,35,25c7.734,0,14-2.239,14-5c0-0.912,0-5.088,0-6"/>
<path fill="none" stroke="#000000" stroke-width="2" stroke-linecap="round" stroke-linejoin="round" stroke-miterlimit="10" d="
	M21,14c0,0.912,0,4.27,0,4.27"/>
<path fill="none" stroke="#000000" stroke-width="2" stroke-linecap="round" stroke-linejoin="round" stroke-miterlimit="10" d="
	M29.025,31.523C30.837,31.829,32.862,32,35,32c7.734,0,14-2.238,14-5c0-0.912,0-5.088,0-6"/>
<path fill="none" stroke="#000000" stroke-width="2" stroke-linecap="round" stroke-linejoin="round" stroke-miterlimit="10" d="
	M28.948,38.51C30.779,38.824,32.832,39,35,39c7.734,0,14-2.238,14-5c0-0.912,0-5.088,0-6"/>
<ellipse fill="none" stroke="#000000" stroke-width="2" stroke-linecap="round" stroke-linejoin="round" stroke-miterlimit="10" cx="15" cy="23" rx="14" ry="5"/>
<path fill="none" stroke="#000000" stroke-width="2" stroke-linecap="round" stroke-linejoin="round" stroke-miterlimit="10" d="
	M1,24c0,0.912,0,5.088,0,6c0,2.762,6.266,5,14,5s14-2.238,14-5c0-0.912,0-5.088,0-6"/>
<path fill="none" stroke="#000000" stroke-width="2" stroke-linecap="round" stroke-linejoin="round" stroke-miterlimit="10" d="
	M1,31c0,0.912,0,5.088,0,6c0,2.762,6.266,5,14,5s14-2.238,14-5c0-0.912,0-5.088,0-6"/>
<path fill="none" stroke="#000000" stroke-width="2" stroke-linecap="round" stroke-linejoin="round" stroke-miterlimit="10" d="
	M1,38c0,0.912,0,5.088,0,6c0,2.762,6.266,5,14,5s14-2.238,14-5c0-0.912,0-5.088,0-6"/>
</svg>
