<?xml version="1.0" encoding="utf-8"?>
<!-- Generator: Adobe Illustrator 16.0.0, SVG Export Plug-In . SVG Version: 6.00 Build 0)  -->
<!DOCTYPE svg PUBLIC "-//W3C//DTD SVG 1.1//EN" "http://www.w3.org/Graphics/SVG/1.1/DTD/svg11.dtd">
<svg version="1.1" id="Layer_1" xmlns="http://www.w3.org/2000/svg" xmlns:xlink="http://www.w3.org/1999/xlink" x="0px" y="0px"
	 width="50px" height="50px" viewBox="0 0 50 50" enable-background="new 0 0 50 50" xml:space="preserve">
<rect fill="none" width="50" height="50"/>
<line fill="none" stroke="#000000" stroke-width="2" stroke-linecap="round" stroke-miterlimit="10" x1="16" y1="7" x2="16" y2="11"/>
<line fill="none" stroke="#000000" stroke-width="2" stroke-linecap="round" stroke-miterlimit="10" x1="14" y1="9" x2="18" y2="9"/>
<line fill="none" stroke="#000000" stroke-width="2" stroke-linecap="round" stroke-miterlimit="10" x1="8" y1="19" x2="8" y2="21"/>
<line fill="none" stroke="#000000" stroke-width="2" stroke-linecap="round" stroke-miterlimit="10" x1="7" y1="20" x2="9" y2="20"/>
<path fill="none" stroke="#000000" stroke-width="2" stroke-linecap="round" stroke-miterlimit="10" d="M40,29
	c-7.18,0-13-5.82-13-13c0-0.631,0.061-1.246,0.146-1.853C20.848,15.048,16,20.451,16,27c0,7.18,5.82,13,13,13
	c6.549,0,11.951-4.848,12.854-11.146C41.246,28.939,40.631,29,40,29z"/>
</svg>
