<?xml version="1.0" encoding="utf-8"?>
<!-- Generator: Adobe Illustrator 16.0.0, SVG Export Plug-In . SVG Version: 6.00 Build 0)  -->
<!DOCTYPE svg PUBLIC "-//W3C//DTD SVG 1.1//EN" "http://www.w3.org/Graphics/SVG/1.1/DTD/svg11.dtd">
<svg version="1.1" id="Layer_1" xmlns="http://www.w3.org/2000/svg" xmlns:xlink="http://www.w3.org/1999/xlink" x="0px" y="0px"
	 width="50px" height="50px" viewBox="0 0 50 50" enable-background="new 0 0 50 50" xml:space="preserve">
<rect fill="none" width="50" height="50"/>
<path fill="none" stroke="#000000" stroke-width="2.004" stroke-linecap="round" stroke-linejoin="round" stroke-miterlimit="10" d="
	M33.445,24.419C34.303,23.477,35.898,23,37.593,23c2.536,0,2.406,1.121,2.406,2.499c0,1.381,0.13,2.501-2.406,2.501
	c-1.21,0-2.775-0.254-3.595-0.67"/>
<path fill="none" stroke="#000000" stroke-width="2" stroke-linecap="round" stroke-linejoin="round" stroke-miterlimit="10" d="
	M33.75,27.667C35.417,32.5,38.731,38.518,42,42"/>
<path fill="none" stroke="#000000" stroke-width="2" stroke-linecap="round" stroke-linejoin="round" stroke-miterlimit="10" d="
	M26,21c2-2,5-2,5-2s0.689,1.297,0.942,2.341"/>
<path fill="none" stroke="#000000" stroke-width="2" stroke-linecap="round" stroke-linejoin="round" stroke-miterlimit="10" d="
	M14.491,35.237C11.193,29.154,7.328,30,4,30c-2.094,0-3-1-3-1s0.674-3,7-3c4.37,0,4.949,0.098,6,2c0.694,1.257,4,2,7,2
	c1.738,0,0-5,8-5c2.155,0,3.07-2.648,2.957-3.692c0,0,1.455,6.124,2.506,8.556c0,0-5.979,2.627-4.796,11.137
	c0.049,1.1-2.395,1.955-5.059,1.988c-2.379,0.027-6.55-0.622-7.549-1.988"/>
<line fill="none" stroke="#000000" stroke-width="2" stroke-linecap="round" stroke-linejoin="round" stroke-miterlimit="10" x1="9" y1="41" x2="16.725" y2="41"/>
<g>
	<path d="M9,34c3.86,0,7,3.141,7,7s-3.14,7-7,7s-7-3.141-7-7S5.14,34,9,34 M9,32c-4.972,0-9,4.028-9,9s4.028,9,9,9s9-4.028,9-9
		S13.972,32,9,32L9,32z"/>
</g>
<g>
	<path d="M9,38c1.654,0,3,1.346,3,3s-1.346,3-3,3s-3-1.346-3-3S7.346,38,9,38 M9,36c-2.761,0-5,2.238-5,5c0,2.761,2.239,5,5,5
		s5-2.239,5-5C14,38.238,11.761,36,9,36L9,36z"/>
</g>
<g>
	<path d="M41,34c3.859,0,7,3.141,7,7s-3.141,7-7,7s-7-3.141-7-7S37.141,34,41,34 M41,32c-4.972,0-9,4.028-9,9s4.028,9,9,9
		s9-4.028,9-9S45.972,32,41,32L41,32z"/>
</g>
<g>
	<path d="M41,38c1.654,0,3,1.346,3,3s-1.346,3-3,3s-3-1.346-3-3S39.346,38,41,38 M41,36c-2.761,0-5,2.238-5,5c0,2.761,2.239,5,5,5
		s5-2.239,5-5C46,38.238,43.761,36,41,36L41,36z"/>
</g>
</svg>
