<?xml version="1.0" encoding="utf-8"?>
<!-- Generator: Adobe Illustrator 16.0.0, SVG Export Plug-In . SVG Version: 6.00 Build 0)  -->
<!DOCTYPE svg PUBLIC "-//W3C//DTD SVG 1.1//EN" "http://www.w3.org/Graphics/SVG/1.1/DTD/svg11.dtd">
<svg version="1.1" id="Layer_1" xmlns="http://www.w3.org/2000/svg" xmlns:xlink="http://www.w3.org/1999/xlink" x="0px" y="0px"
	 width="50px" height="50px" viewBox="0 0 50 50" enable-background="new 0 0 50 50" xml:space="preserve">
<rect x="1" y="3" fill="none" stroke="#000000" stroke-width="2" stroke-linecap="round" stroke-miterlimit="10" width="48" height="44"/>
<rect fill="none" width="50" height="50"/>
<line fill="none" stroke="#000000" stroke-width="2" stroke-miterlimit="10" x1="9" y1="25" x2="42" y2="25"/>
<line fill="none" stroke="#000000" stroke-width="2" stroke-miterlimit="10" x1="43" y1="8" x2="48" y2="8"/>
<line fill="none" stroke="#000000" stroke-width="2" stroke-miterlimit="10" x1="43" y1="13" x2="48" y2="13"/>
<line fill="none" stroke="#000000" stroke-width="2" stroke-miterlimit="10" x1="43" y1="18" x2="48" y2="18"/>
<line fill="none" stroke="#000000" stroke-width="2" stroke-miterlimit="10" x1="43" y1="23" x2="48" y2="23"/>
<line fill="none" stroke="#000000" stroke-width="2" stroke-miterlimit="10" x1="43" y1="28" x2="48" y2="28"/>
<line fill="none" stroke="#000000" stroke-width="2" stroke-miterlimit="10" x1="43" y1="33" x2="48" y2="33"/>
<line fill="none" stroke="#000000" stroke-width="2" stroke-miterlimit="10" x1="43" y1="38" x2="48" y2="38"/>
<line fill="none" stroke="#000000" stroke-width="2" stroke-miterlimit="10" x1="43" y1="43" x2="48" y2="43"/>
<rect x="47" y="3" width="2" height="44"/>
<rect x="40" y="3" width="3" height="44"/>
<line fill="none" stroke="#000000" stroke-width="2" stroke-miterlimit="10" x1="7" y1="8" x2="2" y2="8"/>
<line fill="none" stroke="#000000" stroke-width="2" stroke-miterlimit="10" x1="7" y1="13" x2="2" y2="13"/>
<line fill="none" stroke="#000000" stroke-width="2" stroke-miterlimit="10" x1="7" y1="18" x2="2" y2="18"/>
<line fill="none" stroke="#000000" stroke-width="2" stroke-miterlimit="10" x1="7" y1="23" x2="2" y2="23"/>
<line fill="none" stroke="#000000" stroke-width="2" stroke-miterlimit="10" x1="7" y1="28" x2="2" y2="28"/>
<line fill="none" stroke="#000000" stroke-width="2" stroke-miterlimit="10" x1="7" y1="33" x2="2" y2="33"/>
<line fill="none" stroke="#000000" stroke-width="2" stroke-miterlimit="10" x1="7" y1="38" x2="2" y2="38"/>
<line fill="none" stroke="#000000" stroke-width="2" stroke-miterlimit="10" x1="7" y1="43" x2="2" y2="43"/>
<rect x="1" y="3" width="2" height="44"/>
<rect x="7" y="3" width="3" height="44"/>
</svg>
