<?xml version="1.0" encoding="utf-8"?>
<!-- Generator: Adobe Illustrator 16.0.0, SVG Export Plug-In . SVG Version: 6.00 Build 0)  -->
<!DOCTYPE svg PUBLIC "-//W3C//DTD SVG 1.1//EN" "http://www.w3.org/Graphics/SVG/1.1/DTD/svg11.dtd">
<svg version="1.1" id="Layer_1" xmlns="http://www.w3.org/2000/svg" xmlns:xlink="http://www.w3.org/1999/xlink" x="0px" y="0px"
	 width="50px" height="50px" viewBox="0 0 50 50" enable-background="new 0 0 50 50" xml:space="preserve">
<rect fill="none" width="50" height="50"/>
<rect x="1" y="8" fill="none" stroke="#000000" stroke-width="2" stroke-linecap="round" stroke-miterlimit="10" width="48" height="30"/>
<line fill="none" stroke="#000000" stroke-width="2" stroke-linecap="round" stroke-miterlimit="10" x1="39" y1="42" x2="11" y2="42"/>
<path d="M33.019,19.948c-3.585,0-3.974-1.948-6.558-1.948C26.057,18,26,18.342,26,19.035c0,1.275,0,8.613,0,9.965s-0.246,4-4,4
	s-4-1.799-4-3c0-1.783,1.146-3,4-3c2,0,2-0.884,2-2c0-3.98,0-10.439,0-11.016c0-0.531,0.172-0.956,0.977-0.956
	c3.357,0,4.445,1.993,8.023,1.993c0.641,0,0.986,0.181,0.986,0.952c0,0.488,0,1.776,0,3.061
	C33.986,19.984,33.019,19.948,33.019,19.948z"/>
</svg>
