<?xml version="1.0" encoding="utf-8"?>
<!-- Generator: Adobe Illustrator 16.0.0, SVG Export Plug-In . SVG Version: 6.00 Build 0)  -->
<!DOCTYPE svg PUBLIC "-//W3C//DTD SVG 1.1//EN" "http://www.w3.org/Graphics/SVG/1.1/DTD/svg11.dtd">
<svg version="1.1" id="Layer_1" xmlns="http://www.w3.org/2000/svg" xmlns:xlink="http://www.w3.org/1999/xlink" x="0px" y="0px"
	 width="50px" height="50px" viewBox="0 0 50 50" enable-background="new 0 0 50 50" xml:space="preserve">
<rect fill="none" width="50" height="50"/>
<rect fill="none" width="50" height="50"/>
<path fill="none" stroke="#000000" stroke-width="2" stroke-linecap="round" stroke-linejoin="round" stroke-miterlimit="10" d="
	M34.266,15.608C34.266,15.608,49,18,49,31.945c0,12.297-4.275,11.2-4.275,4.572c0-10.008-3.681-10.219-3.681-10.219"/>
<g>
	<circle cx="26" cy="20" r="2"/>
</g>
<path fill="none" stroke="#000000" stroke-width="2.021" stroke-linecap="round" stroke-linejoin="round" stroke-miterlimit="10" d="
	M26,20c-8.025,0-19-1.772-19-8.302C7,7.583,12.95,5,22,5"/>
<path fill="none" stroke="#000000" stroke-width="2" stroke-linecap="round" stroke-linejoin="round" stroke-miterlimit="10" d="
	M25.244,42.1c-2.532,2.533-6.639,2.533-9.17,0.002L4.899,30.928c-2.533-2.533-2.533-6.638,0-9.17L22.656,4L43,24.343L25.244,42.1z"
	/>
</svg>
