<?xml version="1.0" encoding="utf-8"?>
<!-- Generator: Adobe Illustrator 16.0.0, SVG Export Plug-In . SVG Version: 6.00 Build 0)  -->
<!DOCTYPE svg PUBLIC "-//W3C//DTD SVG 1.1//EN" "http://www.w3.org/Graphics/SVG/1.1/DTD/svg11.dtd">
<svg version="1.1" id="Layer_1" xmlns="http://www.w3.org/2000/svg" xmlns:xlink="http://www.w3.org/1999/xlink" x="0px" y="0px"
	 width="50px" height="50px" viewBox="0 0 50 50" enable-background="new 0 0 50 50" xml:space="preserve">
<line fill="none" stroke="#000000" stroke-width="2" stroke-linecap="round" stroke-miterlimit="10" x1="29" y1="48" x2="31" y2="46"/>
<line fill="none" stroke="#000000" stroke-width="2" stroke-linecap="round" stroke-miterlimit="10" x1="20" y1="44" x2="22" y2="42"/>
<line fill="none" stroke="#000000" stroke-width="2" stroke-linecap="round" stroke-miterlimit="10" x1="39" y1="44" x2="41" y2="42"/>
<rect fill="none" width="50" height="50"/>
<g>
	<path fill="none" stroke="#000000" stroke-width="2" stroke-linecap="round" stroke-miterlimit="10" d="M13.537,25.081
		C11.426,23.874,10,21.599,10,19c0-3.858,3.141-7,7-7 M17,12c1.729,0,3.314,0.631,4.537,1.675"/>
</g>
<line fill="none" stroke="#000000" stroke-width="2" stroke-linecap="round" stroke-miterlimit="10" x1="17" y1="8" x2="17" y2="3"/>
<line fill="none" stroke="#000000" stroke-width="2" stroke-linecap="round" stroke-miterlimit="10" x1="1" y1="19" x2="6" y2="19"/>
<line fill="none" stroke="#000000" stroke-width="2" stroke-linecap="round" stroke-miterlimit="10" x1="24.778" y1="11.221" x2="28.314" y2="7.686"/>
<line fill="none" stroke="#000000" stroke-width="2" stroke-linecap="round" stroke-miterlimit="10" x1="5.687" y1="30.312" x2="9.223" y2="26.777"/>
<line fill="none" stroke="#000000" stroke-width="2" stroke-linecap="round" stroke-miterlimit="10" x1="5.687" y1="7.686" x2="9.223" y2="11.222"/>
<path fill="none" stroke="#000000" stroke-width="2" stroke-linecap="round" stroke-miterlimit="10" d="M41,22
	c-1.105,0-2.158,0.224-3.115,0.629C37.223,18.311,33.504,15,29,15c-4.971,0-9,4.029-9,9c0,0.692,0.085,1.364,0.234,2.012
	C20.156,26.009,20.079,26,20,26c-3.313,0-6,2.687-6,6s2.687,6,6,6c3.155,0,17.25,0,21,0c4.418,0,8-3.582,8-8
	C49,25.582,45.418,22,41,22z"/>
</svg>
