<?xml version="1.0" encoding="utf-8"?>
<!-- Generator: Adobe Illustrator 16.0.0, SVG Export Plug-In . SVG Version: 6.00 Build 0)  -->
<!DOCTYPE svg PUBLIC "-//W3C//DTD SVG 1.1//EN" "http://www.w3.org/Graphics/SVG/1.1/DTD/svg11.dtd">
<svg version="1.1" id="Layer_1" xmlns="http://www.w3.org/2000/svg" xmlns:xlink="http://www.w3.org/1999/xlink" x="0px" y="0px"
	 width="50px" height="50px" viewBox="0 0 50 50" enable-background="new 0 0 50 50" xml:space="preserve">
<rect fill="none" width="50" height="50"/>
<g>
	<path fill="none" stroke="#000000" stroke-width="2" stroke-linecap="round" stroke-miterlimit="10" d="M13.537,27.081
		C11.426,25.874,10,23.599,10,21c0-3.858,3.141-7,7-7 M17,14c1.729,0,3.314,0.631,4.538,1.675"/>
</g>
<line fill="none" stroke="#000000" stroke-width="2" stroke-linecap="round" stroke-miterlimit="10" x1="17" y1="10" x2="17" y2="5"/>
<line fill="none" stroke="#000000" stroke-width="2" stroke-linecap="round" stroke-miterlimit="10" x1="1" y1="21" x2="6" y2="21"/>
<line fill="none" stroke="#000000" stroke-width="2" stroke-linecap="round" stroke-miterlimit="10" x1="24.778" y1="13.221" x2="28.314" y2="9.686"/>
<line fill="none" stroke="#000000" stroke-width="2" stroke-linecap="round" stroke-miterlimit="10" x1="5.687" y1="32.312" x2="9.222" y2="28.777"/>
<line fill="none" stroke="#000000" stroke-width="2" stroke-linecap="round" stroke-miterlimit="10" x1="5.687" y1="9.686" x2="9.222" y2="13.222"/>
<path fill="none" stroke="#000000" stroke-width="2" stroke-linecap="round" stroke-miterlimit="10" d="M41,24
	c-1.105,0-2.158,0.224-3.115,0.629C37.223,20.311,33.504,17,29,17c-4.971,0-9,4.029-9,9c0,0.692,0.085,1.364,0.234,2.012
	C20.156,28.009,20.079,28,20,28c-3.313,0-6,2.687-6,6s2.687,6,6,6c3.155,0,17.25,0,21,0c4.418,0,8-3.582,8-8S45.418,24,41,24z"/>
</svg>
