<?xml version="1.0" encoding="utf-8"?>
<!-- Generator: Adobe Illustrator 16.0.0, SVG Export Plug-In . SVG Version: 6.00 Build 0)  -->
<!DOCTYPE svg PUBLIC "-//W3C//DTD SVG 1.1//EN" "http://www.w3.org/Graphics/SVG/1.1/DTD/svg11.dtd">
<svg version="1.1" id="Layer_1" xmlns="http://www.w3.org/2000/svg" xmlns:xlink="http://www.w3.org/1999/xlink" x="0px" y="0px"
	 width="50px" height="50px" viewBox="0 0 50 50" enable-background="new 0 0 50 50" xml:space="preserve">
<rect fill="none" width="50" height="50"/>
<rect fill="none" width="50" height="50"/>
<path fill="none" stroke="#000000" stroke-width="2" stroke-linecap="round" stroke-miterlimit="10" d="M44.009,24.128
	c1.662-1.639,2.753-3.854,2.95-6.323C46.326,17.931,45.671,18,45,18c-5.522,0-10-4.478-10-10c0-0.272,0.02-0.539,0.041-0.805
	c-3.39,0.674-6.162,3.059-7.377,6.218"/>
<line fill="none" stroke="#000000" stroke-width="2" stroke-linecap="round" stroke-miterlimit="10" x1="12" y1="7" x2="12" y2="11"/>
<line fill="none" stroke="#000000" stroke-width="2" stroke-linecap="round" stroke-miterlimit="10" x1="10" y1="9" x2="14" y2="9"/>
<line fill="none" stroke="#000000" stroke-width="2" stroke-linecap="round" stroke-miterlimit="10" x1="4" y1="19" x2="4" y2="21"/>
<line fill="none" stroke="#000000" stroke-width="2" stroke-linecap="round" stroke-miterlimit="10" x1="3" y1="20" x2="5" y2="20"/>
<path fill="none" stroke="#000000" stroke-width="2" stroke-linecap="round" stroke-miterlimit="10" d="M36,24
	c-1.105,0-2.158,0.224-3.115,0.629C32.223,20.311,28.504,17,24,17c-4.971,0-9,4.029-9,9c0,0.692,0.085,1.364,0.234,2.012
	C15.156,28.009,15.079,28,15,28c-3.313,0-6,2.687-6,6s2.687,6,6,6c3.155,0,17.25,0,21,0c4.418,0,8-3.582,8-8S40.418,24,36,24z"/>
</svg>
