<?xml version="1.0" encoding="utf-8"?>
<!-- Generator: Adobe Illustrator 16.0.0, SVG Export Plug-In . SVG Version: 6.00 Build 0)  -->
<!DOCTYPE svg PUBLIC "-//W3C//DTD SVG 1.1//EN" "http://www.w3.org/Graphics/SVG/1.1/DTD/svg11.dtd">
<svg version="1.1" id="Layer_1" xmlns="http://www.w3.org/2000/svg" xmlns:xlink="http://www.w3.org/1999/xlink" x="0px" y="0px"
	 width="50px" height="50px" viewBox="0 0 50 50" enable-background="new 0 0 50 50" xml:space="preserve">
<rect fill="none" width="50" height="50"/>
<circle fill="none" stroke="#000000" stroke-width="2" stroke-linecap="round" stroke-miterlimit="10" cx="25" cy="24" r="12"/>
<circle fill="none" stroke="#000000" stroke-width="2" stroke-linecap="round" stroke-miterlimit="10" cx="25" cy="24" r="8"/>
<path fill="none" stroke="#000000" stroke-width="2" stroke-linecap="round" stroke-miterlimit="10" d="M47,10H37
	c-1.469,0-2.484-4-4-4H17c-1.516,0-2.531,4-4,4H3c-1.104,0-2,0.896-2,2v27c0,1.104,0.896,2,2,2h44c1.104,0,2-0.896,2-2V12
	C49,10.896,48.104,10,47,10z"/>
<path d="M9,14c0,0-0.826,0-1,0c-1.104,0-2,0.896-2,2s0.896,2,2,2c0.174,0,0.826,0,1,0c1.104,0,2-0.896,2-2S10.104,14,9,14z"/>
</svg>
