<?xml version="1.0" encoding="utf-8"?>
<!-- Generator: Adobe Illustrator 16.0.0, SVG Export Plug-In . SVG Version: 6.00 Build 0)  -->
<!DOCTYPE svg PUBLIC "-//W3C//DTD SVG 1.1//EN" "http://www.w3.org/Graphics/SVG/1.1/DTD/svg11.dtd">
<svg version="1.1" id="Layer_1" xmlns="http://www.w3.org/2000/svg" xmlns:xlink="http://www.w3.org/1999/xlink" x="0px" y="0px"
	 width="50px" height="50px" viewBox="0 0 50 50" enable-background="new 0 0 50 50" xml:space="preserve">
<rect fill="none" width="50" height="50"/>
<g>
	<circle fill="none" stroke="#000000" stroke-width="2" stroke-miterlimit="10" cx="39" cy="44" r="5"/>
</g>
<g>
	<circle fill="none" stroke="#000000" stroke-width="2" stroke-miterlimit="10" cx="11" cy="44" r="5"/>
</g>
<path fill="none" stroke="#000000" stroke-width="2" stroke-miterlimit="10" d="M44,44h3c1.059,0,2-0.941,2-2v-6c0-1.91-6-4-11-5
	c-1.68-0.336-6-6-6-6c-1-1-2-2-4-2c0,0-8.131,0-8.988,0S17,23.329,17,24.896S17,31,17,31H4c-1.681,0-3,0.781-3,3v8.308
	C1,43.367,1.941,44,3,44h3 M16,44h18"/>
<line fill="none" stroke="#000000" stroke-width="2" stroke-linecap="round" stroke-linejoin="round" stroke-miterlimit="10" x1="5" y1="31" x2="38" y2="31"/>
<line fill="none" stroke="#000000" stroke-width="2" stroke-miterlimit="10" x1="24" y1="23" x2="24" y2="31"/>
</svg>
