<?xml version="1.0" encoding="utf-8"?>
<!-- Generator: Adobe Illustrator 16.0.0, SVG Export Plug-In . SVG Version: 6.00 Build 0)  -->
<!DOCTYPE svg PUBLIC "-//W3C//DTD SVG 1.1//EN" "http://www.w3.org/Graphics/SVG/1.1/DTD/svg11.dtd">
<svg version="1.1" id="Layer_1" xmlns="http://www.w3.org/2000/svg" xmlns:xlink="http://www.w3.org/1999/xlink" x="0px" y="0px"
	 width="50px" height="50px" viewBox="0 0 50 50" enable-background="new 0 0 50 50" xml:space="preserve">
<rect fill="none" width="50" height="50"/>
<path fill="none" stroke="#000000" stroke-width="2" stroke-linecap="round" stroke-linejoin="round" stroke-miterlimit="10" d="
	M42,6.538C41.822,3.11,35.11,1,29,1S16.178,3.11,16,6.538"/>
<path fill="none" stroke="#000000" stroke-width="2" stroke-linecap="round" stroke-linejoin="round" stroke-miterlimit="10" d="
	M16,7v13.406c0,0,4.938-1.406,13-1.406s13,1.406,13,1.406V7H16z"/>
<circle fill="none" stroke="#000000" stroke-width="2" stroke-linecap="round" stroke-linejoin="round" stroke-miterlimit="10" cx="29" cy="13" r="3"/>
<path fill="none" stroke="#000000" stroke-width="2" stroke-linecap="round" stroke-linejoin="round" stroke-miterlimit="10" d="
	M24.911,41.822c-0.846,2.117-2.864,3.485-5.144,3.485c-0.701,0-1.392-0.134-2.054-0.397c-2.835-1.132-4.221-4.361-3.09-7.197
	c0.847-2.118,2.865-3.487,5.143-3.487c0.701,0,1.393,0.134,2.056,0.399c1.377,0.549,2.456,1.6,3.038,2.957
	C25.443,38.939,25.461,40.445,24.911,41.822z"/>
<path d="M30.756,37.144l-1.254-0.501c-0.216-0.674-0.5-1.322-0.848-1.934c-0.956-2.689,0.396-8.131,1.984-12.338
	c0.07-0.186,0.302-0.791,0.522-1.333C30.699,21.023,29,21.019,29,21.019c-1.906,4.544-3.412,10.896-2.254,14.292
	c0.022,0.102,0.061,0.199,0.114,0.291c0.373,0.637,0.66,1.325,0.854,2.048c0.081,0.306,0.302,0.554,0.595,0.671L30.012,39
	c0.421,0.17,0.627,0.646,0.458,1.066l-2.736,6.854c-0.166,0.411-0.648,0.626-1.066,0.458l-1.716-0.685
	c-0.294-0.117-0.623-0.089-0.893,0.075c-2.238,1.369-4.962,1.592-7.342,0.641c-2.429-0.969-4.211-2.983-4.892-5.525
	c-0.081-0.305-0.302-0.554-0.595-0.671l-1.733-0.692c-0.419-0.166-0.624-0.645-0.457-1.063l2.739-6.857
	c0.125-0.313,0.424-0.515,0.761-0.515c0.104,0,0.204,0.02,0.303,0.059l1.74,0.695c0.293,0.117,0.624,0.088,0.894-0.076
	c0.652-0.398,1.333-0.702,2.023-0.9c0.13-0.037,0.248-0.1,0.351-0.183c3.268-2.097,5.89-6.95,7.425-10.576
	c-0.773,0.043-1.504,0.097-2.189,0.159c-0.053,0.133-0.104,0.259-0.147,0.36c-0.63,1.444-2.923,6.284-6.155,8.366
	c-0.65,0.199-1.291,0.472-1.91,0.812l-1.287-0.516c-0.335-0.134-0.687-0.201-1.046-0.201c-1.159,0-2.188,0.695-2.618,1.771
	l-2.74,6.86c-0.574,1.444,0.133,3.088,1.574,3.661l1.281,0.512c0.935,2.927,3.075,5.234,5.938,6.377
	C17.192,49.754,18.469,50,19.768,50c1.693,0,3.374-0.438,4.893-1.268l1.265,0.504c0.336,0.135,0.688,0.203,1.047,0.203
	c1.158,0,2.186-0.697,2.618-1.775l2.736-6.854C32.905,39.37,32.201,37.726,30.756,37.144z"/>
</svg>
