<?xml version="1.0" encoding="utf-8"?>
<!-- Generator: Adobe Illustrator 16.0.0, SVG Export Plug-In . SVG Version: 6.00 Build 0)  -->
<!DOCTYPE svg PUBLIC "-//W3C//DTD SVG 1.1//EN" "http://www.w3.org/Graphics/SVG/1.1/DTD/svg11.dtd">
<svg version="1.1" id="Layer_1" xmlns="http://www.w3.org/2000/svg" xmlns:xlink="http://www.w3.org/1999/xlink" x="0px" y="0px"
	 width="50px" height="50px" viewBox="0 0 50 50" enable-background="new 0 0 50 50" xml:space="preserve">
<rect fill="none" width="50" height="50"/>
<circle fill="none" stroke="#000000" stroke-width="2" stroke-linecap="round" stroke-miterlimit="10" cx="39" cy="11" r="3"/>
<path fill="none" stroke="#000000" stroke-width="2" stroke-linecap="round" stroke-miterlimit="10" d="M47,5.5
	C47,4.119,45.881,3,44.5,3c-0.156,0-14.876,0.002-14.876,0.002c-1.33,0-2.603-0.07-3.341,0.668L3.554,26.398
	c-0.739,0.738-0.739,1.936,0,2.674l17.374,17.374c0.738,0.738,1.936,0.738,2.674,0L46.33,23.717c0.738-0.737,0.668-1.98,0.668-3.34
	C46.998,20.377,47,5.656,47,5.5z"/>
<g>
	<path d="M31.996,24.975c-0.011-1.524-0.417-2.687-1.217-3.486c-0.822-0.822-1.853-1.15-3.091-0.986
		c-0.987,0.131-2.028,0.559-3.124,1.283l4.652,4.652l-1.446,0.559l-4.324-4.324c-0.099,0.077-0.191,0.16-0.278,0.248
		c-0.088,0.088-0.17,0.17-0.247,0.246c-0.065,0.066-0.126,0.126-0.181,0.182c-0.055,0.055-0.105,0.113-0.148,0.18l4.094,4.094
		l-1.43,0.576l-3.585-3.585c-1.995,2.719-2.132,4.938-0.411,6.659c0.525,0.525,1.096,0.889,1.71,1.085
		c0.45,0.144,1.118,0.229,2.006,0.263l-1.727,1.727c-1.205-0.263-2.285-0.871-3.239-1.824c-2.685-2.686-2.663-5.854,0.066-9.504
		l-1.266-1.266l1.446-0.56l0.757,0.757c0.043-0.066,0.093-0.126,0.147-0.181s0.11-0.11,0.165-0.165
		c0.098-0.098,0.191-0.191,0.279-0.279s0.175-0.164,0.264-0.23l-1.201-1.199l1.431-0.576l0.888,0.888
		c1.611-1.085,3.172-1.649,4.686-1.693c1.711-0.065,3.212,0.548,4.506,1.841c0.997,0.998,1.644,2.335,1.939,4.013L31.996,24.975z"/>
</g>
</svg>
