<?xml version="1.0" encoding="utf-8"?>
<!-- Generator: Adobe Illustrator 16.0.0, SVG Export Plug-In . SVG Version: 6.00 Build 0)  -->
<!DOCTYPE svg PUBLIC "-//W3C//DTD SVG 1.1//EN" "http://www.w3.org/Graphics/SVG/1.1/DTD/svg11.dtd">
<svg version="1.1" id="Layer_1" xmlns="http://www.w3.org/2000/svg" xmlns:xlink="http://www.w3.org/1999/xlink" x="0px" y="0px"
	 width="50px" height="50px" viewBox="0 0 50 50" enable-background="new 0 0 50 50" xml:space="preserve">
<rect fill="none" width="50" height="50"/>
<circle fill="none" stroke="#000000" stroke-width="2" stroke-linecap="round" stroke-miterlimit="10" cx="39" cy="11" r="3"/>
<path fill="none" stroke="#000000" stroke-width="2" stroke-linecap="round" stroke-miterlimit="10" d="M47,5.5
	C47,4.119,45.881,3,44.5,3c-0.156,0-14.876,0.002-14.876,0.002c-1.33,0-2.603-0.07-3.341,0.668L3.554,26.398
	c-0.739,0.738-0.739,1.936,0,2.674l17.374,17.374c0.738,0.738,1.936,0.738,2.674,0L46.33,23.717c0.738-0.737,0.668-1.98,0.668-3.34
	C46.998,20.377,47,5.656,47,5.5z"/>
<g>
	<path d="M22.619,22.404c0.153-0.592,0.359-1.164,0.617-1.718s0.65-1.093,1.176-1.619c0.526-0.526,1.096-0.894,1.709-1.103
		c0.615-0.207,1.236-0.281,1.867-0.221c0.63,0.06,1.246,0.237,1.85,0.533c0.603,0.297,1.156,0.696,1.66,1.201
		c1.217,1.217,1.819,2.525,1.809,3.93c-0.011,1.402-0.734,2.8-2.17,4.192l-1.398-1.397c0.943-0.986,1.479-1.938,1.604-2.854
		c0.127-0.914-0.205-1.767-0.994-2.556c-0.329-0.329-0.691-0.581-1.086-0.757s-0.794-0.273-1.199-0.297
		c-0.406-0.021-0.801,0.039-1.184,0.182c-0.385,0.143-0.73,0.367-1.037,0.674c-0.263,0.264-0.479,0.534-0.648,0.814
		c-0.171,0.279-0.312,0.56-0.428,0.839s-0.217,0.562-0.305,0.846c-0.088,0.286-0.181,0.576-0.279,0.872l2.614,2.614l-0.739,0.739
		l-2.253-2.252c-0.087,0.264-0.202,0.531-0.345,0.805c-0.144,0.274-0.33,0.527-0.56,0.757c-0.373,0.373-0.76,0.649-1.159,0.831
		c-0.4,0.181-0.811,0.307-1.233,0.378c-0.422,0.071-0.853,0.096-1.29,0.073c-0.439-0.021-0.877-0.055-1.316-0.098l0,0.065
		c0.405,0.164,0.792,0.331,1.159,0.501s0.715,0.42,1.044,0.749c0.317,0.317,0.575,0.63,0.772,0.937
		c0.197,0.308,0.378,0.598,0.543,0.872c0.153,0.284,0.309,0.571,0.469,0.862c0.158,0.291,0.363,0.562,0.616,0.814
		c0.263,0.264,0.587,0.461,0.97,0.592c0.384,0.132,0.75,0.219,1.102,0.264l-0.377,1.791c-0.615-0.044-1.185-0.225-1.711-0.542
		c-0.526-0.318-1.004-0.69-1.431-1.118c-0.274-0.274-0.509-0.576-0.706-0.904s-0.4-0.674-0.609-1.036
		c-0.186-0.362-0.383-0.718-0.592-1.068c-0.208-0.351-0.472-0.686-0.789-1.003c-0.318-0.318-0.661-0.557-1.028-0.715
		c-0.367-0.16-0.759-0.283-1.175-0.37l0.296-1.842c0.383,0.077,0.79,0.12,1.216,0.132c0.428,0.011,0.852-0.025,1.275-0.107
		c0.422-0.082,0.824-0.216,1.208-0.402s0.734-0.438,1.053-0.757c0.252-0.252,0.472-0.558,0.657-0.921
		c0.186-0.361,0.34-0.701,0.461-1.02l-1.398-1.396l0.74-0.74L22.619,22.404z"/>
</g>
</svg>
