<?xml version="1.0" encoding="utf-8"?>
<!-- Generator: Adobe Illustrator 16.0.0, SVG Export Plug-In . SVG Version: 6.00 Build 0)  -->
<!DOCTYPE svg PUBLIC "-//W3C//DTD SVG 1.1//EN" "http://www.w3.org/Graphics/SVG/1.1/DTD/svg11.dtd">
<svg version="1.1" id="Layer_1" xmlns="http://www.w3.org/2000/svg" xmlns:xlink="http://www.w3.org/1999/xlink" x="0px" y="0px"
	 width="50px" height="50px" viewBox="0 0 50 50" enable-background="new 0 0 50 50" xml:space="preserve">
<ellipse cx="36" cy="18" rx="2.5" ry="4"/>
<rect fill="none" width="50" height="50"/>
<path fill="none" stroke="#000000" stroke-width="2" stroke-linecap="round" stroke-linejoin="round" stroke-miterlimit="10" d="
	M21,35c0,0,3.254-6,15-6"/>
<g>
	<path fill="none" stroke="#000000" stroke-width="2" stroke-linecap="round" stroke-linejoin="round" stroke-miterlimit="10" d="
		M4.229,15.109C2.8,18.105,2,21.459,2,25c0,12.703,10.297,23,23,23c12.703,0,23-10.297,23-23C48,12.297,37.703,2,25,2l0,0
		C18.742,2,13.067,4.499,8.921,8.554"/>
</g>
<path fill="none" stroke="#000000" stroke-width="2" stroke-linecap="round" stroke-linejoin="round" stroke-miterlimit="10" d="
	M39.769,11.778C38.799,10.442,37.233,9,35,9c-1.982,0-3.12,1.004-3.12,1.004"/>
<ellipse cx="22" cy="18" rx="2.5" ry="4"/>
<path fill="none" stroke="#000000" stroke-width="2" stroke-linecap="round" stroke-linejoin="round" stroke-miterlimit="10" d="
	M16.001,14c0,0,1.84-5,6-5c1.982,0,3.12,1.004,3.12,1.004"/>
<g>
	<path d="M7.558,14.411l-0.439-1.104c-0.43-1.077-0.414-1.738-0.16-2.745l0.815-3.196C8.199,5.7,8.274,4.952,7.909,4.037
		C7.298,2.503,5.835,1.963,4.301,2.576C2.794,3.177,2.189,4.478,2.522,6.249C2.56,6.421,2.484,6.545,2.312,6.583L0.499,6.962
		C0.325,7,0.202,6.925,0.164,6.753c-0.627-2.746,0.554-5.182,3.354-6.299c2.906-1.16,5.633-0.033,6.696,2.632
		c0.516,1.292,0.436,2.417,0.024,4.047l-0.815,3.196c-0.248,0.941-0.26,1.382,0.105,2.298l0.344,0.861
		c0.064,0.16,0,0.312-0.161,0.376l-1.776,0.709C7.771,14.638,7.622,14.572,7.558,14.411z M8.454,17.049
		c-0.064-0.162-0.001-0.312,0.162-0.377l2.045-0.816c0.162-0.064,0.312,0,0.377,0.162l0.924,2.313c0.064,0.162,0,0.312-0.162,0.377
		l-2.045,0.816c-0.163,0.065-0.313,0-0.378-0.162L8.454,17.049z"/>
</g>
</svg>
