<?xml version="1.0" encoding="utf-8"?>
<!-- Generator: Adobe Illustrator 16.0.0, SVG Export Plug-In . SVG Version: 6.00 Build 0)  -->
<!DOCTYPE svg PUBLIC "-//W3C//DTD SVG 1.1//EN" "http://www.w3.org/Graphics/SVG/1.1/DTD/svg11.dtd">
<svg version="1.1" id="Layer_1" xmlns="http://www.w3.org/2000/svg" xmlns:xlink="http://www.w3.org/1999/xlink" x="0px" y="0px"
	 width="50px" height="50px" viewBox="0 0 50 50" enable-background="new 0 0 50 50" xml:space="preserve">
<rect fill="none" width="50" height="50"/>
<path fill="none" stroke="#000000" stroke-width="2" stroke-miterlimit="10" d="M43.462,22H6.539C3.479,22,1,24.463,1,27.5v13.666
	C1,42.18,1.828,43,2.846,43h44.309C48.173,43,49,42.18,49,41.166V27.5C49,24.463,46.521,22,43.462,22z M12,33.2
	c0,0.993-0.783,1.8-1.75,1.8h-3.5C5.782,35,5,34.193,5,33.2v-5.4C5,26.807,5.782,26,6.75,26h3.5c0.967,0,1.75,0.807,1.75,1.8V33.2z
	 M23,33.2c0,0.993-0.783,1.8-1.75,1.8h-3.5C16.782,35,16,34.193,16,33.2v-5.4c0-0.993,0.782-1.8,1.75-1.8h3.5
	c0.967,0,1.75,0.807,1.75,1.8V33.2z M34,33.2c0,0.993-0.783,1.8-1.75,1.8h-3.5C27.782,35,27,34.193,27,33.2v-5.4
	c0-0.993,0.782-1.8,1.75-1.8h3.5c0.967,0,1.75,0.807,1.75,1.8V33.2z M45,33.2c0,0.993-0.783,1.8-1.75,1.8h-3.5
	C38.782,35,38,34.193,38,33.2v-5.4c0-0.993,0.782-1.8,1.75-1.8h3.5c0.967,0,1.75,0.807,1.75,1.8V33.2z"/>
<line fill="none" stroke="#000000" stroke-width="2" stroke-linecap="round" stroke-linejoin="round" stroke-miterlimit="10" x1="35" y1="46" x2="44" y2="46"/>
<line fill="none" stroke="#000000" stroke-width="2" stroke-linecap="round" stroke-linejoin="round" stroke-miterlimit="10" x1="6" y1="46" x2="15" y2="46"/>
<circle fill="none" stroke="#000000" stroke-width="2" stroke-linecap="round" stroke-linejoin="round" stroke-miterlimit="10" cx="35" cy="46" r="3"/>
<circle fill="none" stroke="#000000" stroke-width="2" stroke-linecap="round" stroke-linejoin="round" stroke-miterlimit="10" cx="44" cy="46" r="3"/>
<circle fill="none" stroke="#000000" stroke-width="2" stroke-linecap="round" stroke-linejoin="round" stroke-miterlimit="10" cx="6" cy="46" r="3"/>
<circle fill="none" stroke="#000000" stroke-width="2" stroke-linecap="round" stroke-linejoin="round" stroke-miterlimit="10" cx="15" cy="46" r="3"/>
</svg>
