<?xml version="1.0" encoding="utf-8"?>
<!-- Generator: Adobe Illustrator 16.0.0, SVG Export Plug-In . SVG Version: 6.00 Build 0)  -->
<!DOCTYPE svg PUBLIC "-//W3C//DTD SVG 1.1//EN" "http://www.w3.org/Graphics/SVG/1.1/DTD/svg11.dtd">
<svg version="1.1" id="Layer_1" xmlns="http://www.w3.org/2000/svg" xmlns:xlink="http://www.w3.org/1999/xlink" x="0px" y="0px"
	 width="50px" height="50px" viewBox="0 0 50 50" enable-background="new 0 0 50 50" xml:space="preserve">
<rect fill="none" width="50" height="50"/>
<line fill="none" stroke="#000000" stroke-width="2" stroke-linecap="round" stroke-miterlimit="10" x1="32" y1="38" x2="34" y2="36"/>
<line fill="none" stroke="#000000" stroke-width="2" stroke-linecap="round" stroke-miterlimit="10" x1="27" y1="43" x2="29" y2="41"/>
<line fill="none" stroke="#000000" stroke-width="2" stroke-linecap="round" stroke-miterlimit="10" x1="12" y1="38" x2="14" y2="36"/>
<line fill="none" stroke="#000000" stroke-width="2" stroke-linecap="round" stroke-miterlimit="10" x1="7" y1="43" x2="9" y2="41"/>
<line fill="none" stroke="#000000" stroke-width="2" stroke-linecap="round" stroke-miterlimit="10" x1="23" y1="37" x2="25" y2="35"/>
<line fill="none" stroke="#000000" stroke-width="2" stroke-linecap="round" stroke-miterlimit="10" x1="18" y1="42" x2="20" y2="40"/>
<path fill="none" stroke="#000000" stroke-width="2" stroke-linecap="round" stroke-miterlimit="10" d="M36,13
	c-1.49,0-2.891,0.368-4.129,1.008C31.154,9.472,27.238,6,22.5,6c-5.247,0-9.5,4.253-9.5,9.5c0,0.547,0.057,1.08,0.146,1.602
	C12.772,17.04,12.391,17,12,17c-3.866,0-7,3.134-7,7s3.134,7,7,7c3.758,0,19.633,0,24,0c4.971,0,9-4.029,9-9S40.971,13,36,13z"/>
</svg>
