<?xml version="1.0" encoding="utf-8"?>
<!-- Generator: Adobe Illustrator 16.0.0, SVG Export Plug-In . SVG Version: 6.00 Build 0)  -->
<!DOCTYPE svg PUBLIC "-//W3C//DTD SVG 1.1//EN" "http://www.w3.org/Graphics/SVG/1.1/DTD/svg11.dtd">
<svg version="1.1" id="Layer_1" xmlns="http://www.w3.org/2000/svg" xmlns:xlink="http://www.w3.org/1999/xlink" x="0px" y="0px"
	 width="50px" height="50px" viewBox="0 0 50 50" enable-background="new 0 0 50 50" xml:space="preserve">
<rect fill="none" width="50" height="50"/>
<g>
	<g>
		<path fill="none" stroke="#000000" stroke-width="2" stroke-linecap="round" stroke-miterlimit="10" d="M10.324,33.746h13.963
			v11.107H12.103c-2.047-0.041-3.426-1.652-4.208-2.836"/>
		<path fill="none" stroke="#000000" stroke-width="2" stroke-linecap="round" stroke-miterlimit="10" d="M7.895,42.018
			c-0.782-1.185-5.345-9.534-6.282-10.957c-0.938-1.421-0.646-3.45-0.137-4.33l3.546-6.014l-1.759-1.016l9.423-1.155l3.714,8.739
			l-1.759-1.016L8.23,37.374C7.469,38.693,7.003,40.77,7.895,42.018z"/>
	</g>
	<g>
		<path fill="none" stroke="#000000" stroke-width="2" stroke-linecap="round" stroke-miterlimit="10" d="M39.894,33.814"/>
		<path fill="none" stroke="#000000" stroke-width="2" stroke-linecap="round" stroke-miterlimit="10" d="M39.778,33.751
			l-6.982-12.094l9.619-5.554l6.094,10.555c0.987,1.793,0.283,3.793-0.353,5.062"/>
		<path fill="none" stroke="#000000" stroke-width="2" stroke-linecap="round" stroke-miterlimit="10" d="M48.156,31.72
			c-0.636,1.27-5.585,9.394-6.348,10.917c-0.761,1.523-2.665,2.285-3.681,2.285l-6.981-0.063l-0.001,2.031l-5.713-7.585l5.714-7.585
			v2.031h12.82C45.49,33.751,47.521,33.116,48.156,31.72z"/>
	</g>
	<g>
		<path fill="none" stroke="#000000" stroke-width="2" stroke-linecap="round" stroke-miterlimit="10" d="M31.736,2.039
			c1.699-0.102,3.311,1.167,3.819,2.046l3.436,6.078l1.758-1.015l-3.711,8.739l-9.425-1.154l1.759-1.016l-4.307-7.461"/>
		<path fill="none" stroke="#000000" stroke-width="2" stroke-linecap="round" stroke-miterlimit="10" d="M19.108,2
			c-1.418,0.084-3.502,0.474-4.562,2.225L8.454,14.779l9.619,5.555l8.945-15.5c0.824-1.43,2.67-2.804,4.718-2.795
			C29.628,2.089,24.685,2.019,19.108,2z"/>
	</g>
</g>
</svg>
