<?xml version="1.0" encoding="utf-8"?>
<!-- Generator: Adobe Illustrator 16.0.0, SVG Export Plug-In . SVG Version: 6.00 Build 0)  -->
<!DOCTYPE svg PUBLIC "-//W3C//DTD SVG 1.1//EN" "http://www.w3.org/Graphics/SVG/1.1/DTD/svg11.dtd">
<svg version="1.1" id="Layer_1" xmlns="http://www.w3.org/2000/svg" xmlns:xlink="http://www.w3.org/1999/xlink" x="0px" y="0px"
	 width="50px" height="50px" viewBox="0 0 50 50" enable-background="new 0 0 50 50" xml:space="preserve">
<rect fill="none" width="50" height="50"/>
<path fill="none" stroke="#000000" stroke-width="2" stroke-linecap="round" stroke-linejoin="round" stroke-miterlimit="10" d="
	M10.176,31.891l-2.148,3.615c0,0-0.477,0.843,2.574,3.895c3.052,3.05,3.895,2.572,3.895,2.572l3.639-2.155"/>
<g>
	<g>
		
			<polyline fill="none" stroke="#000000" stroke-width="2" stroke-linecap="round" stroke-linejoin="round" stroke-miterlimit="10" points="
			29,32 29,41 23,46 21.17,38.682 		"/>
	</g>
</g>
<g>
	<g>
		
			<polyline fill="none" stroke="#000000" stroke-width="2" stroke-linecap="round" stroke-linejoin="round" stroke-miterlimit="10" points="
			18,21 9,21 4,27 11.318,28.83 		"/>
	</g>
</g>
<g>
	<path fill="none" stroke="#000000" stroke-width="2" stroke-linecap="round" stroke-miterlimit="10" d="M48,2
		c0,0-7.184,0.126-14.029,3.533c-2.197,1.097-4.397,2.567-6.367,4.536c-5.741,5.741-17.329,20.472-17.329,20.472
		s-0.513,1.662,3.507,5.683c4.018,4.017,5.68,3.504,5.68,3.504s14.894-11.756,20.469-17.33c1.961-1.964,3.43-4.162,4.525-6.363
		C47.848,9.201,48,2,48,2z"/>
</g>
<path fill="none" stroke="#000000" stroke-width="2" stroke-miterlimit="10" d="M7,39c-3.594,2.762-5.976,1-5.976,9.977
	C10,48.977,8.682,46.158,11,43"/>
<circle fill="none" stroke="#000000" stroke-width="2" stroke-linecap="round" stroke-linejoin="round" stroke-miterlimit="10" cx="34" cy="16" r="4"/>
</svg>
