<?xml version="1.0" encoding="utf-8"?>
<!-- Generator: Adobe Illustrator 16.0.0, SVG Export Plug-In . SVG Version: 6.00 Build 0)  -->
<!DOCTYPE svg PUBLIC "-//W3C//DTD SVG 1.1//EN" "http://www.w3.org/Graphics/SVG/1.1/DTD/svg11.dtd">
<svg version="1.1" id="Layer_1" xmlns="http://www.w3.org/2000/svg" xmlns:xlink="http://www.w3.org/1999/xlink" x="0px" y="0px"
	 width="50px" height="50px" viewBox="0 0 50 50" enable-background="new 0 0 50 50" xml:space="preserve">
<rect fill="none" width="50" height="50"/>
<polyline fill="none" stroke="#000000" stroke-width="2" stroke-linecap="round" stroke-miterlimit="10" points="40,7 40,16 
	31,15.999 "/>
<path fill="none" stroke="#000000" stroke-width="2" stroke-linecap="round" stroke-miterlimit="10" d="M7.999,25
	c0-9.39,7.61-17,17-17c5.011,0,9.516,2.167,12.627,5.616c0.618,0.686,1.182,1.423,1.683,2.203"/>
<g>
	<g>
		<path fill="none" stroke="#000000" stroke-width="2" stroke-linecap="round" stroke-miterlimit="10" d="M24.999,43
			c-0.676,0-1.342-0.039-1.998-0.116"/>
		
			<path fill="none" stroke="#000000" stroke-width="2" stroke-linecap="round" stroke-miterlimit="10" stroke-dasharray="4.5394,4.5394" d="
			M18.613,41.76c-4.954-2.009-8.745-6.285-10.086-11.541"/>
		<path fill="none" stroke="#000000" stroke-width="2" stroke-linecap="round" stroke-miterlimit="10" d="M8.115,27.998
			C8.039,27.342,7.999,26.676,7.999,26"/>
	</g>
</g>
<g>
	<g>
		<path fill="none" stroke="#000000" stroke-width="2" stroke-linecap="round" stroke-miterlimit="10" d="M41.999,26
			c0,0.336-0.01,0.669-0.028,1"/>
		
			<path fill="none" stroke="#000000" stroke-width="2" stroke-linecap="round" stroke-miterlimit="10" stroke-dasharray="2.2452,4.4903" d="
			M41.123,31.401c-1.925,5.749-6.838,10.128-12.895,11.292"/>
		<path fill="none" stroke="#000000" stroke-width="2" stroke-linecap="round" stroke-miterlimit="10" d="M25.999,42.971
			c-0.331,0.02-0.665,0.029-1,0.029"/>
	</g>
</g>
</svg>
