<?xml version="1.0" encoding="utf-8"?>
<!-- Generator: Adobe Illustrator 16.0.0, SVG Export Plug-In . SVG Version: 6.00 Build 0)  -->
<!DOCTYPE svg PUBLIC "-//W3C//DTD SVG 1.1//EN" "http://www.w3.org/Graphics/SVG/1.1/DTD/svg11.dtd">
<svg version="1.1" id="Layer_1" xmlns="http://www.w3.org/2000/svg" xmlns:xlink="http://www.w3.org/1999/xlink" x="0px" y="0px"
	 width="50px" height="50px" viewBox="0 0 50 50" enable-background="new 0 0 50 50" xml:space="preserve">
<rect fill="none" width="50" height="50"/>
<path fill="none" stroke="#000000" stroke-width="2" stroke-miterlimit="10" d="M41.098,23.197c-0.02,0-0.038,0.003-0.058,0.003
	c0.061-0.494,0.103-0.994,0.103-1.504c0-6.71-5.439-12.15-12.15-12.15c-5.229,0-9.672,3.309-11.386,7.941
	c-1.087-1.089-2.591-1.764-4.251-1.764c-3.319,0-6.009,2.69-6.009,6.008c0,0.085,0.01,0.167,0.013,0.251
	C3.695,22.995,1,26.344,1,30.331C1,35.119,4.881,39,9.67,39c2.381,0,29.449,0,31.428,0C45.463,39,49,35.463,49,31.099
	S45.463,23.197,41.098,23.197z"/>
</svg>
