<?xml version="1.0" encoding="utf-8"?>
<!-- Generator: Adobe Illustrator 16.0.0, SVG Export Plug-In . SVG Version: 6.00 Build 0)  -->
<!DOCTYPE svg PUBLIC "-//W3C//DTD SVG 1.1//EN" "http://www.w3.org/Graphics/SVG/1.1/DTD/svg11.dtd">
<svg version="1.1" id="Layer_1" xmlns="http://www.w3.org/2000/svg" xmlns:xlink="http://www.w3.org/1999/xlink" x="0px" y="0px"
	 width="50px" height="50px" viewBox="0 0 50 50" enable-background="new 0 0 50 50" xml:space="preserve">
<rect fill="none" width="50" height="50"/>
<polyline points="5,41.002 5,45 8.998,45 "/>
<rect x="2.583" y="36.825" transform="matrix(-0.707 -0.7072 0.7072 -0.707 -12.0115 75.6731)" fill="none" stroke="#000000" stroke-width="2" stroke-linecap="round" stroke-linejoin="round" stroke-miterlimit="10" width="14.175" height="6.999"/>
<path fill="none" stroke="#000000" stroke-width="2" stroke-linecap="round" stroke-linejoin="round" stroke-miterlimit="10" d="
	M31.76,35.193L14.807,18.241c-0.693-0.693-1.918-0.69-2.611,0L7.068,23.37c-0.721,0.721-0.721,1.89,0,2.611l16.952,16.952
	c0.36,0.36,0.833,0.54,1.306,0.54s0.945-0.18,1.306-0.54l5.128-5.128c0.346-0.347,0.54-0.816,0.54-1.306S32.105,35.539,31.76,35.193
	z"/>
<g>
	<g>
		<path fill="none" stroke="#000000" stroke-width="2" stroke-linecap="round" stroke-linejoin="round" stroke-miterlimit="10" d="
			M42.454,13.126c0.408,0.409,0.944,0.613,1.479,0.613s1.07-0.204,1.479-0.612l0.864-0.863c0.393-0.392,0.613-0.925,0.613-1.48
			s-0.221-1.088-0.613-1.48l-0.09-0.089c0.003,0,0.005,0,0.008,0c0.556,0,1.088-0.221,1.48-0.613l0.712-0.712
			c0.816-0.817,0.816-2.142-0.001-2.959l-3.341-3.341c-0.786-0.786-2.175-0.784-2.96,0l-0.712,0.712
			c-0.41,0.411-0.613,0.949-0.611,1.487l-0.091-0.091c-0.393-0.393-0.925-0.613-1.479-0.613c0,0-0.001,0-0.002,0
			c-0.555,0-1.088,0.222-1.48,0.615l-0.863,0.866c-0.814,0.817-0.813,2.141,0.003,2.958"/>
	</g>
</g>
<path fill="none" stroke="#000000" stroke-width="2" stroke-linecap="round" stroke-linejoin="round" stroke-miterlimit="10" d="
	M11.369,47.221c-2.373,2.372-6.217,2.372-8.588,0c-1.232-1.23-1.824-2.86-1.779-4.477"/>
<path fill="none" stroke="#000000" stroke-width="2" stroke-linecap="round" stroke-linejoin="round" stroke-miterlimit="10" d="
	M29.449,32.355c5.344-5.206,6.282-7.887,6.322-10.442c1.041,0.539,2.351,0.384,3.225-0.492c1.08-1.08,1.082-2.834,0-3.916
	c-0.143-0.141-0.402-0.449-0.402-0.449c1.088,0.86,2.662,0.801,3.666-0.204c1.082-1.082,1.083-2.834,0-3.916
	c-1.044-1.046-4.178-4.179-5.222-5.221c-1.083-1.083-2.836-1.082-3.917,0c-1.003,1.002-1.064,2.578-0.202,3.665
	c0,0-0.309-0.261-0.451-0.402c-1.081-1.082-2.834-1.082-3.915,0c-0.873,0.874-1.03,2.181-0.491,3.224
	c-2.555,0.04-5.234,0.979-10.443,6.323"/>
</svg>
