<?xml version="1.0" encoding="utf-8"?>
<!-- Generator: Adobe Illustrator 16.0.0, SVG Export Plug-In . SVG Version: 6.00 Build 0)  -->
<!DOCTYPE svg PUBLIC "-//W3C//DTD SVG 1.1//EN" "http://www.w3.org/Graphics/SVG/1.1/DTD/svg11.dtd">
<svg version="1.1" id="Layer_1" xmlns="http://www.w3.org/2000/svg" xmlns:xlink="http://www.w3.org/1999/xlink" x="0px" y="0px"
	 width="50px" height="50px" viewBox="0 0 50 50" enable-background="new 0 0 50 50" xml:space="preserve">
<rect fill="none" width="50" height="50"/>
<rect fill="none" width="50" height="50"/>
<polygon fill="none" stroke="#000000" stroke-width="2" stroke-linecap="round" stroke-linejoin="round" stroke-miterlimit="10" points="
	25,27.348 49,17.957 25,10.653 1,17.957 "/>
<path d="M46,33c0,1.104-1.998,6-1.998,6S42,34.104,42,33s0.896-2,2.002-2C45.104,31,46,31.896,46,33z"/>
<path fill="none" stroke="#000000" stroke-width="2" stroke-linecap="round" stroke-miterlimit="10" d="M11,22.5c0,1.33,0,6.67,0,8
	c0,3.037,6.268,5.5,14,5.5s14-2.463,14-5.5c0-1.33,0-6.67,0-8"/>
<path fill="none" stroke="#000000" stroke-width="2" stroke-linecap="round" stroke-linejoin="round" stroke-miterlimit="10" d="
	M25.053,17.338c0,0,14.508,1.892,15.907,2.062C42.28,19.56,44,19.92,44,23.154C44,24.923,44,33,44,33"/>
</svg>
