<?xml version="1.0" encoding="utf-8"?>
<!-- Generator: Adobe Illustrator 16.0.0, SVG Export Plug-In . SVG Version: 6.00 Build 0)  -->
<!DOCTYPE svg PUBLIC "-//W3C//DTD SVG 1.1//EN" "http://www.w3.org/Graphics/SVG/1.1/DTD/svg11.dtd">
<svg version="1.1" id="Layer_1" xmlns="http://www.w3.org/2000/svg" xmlns:xlink="http://www.w3.org/1999/xlink" x="0px" y="0px"
	 width="50px" height="50px" viewBox="0 0 50 50" enable-background="new 0 0 50 50" xml:space="preserve">
<ellipse cx="31.936" cy="17.726" rx="2.5" ry="4"/>
<rect fill="none" width="50" height="50"/>
<path fill="none" stroke="#000000" stroke-width="2" stroke-linecap="round" stroke-linejoin="round" stroke-miterlimit="10" d="
	M16.936,33.726c0,0,2-7,8-7s8,7,8,7s-1.637,2-8,2C18.572,35.726,16.936,33.726,16.936,33.726z"/>
<g>
	<path fill="none" stroke="#000000" stroke-width="2" stroke-linecap="round" stroke-linejoin="round" stroke-miterlimit="10" d="
		M24.936,1.726c-12.703,0-23,10.297-23,23c0,12.703,10.297,23,23,23c12.703,0,23-10.297,23-23
		C47.936,12.023,37.639,1.726,24.936,1.726L24.936,1.726z"/>
</g>
<path fill="none" stroke="#000000" stroke-width="2" stroke-linecap="round" stroke-linejoin="round" stroke-miterlimit="10" d="
	M37.935,13.726c0,0-1.841-5-5.999-5c-1.982,0-3.12,1.004-3.12,1.004"/>
<ellipse cx="17.936" cy="17.726" rx="2.5" ry="4"/>
<path fill="none" stroke="#000000" stroke-width="2" stroke-linecap="round" stroke-linejoin="round" stroke-miterlimit="10" d="
	M11.937,13.726c0,0,1.84-5,6-5c1.982,0,3.12,1.004,3.12,1.004"/>
</svg>
