<?xml version="1.0" encoding="utf-8"?>
<!-- Generator: Adobe Illustrator 16.0.0, SVG Export Plug-In . SVG Version: 6.00 Build 0)  -->
<!DOCTYPE svg PUBLIC "-//W3C//DTD SVG 1.1//EN" "http://www.w3.org/Graphics/SVG/1.1/DTD/svg11.dtd">
<svg version="1.1" id="Layer_1" xmlns="http://www.w3.org/2000/svg" xmlns:xlink="http://www.w3.org/1999/xlink" x="0px" y="0px"
	 width="50px" height="50px" viewBox="0 0 50 50" enable-background="new 0 0 50 50" xml:space="preserve">
<rect fill="none" width="50" height="50"/>
<g>
	<path fill="none" stroke="#000000" stroke-width="2" stroke-miterlimit="10" d="M48.974,14.627
		c-0.812-1.818-5.235-3.971-10.686-1.542c0,0-27.412,12.227-28.25,12.601c-0.837,0.376-1.439-0.042-2.22-0.62
		c-1.359-1-3.331-2.458-3.947-2.935c-0.975-0.746-3.425-0.268-2.757,1.23c0.666,1.497,2.747,6.16,3.534,7.926
		c1.158,2.592,7.202,1.999,17.719-2.69c0.957-0.427,1.99-0.887,3.072-1.37l-2.658,14.148c-0.342,1.375-0.01,1.753,0.444,1.553
		l1.56-0.697c0.807-0.36,1.918-1.639,2.479-2.857l7.593-16.429C42.516,19.368,49.49,15.786,48.974,14.627z"/>
	<path fill="none" stroke="#000000" stroke-width="2" stroke-linecap="round" stroke-linejoin="round" stroke-miterlimit="10" d="
		M27.691,17.801l-11.634-3.557c-1.282-0.394-2.975-0.424-3.783-0.064l-1.562,0.697c-0.452,0.201-0.394,0.701,0.86,1.368l8.334,5.049
		"/>
</g>
</svg>
