<?xml version="1.0" encoding="utf-8"?>
<!-- Generator: Adobe Illustrator 16.0.0, SVG Export Plug-In . SVG Version: 6.00 Build 0)  -->
<!DOCTYPE svg PUBLIC "-//W3C//DTD SVG 1.1//EN" "http://www.w3.org/Graphics/SVG/1.1/DTD/svg11.dtd">
<svg version="1.1" id="Layer_1" xmlns="http://www.w3.org/2000/svg" xmlns:xlink="http://www.w3.org/1999/xlink" x="0px" y="0px"
	 width="50px" height="50px" viewBox="0 0 50 50" enable-background="new 0 0 50 50" xml:space="preserve">
<rect fill="none" width="50" height="50"/>
<g>
	<path fill="none" stroke="#000000" stroke-width="2" stroke-linecap="round" stroke-linejoin="round" stroke-miterlimit="10" d="
		M29.02,1c-0.355-0.001-0.658,0.003-0.773,0.011h-8c-0.451,0.058-2.377-0.025-2.725,0c-0.908,0.098-1.535,0.19-2.402,0.54
		c-0.572,0.231-0.76,0.968-0.371,1.125c0.434,0.173-0.465,0.844-1.83,0.75c-0.541-0.038-1.295-0.086-1.613,0.145
		c-0.809,0.587-0.557,0.459-1.311,1.219C9.695,5.09,9.619,5.74,10.053,5.942c0.414,0.193-0.879,1.988-1.566,1.923
		c-0.68-0.063-1.037-0.025-1.303,0.353c-0.66,0.939-0.729,1.272-1.275,2.374c-0.215,0.438-0.195,1.22,0.133,1.387
		c0.328,0.166-0.307,2.04-0.768,2.04c-0.463,0-0.83,0.025-0.992,0.511c-0.414,1.237-0.49,1.707-0.758,3.012
		c-0.102,0.522,0.086,1.052,0.488,1.283c0.404,0.231-0.047,2.896-0.449,2.903c-0.404,0.007-0.668,0.324-0.713,0.855
		c-0.082,0.995-0.045,0.994-0.045,2.013c0.002,0.366,0.008,0.73,0.018,1.091c0.016,0.531,0.49,1.105,0.934,1.316
		c0.605,0.289,0.398,2.416,0.111,2.424c-0.654,0.02-0.734,0.675-0.658,1.209C3.4,31.972,3.416,32.222,3.762,33.5
		c0.105,0.383,0.441,0.732,0.787,0.848c0.348,0.115,1.598,2.666,1.182,2.686c-0.551,0.027-0.494,0.814-0.242,1.385
		c0.51,1.147,0.271,0.797,0.881,1.819c0.125,0.216,0.689,0.558,0.865,0.597c0.346,0.076,2.164,1.864,1.67,1.893
		s-0.432,0.768-0.148,1.104c0.717,0.854,0.549,0.71,1.324,1.386c0.443,0.385,1.471,0.355,1.539,0.404
		c1.027,0.164,3.266,1.162,1.742,1.341c-0.48-0.021-0.094,0.647,0.252,0.819c0.859,0.435,1.75,0.758,2.648,0.959
		c0.033,0.008,0.066,0.012,0.098,0.012c0.32,0,2.332,0.19,2.688,0.19c0.455,0,6.631,0.032,9.654,0.049"/>
</g>
<path fill="none" stroke="#000000" stroke-width="2" stroke-linecap="round" stroke-linejoin="round" stroke-miterlimit="10" d="
	M45.137,22.781c-0.033-0.544-0.314-0.934-0.711-0.9c-0.01,0.002-0.018,0.022-0.029,0.023c-0.057-0.664-0.127-1.324-0.227-1.971
	c0.012-0.002,0.018,0,0.025-0.003c0.348-0.143,0.555-0.687,0.461-1.215c-0.236-1.322-0.553-2.628-0.938-3.875
	c-0.146-0.499-0.938-0.707-0.938-0.707s-0.373-0.915-0.607-1.478c0.008-0.009,0.018-0.005,0.025-0.013
	c0.295-0.312,0.371-0.928,0.164-1.377c-0.518-1.127-1.105-2.195-1.744-3.174c-0.252-0.388-1.205-0.346-1.213-0.332
	C39.32,7.615,39.02,7.232,38.67,6.818c0.008-0.016,0.02-0.007,0.027-0.023c0.211-0.445,0.141-1.064-0.15-1.382
	c-0.744-0.8-1.533-1.507-2.346-2.099c-0.328-0.235-1.754-0.025-1.754-0.025l-0.365-0.184c0.006-0.015,0.016-0.018,0.018-0.03
	C34.197,2.549,33.996,2,33.65,1.851c-0.873-0.372-1.773-0.631-2.682-0.77c-0.26-0.054-1.203-0.077-1.92-0.081
	c-1.393,0.479-2.736,1.14-4.006,1.967c1.227,0.146-1.545,2.096-1.332,0.953c-0.801,0.625-1.562,1.32-2.285,2.085
	c1.174,0.112-1.01,2.882-1.367,1.599c-0.922,1.19-1.75,2.508-2.467,3.943c1.066-0.32-0.221,3.192-0.973,2.203
	c-0.596,1.527-1.072,3.164-1.41,4.904c0.992-0.365,0.523,2.834-0.371,2.374c-0.156,1.313-0.236,2.678-0.236,4.089
	c0,0.294,0.002,0.586,0.01,0.875c0.967-0.407,1.436,2.52,0.15,2.545c0.17,1.764,0.475,3.432,0.893,5
	c0.588-0.578,2.109,1.959,0.744,2.362c0.512,1.401,1.123,2.707,1.82,3.916c0.363-0.691,2.197,1.571,1.15,1.798
	c0.812,1.152,1.713,2.195,2.682,3.125c0.16-0.659,2.072,0.784,1.322,1.167c1.652,1.333,3.465,2.367,5.373,3.086
	C29.711,48.996,30.35,49,30.35,49c0.973-0.034,1.443-0.145,1.848-0.26c0.355-0.103,1.061-1.202,1.061-1.202s1.277-0.062,1.541-0.062
	c0.078,0,0.158-0.021,0.236-0.066c0.842-0.492,1.664-1.1,2.445-1.811c0.311-0.279,0.41-0.889,0.225-1.357
	c-0.006-0.011-0.016-0.011-0.016-0.021c0.367-0.367,0.441-0.458,0.791-0.871c0.004,0.012,0.598,0.074,0.781,0.074
	c0.15,0,0.305-0.08,0.426-0.24c0.689-0.896,1.33-1.887,1.908-2.951c0.227-0.422,0.189-1.043-0.088-1.392
	c-0.012-0.013-0.023-0.005-0.033-0.017c0.264-0.535,0.457-0.895,0.693-1.465c0.008,0.008,0.295-0.025,0.404-0.025
	c0.227,0,0.443-0.181,0.566-0.502c0.451-1.191,0.832-2.453,1.139-3.748c0.123-0.516-0.057-1.082-0.396-1.268
	c-0.004-0.002-0.01,0.004-0.016,0.002c0.131-0.635,0.236-1.283,0.33-1.938c0.01,0.002,0.01,0.016,0.018,0.018
	c0.039,0.01,0.078,0.013,0.111,0.013c0.316,0,0.592-0.341,0.646-0.822c0.152-1.351,0.232-2.735,0.232-4.114
	C45.201,24.236,45.18,23.504,45.137,22.781z M30.438,40.254c-5.029,0-9.107-6.829-9.107-15.249c0-8.423,4.078-15.25,9.107-15.25
	c5.031,0,9.105,6.828,9.105,15.25C39.543,33.425,35.469,40.254,30.438,40.254z"/>
</svg>
