<?xml version="1.0" encoding="utf-8"?>
<!-- Generator: Adobe Illustrator 16.0.0, SVG Export Plug-In . SVG Version: 6.00 Build 0)  -->
<!DOCTYPE svg PUBLIC "-//W3C//DTD SVG 1.1//EN" "http://www.w3.org/Graphics/SVG/1.1/DTD/svg11.dtd">
<svg version="1.1" id="Layer_1" xmlns="http://www.w3.org/2000/svg" xmlns:xlink="http://www.w3.org/1999/xlink" x="0px" y="0px"
	 width="50px" height="50px" viewBox="0 0 50 50" enable-background="new 0 0 50 50" xml:space="preserve">
<rect fill="none" width="50" height="50"/>
<path fill="none" stroke="#000000" stroke-width="2" stroke-miterlimit="10" d="M22.58,6.201C16.761,7.198,13,11.82,13,18
	c0,16-8,15.564-8,18c0,4,8.954,5,20,5s20-1,20-5c0-2.436-8-2-8-18c0-6.231-3.822-10.877-9.723-11.823"/>
<circle fill="none" stroke="#000000" stroke-width="2" stroke-miterlimit="10" cx="25" cy="4" r="3"/>
<path fill="none" stroke="#000000" stroke-width="2" stroke-miterlimit="10" d="M29.146,41.204C29.685,42.002,30,42.965,30,44
	c0,2.762-2.238,5-5,5s-5-2.238-5-5c0-0.974,0.278-1.882,0.76-2.65"/>
</svg>
