<?xml version="1.0" encoding="utf-8"?>
<!-- Generator: Adobe Illustrator 16.0.0, SVG Export Plug-In . SVG Version: 6.00 Build 0)  -->
<!DOCTYPE svg PUBLIC "-//W3C//DTD SVG 1.1//EN" "http://www.w3.org/Graphics/SVG/1.1/DTD/svg11.dtd">
<svg version="1.1" id="Layer_1" xmlns="http://www.w3.org/2000/svg" xmlns:xlink="http://www.w3.org/1999/xlink" x="0px" y="0px"
	 width="50px" height="50px" viewBox="0 0 50 50" enable-background="new 0 0 50 50" xml:space="preserve">
<rect fill="none" width="50" height="50"/>
<path fill="none" stroke="#000000" stroke-width="2" stroke-linecap="round" stroke-miterlimit="10" d="M47,12H3
	c-1.104,0-2,0.896-2,2v28c0,1.104,0.896,2,2,2h44c1.104,0,2-0.896,2-2V14C49,12.896,48.104,12,47,12z"/>
<path fill="none" stroke="#000000" stroke-width="2" stroke-linecap="round" stroke-miterlimit="10" d="M33,11V8
	c0-1.104-0.896-2-2-2H19c-1.104,0-2,0.896-2,2v3"/>
<line fill="none" stroke="#000000" stroke-width="2" stroke-linecap="round" stroke-miterlimit="10" x1="1" y1="23" x2="10" y2="23"/>
<line fill="none" stroke="#000000" stroke-width="2" stroke-linecap="round" stroke-miterlimit="10" x1="17" y1="23" x2="33" y2="23"/>
<line fill="none" stroke="#000000" stroke-width="2" stroke-linecap="round" stroke-miterlimit="10" x1="40" y1="23" x2="49" y2="23"/>
<path fill="none" stroke="#000000" stroke-width="2" stroke-linecap="round" stroke-miterlimit="10" d="M17,24c0,0.552-0.447,1-1,1
	h-5c-0.553,0-1-0.448-1-1v-2c0-0.552,0.447-1,1-1h5c0.553,0,1,0.448,1,1V24z"/>
<path fill="none" stroke="#000000" stroke-width="2" stroke-linecap="round" stroke-miterlimit="10" d="M40,24c0,0.552-0.447,1-1,1
	h-5c-0.553,0-1-0.448-1-1v-2c0-0.552,0.447-1,1-1h5c0.553,0,1,0.448,1,1V24z"/>
</svg>
