<?xml version="1.0" encoding="utf-8"?>
<!-- Generator: Adobe Illustrator 16.0.0, SVG Export Plug-In . SVG Version: 6.00 Build 0)  -->
<!DOCTYPE svg PUBLIC "-//W3C//DTD SVG 1.1//EN" "http://www.w3.org/Graphics/SVG/1.1/DTD/svg11.dtd">
<svg version="1.1" id="Layer_1" xmlns="http://www.w3.org/2000/svg" xmlns:xlink="http://www.w3.org/1999/xlink" x="0px" y="0px"
	 width="50px" height="50px" viewBox="0 0 50 50" enable-background="new 0 0 50 50" xml:space="preserve">
<rect fill="none" width="50" height="50"/>
<g>
	<path fill="none" stroke="#000000" stroke-width="2" stroke-linecap="round" stroke-linejoin="round" stroke-miterlimit="10" d="
		M39,38c2.204,0,3.999,1.795,3.999,4S41.204,46,39,46c-2.205,0-4.001-1.795-4.001-4S36.795,38,39,38 M34.707,36.473
		C33.061,37.754,32,39.754,32,42c0,3.863,3.137,7,7,7s7-3.137,7-7c0-2.344-1.154-4.419-2.924-5.689"/>
</g>
<g>
	<path fill="none" stroke="#000000" stroke-width="2" stroke-linecap="round" stroke-linejoin="round" stroke-miterlimit="10" d="
		M12,33.5c2.482,0,4.5,2.019,4.5,4.5c0,2.48-2.018,4.5-4.5,4.5S7.5,40.48,7.5,38C7.5,35.519,9.518,33.5,12,33.5 M12,27
		C5.928,27,1,31.927,1,38c0,6.072,4.928,11,11,11s11-4.928,11-11C23,31.927,18.072,27,12,27L12,27z"/>
</g>
<path fill="none" stroke="#000000" stroke-width="2" stroke-linecap="round" stroke-linejoin="round" stroke-miterlimit="10" d="
	M23,38c0,6.072-4.928,11-11,11S1,44.072,1,38c0-6.073,4.928-11,11-11S23,31.927,23,38z"/>
<path fill="none" stroke="#000000" stroke-width="2.1039" stroke-linecap="round" stroke-linejoin="round" stroke-miterlimit="10" d="
	M2.531,26.098c2.638-2.219,6.044-3.558,9.757-3.558c8.376,0,15.171,6.797,15.171,15.172"/>
<path fill="none" stroke="#000000" stroke-width="2.0011" stroke-linecap="round" stroke-linejoin="round" stroke-miterlimit="10" d="
	M27.781,36h15.192c1.087,0,2.653-1.123,3.052-2.219l2.895-7.938C49.321,24.746,48.136,24,47.049,24H28.027L23.669,7.985
	C23.443,6.921,22.79,6,21.703,6H5.966C4.881,6,4,6.888,4,7.985v16.669 M22.919,19H8.005v-9h12.46L22.919,19z"/>
<path fill="none" stroke="#000000" stroke-width="2.1039" stroke-linecap="round" stroke-linejoin="round" stroke-miterlimit="10" d="
	M35,24c0,0,0-5.231,0-7.174C35,11.833,38.671,11,41,11v2c0,0-2-0.149-2,4c0,1.942,0,7,0,7"/>
</svg>
