<?xml version="1.0" encoding="utf-8"?>
<!-- Generator: Adobe Illustrator 16.0.0, SVG Export Plug-In . SVG Version: 6.00 Build 0)  -->
<!DOCTYPE svg PUBLIC "-//W3C//DTD SVG 1.1//EN" "http://www.w3.org/Graphics/SVG/1.1/DTD/svg11.dtd">
<svg version="1.1" id="Layer_1" xmlns="http://www.w3.org/2000/svg" xmlns:xlink="http://www.w3.org/1999/xlink" x="0px" y="0px"
	 width="50px" height="50px" viewBox="0 0 50 50" enable-background="new 0 0 50 50" xml:space="preserve">
<rect fill="none" width="50" height="50"/>
<path fill="none" stroke="#000000" stroke-width="1.9804" stroke-miterlimit="10" d="M32,16c0,0.552-0.447,1-1,1H19
	c-0.552,0-1-0.448-1-1v-2c0-0.552,0.448-1,1-1h12c0.553,0,1,0.448,1,1V16z"/>
<rect fill="none" width="50" height="50"/>
<line fill="none" stroke="#000000" stroke-width="1.9804" stroke-linecap="round" stroke-linejoin="round" stroke-miterlimit="10" x1="9.577" y1="49" x2="15.346" y2="44.166"/>
<line fill="none" stroke="#000000" stroke-width="1.9804" stroke-linecap="round" stroke-linejoin="round" stroke-miterlimit="10" x1="40.423" y1="49" x2="34.654" y2="44.166"/>
<path fill="none" stroke="#000000" stroke-width="2" stroke-linecap="round" stroke-linejoin="round" stroke-miterlimit="10" d="
	M9,15v23.286C9,41.44,11.688,44,15,44h20c3.312,0,6-2.56,6-5.714V15c0-3.154-6-7-16-7S9,11.846,9,15z"/>
<path fill="none" stroke="#000000" stroke-width="2" stroke-linecap="round" stroke-linejoin="round" stroke-miterlimit="10" d="
	M13,18.833C13,17.821,13.896,17,15,17h20c1.104,0,2,0.821,2,1.833v8.333C37,28.178,36.104,29,35,29H15c-1.104,0-2-0.822-2-1.834
	V18.833z"/>
<path fill="none" stroke="#000000" stroke-width="2" stroke-linecap="round" stroke-linejoin="round" stroke-miterlimit="10" d="
	M35,4c0-2-3.75-3-10-3S15,2,15,4"/>
<line fill="none" stroke="#000000" stroke-width="2" stroke-linecap="round" stroke-linejoin="round" stroke-miterlimit="10" x1="29" y1="1.511" x2="28" y2="7.511"/>
<line fill="none" stroke="#000000" stroke-width="2" stroke-linecap="round" stroke-linejoin="round" stroke-miterlimit="10" x1="21" y1="1.511" x2="22" y2="7.511"/>
<circle fill="none" stroke="#000000" stroke-width="1.8918" stroke-linecap="round" stroke-linejoin="round" stroke-miterlimit="10" cx="16" cy="37" r="3"/>
<circle fill="none" stroke="#000000" stroke-width="1.8918" stroke-linecap="round" stroke-linejoin="round" stroke-miterlimit="10" cx="34" cy="37" r="3"/>
</svg>
