<?xml version="1.0" encoding="utf-8"?>
<!-- Generator: Adobe Illustrator 16.0.0, SVG Export Plug-In . SVG Version: 6.00 Build 0)  -->
<!DOCTYPE svg PUBLIC "-//W3C//DTD SVG 1.1//EN" "http://www.w3.org/Graphics/SVG/1.1/DTD/svg11.dtd">
<svg version="1.1" id="Layer_1" xmlns="http://www.w3.org/2000/svg" xmlns:xlink="http://www.w3.org/1999/xlink" x="0px" y="0px"
	 width="50px" height="50px" viewBox="0 0 50 50" enable-background="new 0 0 50 50" xml:space="preserve">
<rect fill="none" width="50" height="50"/>
<g>
	<path d="M39.131,15.534c-0.542-2.634-0.994-3.952-1.656-4.83C36.571,9.417,35.787,9,31.479,9H27v27.139
		c0,4.362,0.439,4.842,5.984,5.135V43H17.031v-1.727C22.366,40.98,23,40.559,23,36.139V9h-4.207c-4.311,0-5.486,0.417-6.209,1.646
		c-0.631,0.937-1.085,2.459-1.747,4.888H9c0.21-3.249,0.542-6.414,0.662-9.487h1.236c0.843,1.229,1.565,0.969,3.134,0.969H36.42
		c1.507,0,1.837,0.055,2.682-0.969h1.326c0,2.605,0.271,6.18,0.572,9.223L39.131,15.534z"/>
</g>
</svg>
