<?xml version="1.0" encoding="utf-8"?>
<!-- Generator: Adobe Illustrator 16.0.0, SVG Export Plug-In . SVG Version: 6.00 Build 0)  -->
<!DOCTYPE svg PUBLIC "-//W3C//DTD SVG 1.1//EN" "http://www.w3.org/Graphics/SVG/1.1/DTD/svg11.dtd">
<svg version="1.1" id="Layer_1" xmlns="http://www.w3.org/2000/svg" xmlns:xlink="http://www.w3.org/1999/xlink" x="0px" y="0px"
	 width="50px" height="50px" viewBox="0 0 50 50" enable-background="new 0 0 50 50" xml:space="preserve">
<rect fill="none" width="50" height="50"/>
<path fill="none" stroke="#000000" stroke-width="2" stroke-linecap="round" stroke-linejoin="round" stroke-miterlimit="10" d="
	M39.991,36.342c0,0-0.817-5.342-6.991-5.342c-6.844,0-10.324,4.471-10.324,7.578c0,4.182,4.993,4.923,7.83,5.007"/>
<path fill="none" stroke="#000000" stroke-width="2" stroke-linecap="round" stroke-linejoin="round" stroke-miterlimit="10" d="
	M28,21c0,0-2.124,2-5,2c-2.875,0-4.999-2-4.999-2"/>
<path fill="none" stroke="#000000" stroke-width="2" stroke-linecap="round" stroke-linejoin="round" stroke-miterlimit="10" d="
	M34,21c0,0,2.124,2,5,2c2.875,0,4.999-2,4.999-2"/>
<path fill="none" stroke="#000000" stroke-width="2" stroke-linecap="round" stroke-linejoin="round" stroke-miterlimit="10" d="
	M31.699,31.225c0,0,8.438,3.73,12.263,10.805c2.767,5.117,0.968,13.138-8.436-1.106c0.542,0.903,1.595,5.575-0.333,6.539
	c-3.047,1.524-4.818-7.54-11.318-11.806"/>
<g>
	<path fill="none" stroke="#000000" stroke-width="2" stroke-linecap="round" stroke-linejoin="round" stroke-miterlimit="10" d="
		M42.969,39.359C46.117,35.425,48,30.433,48,25C48,12.297,37.703,2,25,2l0,0C12.297,2,2,12.297,2,25c0,12.703,10.297,23,23,23
		c2.508,0,4.921-0.401,7.18-1.143"/>
</g>
</svg>
