<?xml version="1.0" encoding="utf-8"?>
<!-- Generator: Adobe Illustrator 16.0.0, SVG Export Plug-In . SVG Version: 6.00 Build 0)  -->
<!DOCTYPE svg PUBLIC "-//W3C//DTD SVG 1.1//EN" "http://www.w3.org/Graphics/SVG/1.1/DTD/svg11.dtd">
<svg version="1.1" id="Layer_1" xmlns="http://www.w3.org/2000/svg" xmlns:xlink="http://www.w3.org/1999/xlink" x="0px" y="0px"
	 width="50px" height="50px" viewBox="0 0 50 50" enable-background="new 0 0 50 50" xml:space="preserve">
<rect fill="none" width="50" height="50"/>
<polygon fill="none" stroke="#000000" stroke-width="2" stroke-linecap="round" stroke-linejoin="round" stroke-miterlimit="10" points="
	4,45 10.846,15.923 39.154,15.923 46,45 "/>
<path fill="none" stroke="#000000" stroke-width="2" stroke-linecap="round" stroke-linejoin="round" stroke-miterlimit="10" d="
	M22.078,15.73C21.409,15.016,21,14.056,21,13c0-2.209,1.792-4,4-4c2.209,0,4,1.791,4,4c0,1.007-0.372,1.928-0.986,2.63"/>
<g>
	<path d="M17.797,24.819c0-0.092,0.062-0.154,0.154-0.154h1.064c0.092,0,0.154,0.062,0.154,0.154v5.456l4.454-5.471
		c0.078-0.108,0.139-0.14,0.247-0.14h1.265c0.092,0,0.138,0.093,0.061,0.185l-3.267,3.931l3.591,6.195
		c0.061,0.092,0.016,0.17-0.093,0.17h-1.233c-0.107,0-0.154-0.031-0.215-0.139l-2.945-5.163l-1.864,2.25v2.897
		c0,0.092-0.062,0.154-0.154,0.154h-1.064c-0.092,0-0.154-0.062-0.154-0.154V24.819z"/>
	<path d="M27.112,36.995c-0.062-0.076-0.062-0.138,0.015-0.215l0.633-0.632c0.077-0.078,0.154-0.078,0.231,0
		c0.508,0.462,1.032,0.74,1.741,0.74c1.218,0,1.865-0.633,1.865-1.989v-0.863h-0.016c-0.34,0.616-0.971,1.018-2.05,1.018
		c-1.249,0-2.112-0.632-2.481-1.788c-0.186-0.555-0.247-1.095-0.247-1.941c0-0.848,0.062-1.387,0.247-1.941
		c0.369-1.157,1.232-1.789,2.481-1.789c1.079,0,1.71,0.4,2.05,1.018h0.016v-0.693c0-0.093,0.061-0.154,0.154-0.154h0.986
		c0.092,0,0.153,0.062,0.153,0.154v6.904c0,2.097-1.14,3.268-3.222,3.268C28.639,38.09,27.605,37.643,27.112,36.995z M31.428,32.758
		c0.123-0.371,0.17-0.802,0.17-1.434c0-0.633-0.047-1.049-0.17-1.434c-0.262-0.755-0.802-1.094-1.572-1.094
		c-0.802,0-1.31,0.385-1.557,1.094c-0.123,0.385-0.185,0.832-0.185,1.434c0,0.6,0.062,1.062,0.185,1.434
		c0.247,0.724,0.755,1.109,1.557,1.109C30.626,33.867,31.166,33.512,31.428,32.758z"/>
</g>
</svg>
