<?xml version="1.0" encoding="utf-8"?>
<!-- Generator: Adobe Illustrator 16.0.0, SVG Export Plug-In . SVG Version: 6.00 Build 0)  -->
<!DOCTYPE svg PUBLIC "-//W3C//DTD SVG 1.1//EN" "http://www.w3.org/Graphics/SVG/1.1/DTD/svg11.dtd">
<svg version="1.1" id="Layer_1" xmlns="http://www.w3.org/2000/svg" xmlns:xlink="http://www.w3.org/1999/xlink" x="0px" y="0px"
	 width="50px" height="50px" viewBox="0 0 50 50" enable-background="new 0 0 50 50" xml:space="preserve">
<rect fill="none" width="50" height="50"/>
<g>
	<path fill="none" stroke="#000000" stroke-width="2" stroke-miterlimit="10" d="M25,31.001c-2.742,0-5.172,1.243-6.835,3.168
		L25,41.001l6.834-6.832C30.17,32.244,27.74,31.001,25,31.001z"/>
	<path fill="none" stroke="#000000" stroke-width="2" stroke-miterlimit="10" d="M25,11c-8.267,0-15.708,3.464-21,9.001l3.732,3.732
		c4.338-4.582,10.46-7.457,17.269-7.457c6.807,0,12.93,2.875,17.268,7.457L46,20.001C40.707,14.464,33.266,11,25,11z"/>
	<path fill="none" stroke="#000000" stroke-width="2" stroke-miterlimit="10" d="M25,20.865c-5.541,0-10.517,2.36-14.022,6.113
		l3.961,3.961c2.487-2.74,6.068-4.473,10.061-4.473c3.992,0,7.573,1.732,10.061,4.473l3.961-3.961
		C35.516,23.226,30.541,20.865,25,20.865z"/>
</g>
</svg>
