<?xml version="1.0" encoding="utf-8"?>
<!-- Generator: Adobe Illustrator 16.0.0, SVG Export Plug-In . SVG Version: 6.00 Build 0)  -->
<!DOCTYPE svg PUBLIC "-//W3C//DTD SVG 1.1//EN" "http://www.w3.org/Graphics/SVG/1.1/DTD/svg11.dtd">
<svg version="1.1" id="Layer_1" xmlns="http://www.w3.org/2000/svg" xmlns:xlink="http://www.w3.org/1999/xlink" x="0px" y="0px"
	 width="50px" height="50px" viewBox="0 0 50 50" enable-background="new 0 0 50 50" xml:space="preserve">
<rect fill="none" width="50" height="50"/>
<path fill="none" stroke="#000000" stroke-width="2" stroke-linecap="round" stroke-linejoin="round" stroke-miterlimit="10" d="
	M49,44.646c-0.494,0.174-1.091,0.296-1.846,0.296c-1.538,0-3.902-0.42-5.539-1.71c-1.637,1.29-4,1.71-5.538,1.71
	s-3.901-0.42-5.539-1.71c-1.637,1.29-4,1.71-5.538,1.71s-3.901-0.42-5.539-1.71c-1.637,1.29-4,1.71-5.538,1.71
	s-3.901-0.42-5.538-1.71c-1.637,1.29-4.001,1.71-5.539,1.71c-0.69,0-1.291-0.062-1.846-0.147"/>
<path fill="none" stroke="#000000" stroke-width="2" stroke-linecap="round" stroke-linejoin="round" stroke-miterlimit="10" d="
	M49,48.646c-0.494,0.174-1.091,0.296-1.846,0.296c-1.538,0-3.902-0.42-5.539-1.71c-1.637,1.29-4,1.71-5.538,1.71
	s-3.901-0.42-5.539-1.71c-1.637,1.29-4,1.71-5.538,1.71s-3.901-0.42-5.539-1.71c-1.637,1.29-4,1.71-5.538,1.71
	s-3.901-0.42-5.538-1.71c-1.637,1.29-4.001,1.71-5.539,1.71c-0.69,0-1.291-0.062-1.846-0.147"/>
<path fill="none" stroke="#000000" stroke-width="2" stroke-linecap="round" stroke-linejoin="round" stroke-miterlimit="10" d="
	M40.417,26.084c0,0-11.818-3.935-15.406-3.43c-2.926,0.413-11.605,1.465-12.052,2.099C12.246,25.758,9.667,30.334,9.751,34"/>
<path fill="none" stroke="#000000" stroke-width="2" stroke-linecap="round" stroke-linejoin="round" stroke-miterlimit="10" d="
	M14.328,23.928c-2.19-1.241-4.716-2.679-5.021-2.88c-0.55-0.362-0.577-0.433-1.183-0.433s-2.25,0-2.885,0
	c-0.577,0-0.635,0.202-0.23,0.664c0.243,0.279,4.377,3.962,6.389,5.75"/>
<path fill="none" stroke="#000000" stroke-width="2" stroke-linecap="round" stroke-linejoin="round" stroke-miterlimit="10" d="
	M34.812,44.812c6.009-3.004,10.58-13.01,13.87-18.803c0.705-1.243-0.087-1.76-0.844-1.594c0,0-30.004,7.464-35.488,8.983
	c-6.132,1.7-9.433,7.288-9.433,9.78c0,0.678,0.021,1.037,0.286,1.227"/>
<path d="M30.409,36.957c-1.084,0.227-2.142-0.467-2.366-1.547c-0.226-1.082,0.462-2.143,1.547-2.367
	c1.081-0.227,2.14,0.467,2.368,1.549C32.184,35.67,31.488,36.729,30.409,36.957z"/>
<path d="M24.409,37.957c-1.084,0.227-2.142-0.467-2.366-1.547c-0.226-1.082,0.462-2.143,1.547-2.367
	c1.081-0.227,2.14,0.467,2.368,1.549C26.184,36.67,25.488,37.729,24.409,37.957z"/>
<path d="M18.409,38.957c-1.084,0.227-2.142-0.467-2.366-1.547c-0.226-1.082,0.462-2.143,1.547-2.367
	c1.081-0.227,2.14,0.467,2.368,1.549C20.184,37.67,19.488,38.729,18.409,38.957z"/>
</svg>
